<svg width="16" height="14" viewBox="0 0 16 14" fill="none" xmlns="http://www.w3.org/2000/svg">
<path d="M15.0313 6.25781H3.60354L10.4434 0.320312C10.5528 0.224609 10.4864 0.046875 10.3418 0.046875H8.61331C8.53713 0.046875 8.46487 0.0742186 8.40823 0.123047L1.02737 6.52734C0.959769 6.58594 0.905554 6.65838 0.868398 6.73976C0.831242 6.82115 0.812012 6.90956 0.812012 6.99902C0.812012 7.08849 0.831242 7.1769 0.868398 7.25828C0.905554 7.33966 0.959769 7.41211 1.02737 7.4707L8.4512 13.9141C8.48049 13.9395 8.51565 13.9531 8.55276 13.9531H10.3399C10.4844 13.9531 10.5508 13.7734 10.4414 13.6797L3.60354 7.74219H15.0313C15.1172 7.74219 15.1875 7.67188 15.1875 7.58594V6.41406C15.1875 6.32812 15.1172 6.25781 15.0313 6.25781Z" fill="black"/>
</svg>
