<svg width="16" height="16" viewBox="0 0 16 16" fill="none" xmlns="http://www.w3.org/2000/svg">
<path d="M3.63019 4.39062C3.94113 4.39062 4.19269 4.13906 4.19269 3.82812V0.5625C4.19269 0.251563 3.94113 0 3.63019 0C3.31925 0 3.06769 0.251563 3.06769 0.5625V3.82812C3.06769 4.13906 3.31925 4.39062 3.63019 4.39062ZM13.2083 6.64062H11.3333C11.3333 6.01875 10.8302 5.51562 10.2083 5.51562H2.45831C1.83644 5.51562 1.33331 6.01875 1.33331 6.64062V10.5156C1.33331 10.5688 1.33644 10.6203 1.34425 10.6703C1.33644 10.7797 1.33331 10.8891 1.33331 11C1.33331 13.7609 3.57238 16 6.33331 16C8.83488 16 10.9068 14.1641 11.2755 11.7656H13.2083C13.8302 11.7656 14.3333 11.2625 14.3333 10.6406V7.76562C14.3333 7.14375 13.8302 6.64062 13.2083 6.64062ZM10.2083 10.6406H10.1911C10.2021 10.7594 10.2083 10.8781 10.2083 11C10.2083 13.1406 8.47394 14.875 6.33331 14.875C4.19269 14.875 2.45831 13.1406 2.45831 11C2.45831 10.8781 2.46456 10.7594 2.4755 10.6406H2.45831V6.64062H10.2083V10.6406ZM13.2083 10.5156H11.4583V7.76562H13.2083V10.5156ZM8.91144 4.39062C9.22238 4.39062 9.47394 4.13906 9.47394 3.82812V0.5625C9.47394 0.251563 9.22238 0 8.91144 0C8.6005 0 8.34894 0.251563 8.34894 0.5625V3.82812C8.34894 4.13906 8.6005 4.39062 8.91144 4.39062ZM6.25519 4.39062C6.56613 4.39062 6.81769 4.13906 6.81769 3.82812V0.5625C6.81769 0.251563 6.56613 0 6.25519 0C5.94425 0 5.69269 0.251563 5.69269 0.5625V3.82812C5.69269 4.13906 5.94425 4.39062 6.25519 4.39062Z" fill="#00979D"/>
</svg>
