<svg width="16" height="16" viewBox="0 0 16 16" fill="none" xmlns="http://www.w3.org/2000/svg">
<path d="M8 2C4.68594 2 2 4.68594 2 8V13.625C2 13.8328 2.16719 14 2.375 14H5.25C5.80156 14 6.25 13.5516 6.25 13V9.75C6.25 9.19844 5.80156 8.75 5.25 8.75H3.125V8C3.125 5.30781 5.30781 3.125 8 3.125C10.6922 3.125 12.875 5.30781 12.875 8V8.75H10.75C10.1984 8.75 9.75 9.19844 9.75 9.75V13C9.75 13.5516 10.1984 14 10.75 14H13.625C13.8328 14 14 13.8328 14 13.625V8C14 4.68594 11.3141 2 8 2ZM5.125 9.875V12.875H3.125V9.875H5.125ZM12.875 12.875H10.875V9.875H12.875V12.875Z" fill="#00979D"/>
</svg>
