<svg width="16" height="16" viewBox="0 0 16 16" fill="none" xmlns="http://www.w3.org/2000/svg">
<path d="M13.7236 6.12656L9.87363 2.27656C9.77207 2.175 9.63926 2.125 9.50645 2.125C9.37363 2.125 9.24082 2.175 9.13926 2.27656L6.62207 4.79531C6.43144 4.77344 6.23926 4.76406 6.04707 4.76406C4.90332 4.76406 3.75957 5.14063 2.82051 5.89375C2.57988 6.08594 2.56113 6.44688 2.77832 6.66563L5.61738 9.50469L2.25176 12.8672C2.21051 12.9082 2.18506 12.9624 2.17988 13.0203L2.12676 13.6016C2.11269 13.7484 2.22988 13.8734 2.37519 13.8734C2.38301 13.8734 2.39082 13.8734 2.39863 13.8719L2.97988 13.8188C3.03769 13.8141 3.09238 13.7875 3.13301 13.7469L6.49863 10.3813L9.33769 13.2203C9.43926 13.3219 9.57207 13.3719 9.70488 13.3719C9.85644 13.3719 10.0064 13.3063 10.1096 13.1781C10.9893 12.0797 11.3549 10.7047 11.2064 9.375L13.7236 6.85781C13.9252 6.65781 13.9252 6.32969 13.7236 6.12656Z" fill="#595959"/>
</svg>
