<svg width="16" height="16" viewBox="0 0 16 16" fill="none" xmlns="http://www.w3.org/2000/svg">
<path d="M13.9689 7.21797C14.4517 7.21797 14.6533 6.59766 14.2611 6.31172L8.29393 1.97109C8.20871 1.90866 8.10582 1.875 8.00018 1.875C7.89454 1.875 7.79164 1.90866 7.70643 1.97109L1.73924 6.31172C1.34705 6.59609 1.54862 7.21797 2.03299 7.21797H3.00018V13.0617H1.87518C1.80643 13.0617 1.75018 13.118 1.75018 13.1867V13.9992C1.75018 14.068 1.80643 14.1242 1.87518 14.1242H14.1252C14.1939 14.1242 14.2502 14.068 14.2502 13.9992V13.1867C14.2502 13.118 14.1939 13.0617 14.1252 13.0617H13.0002V7.21797H13.9689ZM8.00018 3.07266L12.2361 6.15391H3.76424L8.00018 3.07266ZM4.12518 7.21797H5.9533V13.0617H4.12518V7.21797ZM7.0783 7.21797H8.90643V13.0617H7.0783V7.21797ZM11.8752 13.0617H10.0314V7.21797H11.8752V13.0617Z" fill="#00979D"/>
</svg>
