<svg width="24" height="24" viewBox="0 0 24 24" fill="none" xmlns="http://www.w3.org/2000/svg">
<path d="M20.5854 9.18984L14.8104 3.41484C14.6581 3.2625 14.4589 3.1875 14.2597 3.1875C14.0604 3.1875 13.8612 3.2625 13.7089 3.41484L9.9331 7.19297C9.64717 7.16016 9.35889 7.14609 9.0706 7.14609C7.35498 7.14609 5.63935 7.71094 4.23076 8.84063C3.86982 9.12891 3.8417 9.67031 4.16748 9.99844L8.42607 14.257L3.37764 19.3008C3.31577 19.3623 3.27759 19.4436 3.26982 19.5305L3.19014 20.4023C3.16904 20.6227 3.34482 20.8102 3.56279 20.8102C3.57451 20.8102 3.58623 20.8102 3.59795 20.8078L4.46982 20.7281C4.55654 20.7211 4.63857 20.6813 4.69951 20.6203L9.74795 15.5719L14.0065 19.8305C14.1589 19.9828 14.3581 20.0578 14.5573 20.0578C14.7847 20.0578 15.0097 19.9594 15.1644 19.7672C16.4839 18.1195 17.0323 16.057 16.8097 14.0625L20.5854 10.2867C20.8878 9.98672 20.8878 9.49453 20.5854 9.18984Z" fill="#1890FF"/>
</svg>
