<svg width="24" height="24" viewBox="0 0 24 24" fill="none" xmlns="http://www.w3.org/2000/svg">
<path d="M20.585 9.18984L14.81 3.41484C14.6576 3.2625 14.4584 3.1875 14.2592 3.1875C14.06 3.1875 13.8607 3.2625 13.7084 3.41484L9.93262 7.19297C9.64668 7.16016 9.3584 7.14609 9.07012 7.14609C7.35449 7.14609 5.63887 7.71094 4.23027 8.84063C4.14497 8.90912 4.07506 8.99481 4.02508 9.09212C3.97511 9.18943 3.9462 9.29618 3.94023 9.40541C3.93426 9.51464 3.95136 9.6239 3.99044 9.72608C4.02951 9.82826 4.08966 9.92106 4.16699 9.99844L8.42558 14.257L3.37715 19.3008C3.31528 19.3623 3.2771 19.4436 3.26933 19.5305L3.18965 20.4023C3.16855 20.6227 3.34433 20.8102 3.5623 20.8102C3.57402 20.8102 3.58574 20.8102 3.59746 20.8078L4.46933 20.7281C4.55605 20.7211 4.63808 20.6813 4.69902 20.6203L9.74746 15.5719L14.0061 19.8305C14.1584 19.9828 14.3576 20.0578 14.5568 20.0578C14.7842 20.0578 15.0092 19.9594 15.1639 19.7672C16.4834 18.1195 17.0318 16.057 16.8092 14.0625L20.585 10.2867C20.8873 9.98672 20.8873 9.49453 20.585 9.18984ZM15.6139 12.8742L15.0396 13.4484L15.1287 14.2547C15.2684 15.5017 15.0195 16.7615 14.4162 17.8617L6.14043 9.58125C6.44277 9.41484 6.75683 9.27422 7.08496 9.16172C7.72246 8.94141 8.39043 8.83125 9.07012 8.83125C9.29512 8.83125 9.52246 8.84297 9.74746 8.86875L10.5537 8.95781L11.1279 8.38359L14.2615 5.25L18.7498 9.73828L15.6139 12.8742Z" fill="#595959"/>
</svg>
