<svg width="16" height="16" viewBox="0 0 16 16" fill="none" xmlns="http://www.w3.org/2000/svg">
<path d="M13 4.875H10.875V4.625C10.875 3.0375 9.5875 1.75 8 1.75C6.4125 1.75 5.125 3.0375 5.125 4.625V4.875H3C2.72344 4.875 2.5 5.09844 2.5 5.375V13.75C2.5 14.0266 2.72344 14.25 3 14.25H13C13.2766 14.25 13.5 14.0266 13.5 13.75V5.375C13.5 5.09844 13.2766 4.875 13 4.875ZM6.25 4.625C6.25 3.65781 7.03281 2.875 8 2.875C8.96719 2.875 9.75 3.65781 9.75 4.625V4.875H6.25V4.625ZM12.375 13.125H3.625V6H5.125V7.375C5.125 7.44375 5.18125 7.5 5.25 7.5H6.125C6.19375 7.5 6.25 7.44375 6.25 7.375V6H9.75V7.375C9.75 7.44375 9.80625 7.5 9.875 7.5H10.75C10.8188 7.5 10.875 7.44375 10.875 7.375V6H12.375V13.125Z" fill="#00979D"/>
</svg>
