<svg width="16" height="16" viewBox="0 0 16 16" fill="none" xmlns="http://www.w3.org/2000/svg">
<path d="M13.7811 4.25156V2.25C13.7811 1.97344 13.5577 1.75 13.2811 1.75H2.71864C2.44208 1.75 2.21864 1.97344 2.21864 2.25V4.25156C1.9577 4.26719 1.74989 4.48438 1.74989 4.75V6.80781C1.74889 7.18601 1.82546 7.56039 1.97489 7.90781C2.04208 8.06719 2.12489 8.21719 2.21864 8.35938V13.75C2.21864 14.025 2.44208 14.25 2.71864 14.25H13.2811C13.5577 14.25 13.7811 14.0266 13.7811 13.75V8.35938C13.8764 8.21683 13.958 8.06564 14.0249 7.90781C14.1733 7.55938 14.2499 7.18906 14.2499 6.80781V4.75C14.2499 4.48438 14.0421 4.26719 13.7811 4.25156ZM3.34364 2.875H12.6561V4.25H3.34364V2.875ZM8.99989 13.1266H6.99989V11.5H8.99989V13.1266ZM12.6561 13.1266H9.99989V11C9.99989 10.7234 9.77645 10.5 9.49989 10.5H6.49989C6.22333 10.5 5.99989 10.7234 5.99989 11V13.1266H3.34364V9.34219C3.38895 9.36406 3.43583 9.38594 3.48426 9.40469C3.8327 9.55156 4.20301 9.625 4.58426 9.625C4.96551 9.625 5.33426 9.55156 5.68426 9.40469C5.89989 9.31406 6.10301 9.19844 6.28895 9.05937C6.29208 9.05781 6.2952 9.05781 6.29833 9.05937C6.48484 9.19903 6.68795 9.31502 6.90301 9.40469C7.25145 9.55156 7.62176 9.625 8.00301 9.625C8.38426 9.625 8.75301 9.55156 9.10301 9.40469C9.31864 9.31406 9.52176 9.19844 9.7077 9.05937C9.71083 9.05781 9.71395 9.05781 9.71708 9.05937C9.90359 9.19903 10.1067 9.31502 10.3218 9.40469C10.6702 9.55156 11.0405 9.625 11.4218 9.625C11.803 9.625 12.1718 9.55156 12.5218 9.40469C12.5686 9.38438 12.6155 9.36406 12.6624 9.34219V13.1266H12.6561ZM13.1249 6.80781C13.1249 7.74219 12.3593 8.5 11.4171 8.5C10.7796 8.5 10.2233 8.15469 9.92958 7.64219C9.88426 7.56406 9.80301 7.51562 9.71239 7.51562H9.70301C9.61395 7.51562 9.53114 7.56406 9.48583 7.64219C9.33592 7.90362 9.11947 8.1207 8.85847 8.27137C8.59748 8.42204 8.30125 8.50092 7.99989 8.5C7.36395 8.5 6.80926 8.15625 6.51551 7.64531C6.46864 7.56562 6.38426 7.51562 6.29208 7.51562C6.19989 7.51562 6.11395 7.56562 6.06864 7.64531C5.91786 7.90574 5.70113 8.12186 5.44027 8.2719C5.17941 8.42194 4.88363 8.50061 4.5827 8.5C3.64051 8.5 2.87489 7.74219 2.87489 6.80781V5.38281C2.87489 5.37812 2.87801 5.375 2.8827 5.375H13.1171C13.1218 5.375 13.1249 5.37812 13.1249 5.38281V6.80781Z" fill="#00979D"/>
</svg>
