<svg width="26" height="22" viewBox="0 0 26 22" fill="none" xmlns="http://www.w3.org/2000/svg">
<path d="M0 11C0 4.92487 4.92487 0 11 0H15C21.0751 0 26 4.92487 26 11C26 17.0751 21.0751 22 15 22H11C4.92487 22 0 17.0751 0 11Z" fill="#F08229"/>
<path d="M9.0625 16H10.2793V8.21387H10.3135L15.7412 16H16.9375V6.13574H15.7207V13.9219H15.6865L10.2588 6.13574H9.0625V16Z" fill="white"/>
<path d="M11 1H15V-1H11V1ZM15 21H11V23H15V21ZM11 21C5.47715 21 1 16.5228 1 11H-1C-1 17.6274 4.37258 23 11 23V21ZM25 11C25 16.5228 20.5228 21 15 21V23C21.6274 23 27 17.6274 27 11H25ZM15 1C20.5228 1 25 5.47715 25 11H27C27 4.37258 21.6274 -1 15 -1V1ZM11 -1C4.37258 -1 -1 4.37258 -1 11H1C1 5.47715 5.47715 1 11 1V-1Z" fill="white"/>
</svg>
