<svg width="20" height="20" viewBox="0 0 20 20" fill="none" xmlns="http://www.w3.org/2000/svg">
<path d="M15.832 18.3337C15.6654 18.3337 15.4987 18.2503 15.332 18.167L9.9987 14.3337L4.66536 18.167C4.41536 18.3337 4.08203 18.3337 3.83203 18.2503C3.58203 18.167 3.33203 17.8337 3.33203 17.5003V4.16699C3.33203 2.75033 4.41536 1.66699 5.83203 1.66699H14.1654C15.582 1.66699 16.6654 2.75033 16.6654 4.16699V17.5003C16.6654 17.8337 16.4987 18.0837 16.2487 18.2503C16.082 18.3337 15.9987 18.3337 15.832 18.3337ZM9.9987 12.5003C10.1654 12.5003 10.332 12.5837 10.4987 12.667L14.9987 15.917V4.16699C14.9987 3.66699 14.6654 3.33366 14.1654 3.33366H5.83203C5.33203 3.33366 4.9987 3.66699 4.9987 4.16699V15.917L9.4987 12.667C9.66536 12.5837 9.83203 12.5003 9.9987 12.5003V12.5003Z" fill="#00979D"/>
</svg>
