<svg width="20" height="20" viewBox="0 0 20 20" fill="none" xmlns="http://www.w3.org/2000/svg">
<path d="M15.832 18.3332C15.6654 18.3332 15.4987 18.2498 15.332 18.1665L9.9987 14.3332L4.66536 18.1665C4.41536 18.3332 4.08203 18.3332 3.83203 18.2498C3.58203 18.1665 3.33203 17.8332 3.33203 17.4998V4.1665C3.33203 2.74984 4.41536 1.6665 5.83203 1.6665H14.1654C15.582 1.6665 16.6654 2.74984 16.6654 4.1665V17.4998C16.6654 17.8332 16.4987 18.0832 16.2487 18.2498C16.082 18.3332 15.9987 18.3332 15.832 18.3332ZM9.9987 12.4998C10.1654 12.4998 10.332 12.5832 10.4987 12.6665L14.9987 15.9165V4.1665C14.9987 3.6665 14.6654 3.33317 14.1654 3.33317H5.83203C5.33203 3.33317 4.9987 3.6665 4.9987 4.1665V15.9165L9.4987 12.6665C9.66536 12.5832 9.83203 12.4998 9.9987 12.4998Z" fill="#595959"/>
</svg>
