<svg width="16" height="16" viewBox="0 0 16 16" fill="none" xmlns="http://www.w3.org/2000/svg">
<path d="M12.668 14.6668C12.5346 14.6668 12.4013 14.6002 12.268 14.5335L8.0013 11.4668L3.73464 14.5335C3.53464 14.6668 3.26797 14.6668 3.06797 14.6002C2.86797 14.5335 2.66797 14.2668 2.66797 14.0002V3.3335C2.66797 2.20016 3.53464 1.3335 4.66797 1.3335H11.3346C12.468 1.3335 13.3346 2.20016 13.3346 3.3335V14.0002C13.3346 14.2668 13.2013 14.4668 13.0013 14.6002C12.868 14.6668 12.8013 14.6668 12.668 14.6668ZM8.0013 10.0002C8.13464 10.0002 8.26797 10.0668 8.4013 10.1335L12.0013 12.7335V3.3335C12.0013 2.9335 11.7346 2.66683 11.3346 2.66683H4.66797C4.26797 2.66683 4.0013 2.9335 4.0013 3.3335V12.7335L7.6013 10.1335C7.73464 10.0668 7.86797 10.0002 8.0013 10.0002Z" fill="#00979D"/>
</svg>
