<svg width="12" height="16" viewBox="0 0 12 16" fill="none" xmlns="http://www.w3.org/2000/svg">
<path d="M0.997879 15.5C0.854722 15.4996 0.714092 15.4623 0.589546 15.3917C0.460824 15.3193 0.353639 15.2141 0.278963 15.0867C0.204286 14.9593 0.1648 14.8143 0.164546 14.6667V2.44167C0.15328 1.94193 0.339402 1.45789 0.682574 1.09444C1.02575 0.730986 1.49832 0.517412 1.99788 0.5H9.99788C10.4974 0.517412 10.97 0.730986 11.3132 1.09444C11.6564 1.45789 11.8425 1.94193 11.8312 2.44167V14.6667C11.8303 14.8121 11.7914 14.9548 11.7183 15.0805C11.6452 15.2062 11.5405 15.3106 11.4145 15.3833C11.2879 15.4565 11.1442 15.495 10.9979 15.495C10.8516 15.495 10.7079 15.4565 10.5812 15.3833L5.85621 12.7083L1.41455 15.375C1.28917 15.4528 1.14539 15.496 0.997879 15.5Z" fill="#00979D"/>
</svg>
