<svg width="20" height="17" viewBox="0 0 14 13" fill="none" xmlns="http://www.w3.org/2000/svg">
<path d="M12.175 1.5C12.025 1.05 11.575 0.75 11.125 0.75H2.875C2.35 0.75 1.975 1.05 1.825 1.5L0.25 6V12C0.25 12.45 0.55 12.75 1 12.75H1.75C2.2 12.75 2.5 12.45 2.5 12V11.25H11.5V12C11.5 12.45 11.8 12.75 12.25 12.75H13C13.45 12.75 13.75 12.45 13.75 12V6L12.175 1.5ZM2.875 9C2.275 9 1.75 8.475 1.75 7.875C1.75 7.275 2.275 6.75 2.875 6.75C3.475 6.75 4 7.275 4 7.875C4 8.475 3.475 9 2.875 9ZM11.125 9C10.525 9 10 8.475 10 7.875C10 7.275 10.525 6.75 11.125 6.75C11.725 6.75 12.25 7.275 12.25 7.875C12.25 8.475 11.725 9 11.125 9ZM1.75 5.25L2.875 1.875H11.125L12.25 5.25H1.75Z" fill="#00979D"/>
</svg>
