<svg width="20" height="20" viewBox="0 0 20 20" fill="none" xmlns="http://www.w3.org/2000/svg">
<path d="M15.75 4.99984C15.5833 4.49984 15.0833 4.1665 14.5833 4.1665H5.41667C4.83333 4.1665 4.41667 4.49984 4.25 4.99984L2.5 9.99984V16.6665C2.5 17.1665 2.83333 17.4998 3.33333 17.4998H4.16667C4.66667 17.4998 5 17.1665 5 16.6665V15.8332H15V16.6665C15 17.1665 15.3333 17.4998 15.8333 17.4998H16.6667C17.1667 17.4998 17.5 17.1665 17.5 16.6665V9.99984L15.75 4.99984ZM5.41667 13.3332C4.75 13.3332 4.16667 12.7498 4.16667 12.0832C4.16667 11.4165 4.75 10.8332 5.41667 10.8332C6.08333 10.8332 6.66667 11.4165 6.66667 12.0832C6.66667 12.7498 6.08333 13.3332 5.41667 13.3332ZM14.5833 13.3332C13.9167 13.3332 13.3333 12.7498 13.3333 12.0832C13.3333 11.4165 13.9167 10.8332 14.5833 10.8332C15.25 10.8332 15.8333 11.4165 15.8333 12.0832C15.8333 12.7498 15.25 13.3332 14.5833 13.3332ZM4.16667 9.1665L5.41667 5.4165H14.5833L15.8333 9.1665H4.16667Z" fill="#595959"/>
</svg>
