<svg width="78" height="62" viewBox="0 0 78 62" fill="none" xmlns="http://www.w3.org/2000/svg">
<path d="M74.75 0.75H3.25C1.72891 0.75 0.5 1.97891 0.5 3.5V17.25H77.5V3.5C77.5 1.97891 76.2711 0.75 74.75 0.75ZM0.5 58.5C0.5 60.0211 1.72891 61.25 3.25 61.25H74.75C76.2711 61.25 77.5 60.0211 77.5 58.5V24.8125H0.5V58.5ZM50.2578 42.6875C50.2578 42.3094 50.5672 42 50.9453 42H65.125C65.5031 42 65.8125 42.3094 65.8125 42.6875V48.875C65.8125 49.2531 65.5031 49.5625 65.125 49.5625H50.9453C50.5672 49.5625 50.2578 49.2531 50.2578 48.875V42.6875Z" fill="#BFBFBF"/>
</svg>
