<svg width="20" height="20" viewBox="0 0 20 20" fill="none" xmlns="http://www.w3.org/2000/svg">
<path d="M18.125 3.125H1.875C1.5293 3.125 1.25 3.4043 1.25 3.75V16.25C1.25 16.5957 1.5293 16.875 1.875 16.875H18.125C18.4707 16.875 18.75 16.5957 18.75 16.25V3.75C18.75 3.4043 18.4707 3.125 18.125 3.125ZM2.65625 4.53125H17.3438V6.875H2.65625V4.53125ZM17.3438 15.4688H2.65625V8.59375H17.3438V15.4688ZM12.7148 14.2188H15.9375C16.0234 14.2188 16.0938 14.1484 16.0938 14.0625V12.6562C16.0938 12.5703 16.0234 12.5 15.9375 12.5H12.7148C12.6289 12.5 12.5586 12.5703 12.5586 12.6562V14.0625C12.5586 14.1484 12.6289 14.2188 12.7148 14.2188Z" fill="#595959"/>
</svg>
