<svg width="24" height="24" viewBox="0 0 24 24" fill="none" xmlns="http://www.w3.org/2000/svg">
<g clip-path="url(#clip0)">
<path d="M22.5734 16.267L23.9803 7.28346C24.1266 6.37183 23.5063 5.51407 22.5947 5.36735L3.60979 2.3202C2.69817 2.1739 1.84045 2.7942 1.69416 3.70582L1.01953 7.90708V16.2147L22.5734 16.267Z" fill="#389E0D"/>
<path d="M22.5921 5.36717L17.2 4.50195C13.5785 10.0433 7.72406 13.8813 3.23438 16.22L22.5708 16.2668L23.9778 7.28328C24.1241 6.37161 23.5038 5.51389 22.5921 5.36717Z" fill="#389E0D"/>
<path d="M1.67198 7.48926H20.8997C21.823 7.48926 22.5717 8.2379 22.5717 9.16124V20.0291C22.5717 20.9524 21.823 21.7011 20.8997 21.7011H1.67198C0.748639 21.701 0 20.9524 0 20.0291V9.16124C0 8.2379 0.748639 7.48926 1.67198 7.48926Z" fill="#2F54EB"/>
<path d="M20.9003 7.48926H20.5659C16.62 14.4944 9.24707 19.2997 4.74609 21.701H20.9003C21.8237 21.701 22.5723 20.9524 22.5723 20.029V9.16124C22.5723 8.2379 21.8237 7.48926 20.9003 7.48926Z" fill="#2F54EB"/>
<path d="M6.26977 9.5791H2.08984V12.9231H6.26977V9.5791Z" fill="white"/>
<path d="M3.34384 10.833H2.08984V11.669H3.34384V10.833Z" fill="white"/>
<path d="M6.26962 10.833H5.01562V11.669H6.26962V10.833Z" fill="white"/>
<path d="M18.3907 19.6116C19.545 19.6116 20.4807 18.6759 20.4807 17.5216C20.4807 16.3673 19.545 15.4316 18.3907 15.4316C17.2365 15.4316 16.3008 16.3673 16.3008 17.5216C16.3008 18.6759 17.2365 19.6116 18.3907 19.6116Z" fill="white"/>
<path d="M15.8829 19.6116C17.0372 19.6116 17.9729 18.6759 17.9729 17.5216C17.9729 16.3673 17.0372 15.4316 15.8829 15.4316C14.7287 15.4316 13.793 16.3673 13.793 17.5216C13.793 18.6759 14.7287 19.6116 15.8829 19.6116Z" fill="white"/>
<path d="M4.17982 15.8486H1.67188V16.6846H4.17982V15.8486Z" fill="white"/>
<path d="M8.35951 15.8486H5.85156V16.6846H8.35951V15.8486Z" fill="white"/>
<path d="M12.5392 15.8486H10.0312V16.6846H12.5392V15.8486Z" fill="white"/>
<path d="M12.5397 18.3574H1.67188V19.1934H12.5397V18.3574Z" fill="white"/>
<path d="M15.4649 9.5791H14.6289V11.2511H15.4649V9.5791Z" fill="white"/>
<path d="M17.1367 9.5791H16.3008V11.2511H17.1367V9.5791Z" fill="white"/>
<path d="M18.8086 9.5791H17.9727V11.2511H18.8086V9.5791Z" fill="white"/>
<path d="M20.4805 9.5791H19.6445V11.2511H20.4805V9.5791Z" fill="white"/>
</g>
<defs>
<clipPath id="clip0">
<rect width="24" height="24" fill="white"/>
</clipPath>
</defs>
</svg>
