<svg width="20" height="20" viewBox="0 0 20 20" fill="none" xmlns="http://www.w3.org/2000/svg">
<path d="M11.6661 12.0837V10.0004H8.33281V12.5004H6.66615V9.16708C6.66615 8.94606 6.75394 8.7341 6.91022 8.57782C7.0665 8.42154 7.27847 8.33374 7.49948 8.33374H11.6661V6.25041L14.5828 9.16708L11.6661 12.0837ZM18.0911 9.40874L10.5911 1.90874H10.5828C10.5057 1.83149 10.4141 1.7702 10.3133 1.72838C10.2125 1.68656 10.1045 1.66504 9.99531 1.66504C9.88617 1.66504 9.7781 1.68656 9.67729 1.72838C9.57648 1.7702 9.48491 1.83149 9.40781 1.90874L1.90781 9.40874C1.58281 9.73374 1.58281 10.2671 1.90781 10.5921L9.40781 18.0921C9.73281 18.4087 10.2578 18.4171 10.5911 18.0921L18.0911 10.5921C18.4161 10.2671 18.4161 9.73374 18.0911 9.40874Z" fill="#00979D"/>
</svg>
