<svg width="16" height="16" viewBox="0 0 16 16" fill="none" xmlns="http://www.w3.org/2000/svg">
<path d="M9.3337 9.66651V7.99984H6.66703V9.99984H5.3337V7.33317C5.3337 7.15636 5.40394 6.98679 5.52896 6.86177C5.65399 6.73674 5.82355 6.66651 6.00037 6.66651H9.3337V4.99984L11.667 7.33317L9.3337 9.66651ZM14.4737 7.52651L8.4737 1.52651H8.46703C8.40536 1.4647 8.3321 1.41567 8.25145 1.38222C8.1708 1.34876 8.08434 1.33154 7.99703 1.33154C7.90972 1.33154 7.82327 1.34876 7.74262 1.38222C7.66197 1.41567 7.58871 1.4647 7.52703 1.52651L1.52703 7.52651C1.26703 7.78651 1.26703 8.21317 1.52703 8.47317L7.52703 14.4732C7.78703 14.7265 8.20703 14.7332 8.4737 14.4732L14.4737 8.47317C14.7337 8.21317 14.7337 7.78651 14.4737 7.52651Z" fill="#00979D"/>
</svg>
