<svg width="48" height="48" viewBox="0 0 48 48" fill="none" xmlns="http://www.w3.org/2000/svg">
<path d="M11.2197 27.1166H15.4094C15.514 27.1166 15.6185 27.1135 15.7227 27.1166C16.0359 27.1311 16.0845 27.1688 16.0907 27.4887C16.1031 27.9851 16.1542 28.4797 16.2434 28.9681C16.8308 32.301 18.5834 34.8544 21.4512 36.6243C23.1655 37.683 25.0469 38.1861 27.0697 38.199C29.7378 38.2165 32.1002 37.3843 34.157 35.7025C36.3239 33.9267 37.6341 31.6297 38.0777 28.8572C38.4501 26.5301 38.1333 24.281 37.0518 22.1915C35.2808 18.7727 32.4705 16.7491 28.6512 16.1551C28.2766 16.1028 27.899 16.0748 27.5208 16.0711C27.114 16.0606 27.067 16.0159 27.0627 15.6167C27.0564 15.0027 27.0627 14.3886 27.0627 13.7738C27.0627 12.872 27.031 11.9702 27.0705 11.0683C27.1343 9.61755 27.0987 8.16874 27.1167 6.71914C27.1218 6.29096 27.1504 6.2592 27.5964 6.26352C28.8493 6.27939 30.0977 6.41688 31.324 6.67405C34.78 7.38741 37.8602 8.87962 40.5649 11.1507C42.5955 12.8563 44.2354 14.8878 45.4986 17.2259C46.6866 19.4217 47.4348 21.7594 47.797 24.2253C47.9981 25.6366 48.05 27.0652 47.9517 28.4874C47.7869 31.0396 47.1807 33.4891 46.1043 35.8174C45.2514 37.6712 44.134 39.391 42.787 40.9229C40.3151 43.7339 37.2993 45.723 33.7662 46.9283C32.1702 47.4687 30.5126 47.8059 28.8325 47.9321C24.8968 48.2403 21.1708 47.5008 17.6546 45.7136C15.9243 44.8326 14.3577 43.7139 12.9328 42.3874C11.0841 40.6662 9.56389 38.6221 8.44666 36.3553C7.41607 34.2772 6.77039 32.0771 6.47123 29.7786C6.38078 29.0807 6.34123 28.3745 6.30521 27.6711C6.2778 27.1327 6.31187 27.1135 6.83695 27.1127C8.29695 27.1145 9.75787 27.1159 11.2197 27.1166Z" fill="#F08229"/>
<path d="M35.0448 27.1419C35.0261 31.462 31.5928 35.0513 27.14 35.0423C22.7709 35.0337 19.2469 31.5812 19.2563 27.1281C19.2641 22.6151 22.8414 19.2246 27.1541 19.2273C31.6093 19.2289 35.0339 22.8225 35.0448 27.1419Z" fill="#00979D"/>
<path d="M1.62971 23.927C1.19899 23.927 0.768277 23.9317 0.337558 23.927C0.00277289 23.9219 -0.0254207 23.8929 0.0133439 23.5611C0.126292 22.6405 0.291141 21.727 0.507103 20.8251C1.00748 18.6855 1.76906 16.6159 2.77464 14.6628C4.76256 10.7801 7.6483 7.42929 11.1914 4.88963C14.7345 2.34997 18.8324 0.694957 23.1437 0.0624923C23.2729 0.0432794 23.401 0.0150472 23.5306 0.00524466C23.8438 -0.0190656 23.9065 0.0326917 23.9174 0.340883C23.9276 0.641233 23.9209 0.941975 23.9213 1.24272C23.9213 1.79166 23.9245 2.3406 23.9194 2.88954C23.9159 3.26439 23.8716 3.31537 23.5047 3.37026C22.0205 3.59434 20.5609 3.95946 19.1459 4.46069C16.4339 5.41546 13.9835 6.8282 11.7739 8.66716C8.93587 11.0296 6.77484 13.9072 5.24462 17.2632C4.34402 19.2359 3.75002 21.3018 3.41563 23.4435C3.34201 23.914 3.32674 23.927 2.84238 23.9297C2.43868 23.9289 2.03419 23.9274 1.62971 23.927Z" fill="#00979D"/>
<path d="M23.922 8.20198C23.922 8.60702 23.9243 9.01245 23.922 9.41749C23.9188 9.83665 23.9044 9.86292 23.5089 9.94252C22.69 10.1095 21.8851 10.3391 21.1012 10.6291C19.0103 11.3903 17.0834 12.5435 15.4235 14.027C13.6635 15.5954 12.2879 17.4481 11.2616 19.5647C10.6547 20.8171 10.2345 22.1345 9.93265 23.4916C9.83711 23.9205 9.83359 23.9229 9.38838 23.9264C8.60526 23.929 7.82213 23.929 7.03901 23.9264C6.61221 23.9241 6.55543 23.8562 6.63061 23.4398C6.919 21.8301 7.39472 20.2597 8.04807 18.7609C9.41241 15.6392 11.5193 12.8995 14.1848 10.7812C16.8503 8.66294 19.9932 7.23044 23.3389 6.60887C23.9196 6.50026 23.9212 6.49712 23.922 7.10409C23.9225 7.47032 23.9225 7.83628 23.922 8.20198Z" fill="#00979D"/>
<path d="M23.9218 14.8199C23.9218 15.2638 23.9257 15.708 23.9218 16.1531C23.9179 16.5118 23.9006 16.5393 23.5553 16.6565C22.2672 17.0943 21.0729 17.7709 20.0347 18.6511C19.0621 19.4656 18.2376 20.4425 17.5977 21.5386C17.2248 22.183 16.9137 22.8614 16.6685 23.5646C16.5475 23.9076 16.5263 23.9253 16.1626 23.9269C15.275 23.9308 14.3883 23.9308 13.5023 23.9269C13.1272 23.9245 13.0943 23.881 13.1918 23.5034C13.6873 21.5598 14.5928 19.7451 15.8474 18.1814C17.1742 16.5068 18.8565 15.149 20.7724 14.2063C21.6044 13.7976 22.4745 13.4716 23.3701 13.2331C23.4092 13.2229 23.4452 13.2123 23.4836 13.2033C23.8865 13.1061 23.9175 13.1272 23.9226 13.5283C23.9269 13.842 23.9226 14.1557 23.9226 14.4694C23.9223 14.5854 23.922 14.7023 23.9218 14.8199Z" fill="#00979D"/>
</svg>
