<svg width="24" height="24" viewBox="0 0 24 24" fill="none" xmlns="http://www.w3.org/2000/svg">
<path d="M12 8.25C9.93731 8.25 8.24995 9.9375 8.24995 12C8.24995 14.0627 9.93731 15.75 12 15.75C14.0627 15.75 15.75 14.0627 15.75 12C15.75 9.9375 14.0627 8.25 12 8.25ZM20.9502 11C20.5 6.85013 17.1499 3.50002 13 3.05006V1.5H11V3.05002C6.85013 3.49997 3.50002 6.85008 3.04983 11H1.5V13H3.04978C3.49997 17.1499 6.85003 20.5 11 20.9502V22.5H12.9999V20.9502C17.1498 20.5 20.4999 17.1499 20.9502 13H22.5V11H20.9502ZM12 19C8.14983 19 4.99997 15.8501 4.99997 12C4.99997 8.14987 8.14983 5.00002 12 5.00002C15.8501 5.00002 18.9999 8.14992 18.9999 12C18.9999 15.8501 15.8501 19 12 19Z" fill="#262626"/>
</svg>
