<svg width="40" height="24" viewBox="0 0 40 24" fill="none" xmlns="http://www.w3.org/2000/svg">
<g clip-path="url(#clip0)">
<path d="M39.588 14.3244C39.588 14.2944 39.5616 14.3244 39.54 14.3244H39.4932V14.4324H39.5412C39.5664 14.4324 39.588 14.4324 39.588 14.4012C39.6132 14.4012 39.6132 14.3724 39.6132 14.3484C39.6084 14.3544 39.6084 14.3244 39.588 14.3244ZM35.8512 10.8C35.2488 10.8 34.8 11.484 34.8 12.4704C34.8 13.1328 35.04 13.4664 35.5032 13.4664C36.1284 13.4664 36.5544 12.7596 36.5544 11.7744C36.5592 11.1336 36.318 10.8 35.8512 10.8ZM19.5048 11.4444C19.5048 11.0328 19.2648 10.8 18.8616 10.8C18.4356 10.8 18.1344 11.112 18 11.694H19.5048V11.4444ZM27.6 12.7764C27.6 13.0884 27.7992 13.2804 28.1004 13.2804C28.632 13.272 29.0448 12.7668 29.0676 12.0216C28.9188 12.0216 28.8504 12 28.7676 12C27.9984 12.0048 27.6 12.276 27.6 12.7764Z" fill="#D9D9D9"/>
<path d="M27.5932 0C24.5092 0 21.664 1.176 19.5532 3.108C17.6625 4.8176 16.3651 7.08464 15.8488 9.5808H16.4464L16.2784 10.8228H15.6628C15.5718 11.7123 15.5822 12.6093 15.694 13.4964C15.8308 13.4964 15.9592 13.4964 16.0396 13.4568L15.88 14.5644H15.8752C16.4131 17.0062 17.7013 19.2187 19.5592 20.892C21.7582 22.8954 24.6269 24.004 27.6016 24C34.2328 24 39.6004 18.6216 39.6004 12.0072C39.5956 5.3784 34.2244 0 27.5932 0ZM18.6892 13.5804C19.1692 13.5804 19.576 13.5012 20.0332 13.266L19.8244 14.5296C19.3684 14.6796 18.9604 14.742 18.4804 14.742C17.0368 14.742 16.3048 13.9572 16.3048 12.4716C16.3048 10.7436 17.2492 9.4572 18.5524 9.4572C19.6252 9.4572 20.3032 10.1712 20.3032 11.2884C20.3032 11.6652 20.2636 12.0204 20.1352 12.552H17.5768C17.5552 12.6144 17.5552 12.654 17.5552 12.6936C17.5552 13.2876 17.9452 13.5816 18.6892 13.5816V13.5804ZM22.7764 11.0184C22.1596 11.0184 22.0408 11.5464 21.562 14.64H20.2672L21.0784 9.5808H22.2532L22.1332 10.3656C22.5328 9.7536 22.7812 9.5412 23.206 9.5412H23.326L23.3572 9.564C23.1484 9.972 22.9756 10.4064 22.8604 11.0184H22.7764ZM26.5252 14.5788C26.0464 14.7024 25.7416 14.7732 25.3912 14.7732C23.986 14.7732 23.122 13.7448 23.122 12.078C23.122 9.87 24.3136 8.3136 26.0248 8.3136C26.2261 8.3111 26.427 8.33164 26.6236 8.3748L27.142 8.4996C27.31 8.5524 27.3496 8.5716 27.478 8.6232L27.2476 9.9672C26.7916 9.732 26.464 9.6312 26.0956 9.6312C25.1296 9.6312 24.442 10.5972 24.442 11.9712C24.442 12.9156 24.898 13.488 25.6564 13.488C25.9672 13.488 26.3308 13.386 26.752 13.1724L26.5252 14.5788ZM30.6028 13.722L30.5632 14.0376L30.5236 14.2896L30.5008 14.4852V14.6268H29.4292L29.4508 14.0952C29.1232 14.5116 28.684 14.7072 28.09 14.7072C27.394 14.7072 26.9152 14.1576 26.9152 13.332C26.9152 12.0912 27.7396 11.376 29.1844 11.376C29.3224 11.376 29.5132 11.4 29.704 11.4168C29.7436 11.244 29.7616 11.1816 29.7616 11.1024C29.7616 10.7652 29.53 10.6368 28.9372 10.6368C28.5688 10.6368 28.1296 10.6764 27.8416 10.7604L27.6736 10.8228L27.5536 10.8444L27.7396 9.7044C28.378 9.51 28.8124 9.4488 29.2828 9.4488C30.3952 9.4488 30.9748 9.9588 30.9748 10.9248C30.9748 11.1816 30.9748 11.364 30.8788 11.9316L30.6028 13.722ZM32.1988 14.64H30.9268L31.7116 9.5808H32.8852L32.7652 10.3656C33.1648 9.7536 33.4132 9.5412 33.8392 9.5412H33.9592L33.9892 9.564C33.7816 9.972 33.6124 10.4064 33.4924 11.0184H33.4132C32.7928 11.0184 32.6728 11.5464 32.1988 14.64ZM37.3396 14.6316H36.1252L36.1828 14.1432C35.8372 14.52 35.47 14.694 34.9912 14.694C34.0468 14.694 33.4312 13.8684 33.4312 12.606C33.4312 10.9164 34.3972 9.4932 35.5312 9.4932C36.0508 9.4932 36.4192 9.7272 36.7636 10.1844L37.0516 8.4108H38.3236L37.3396 14.6316ZM38.284 14.6712C38.0752 14.6796 37.9156 14.49 37.9156 14.2728C37.9156 14.0376 38.0836 13.8768 38.284 13.8768C38.5144 13.8768 38.674 14.0508 38.674 14.2728C38.6741 14.377 38.6332 14.4771 38.5603 14.5516C38.4874 14.6261 38.3882 14.669 38.284 14.6712Z" fill="#D9D9D9"/>
<path d="M38.9776 14.3999C38.8219 14.4064 38.6747 14.4731 38.567 14.5859C38.4594 14.6987 38.3997 14.8488 38.4004 15.0047C38.3985 15.16 38.4581 15.3098 38.5663 15.4213C38.6744 15.5329 38.8223 15.5971 38.9776 15.5999C39.316 15.5999 39.6004 15.3479 39.6004 14.9951C39.6004 14.6435 39.316 14.3999 38.9776 14.3999ZM39.1204 15.3287L39.04 15.0851H38.9248L38.9068 15.3287V15.3563H38.7472V14.6711H39.2092C39.2896 14.7155 39.2896 14.7971 39.2896 14.8775C39.2896 14.9231 39.2536 15.0047 39.1732 15.0407L39.334 15.3287H39.1204Z" fill="#D9D9D9"/>
<path d="M7.2002 12.9289C7.2002 13.3009 7.37899 13.5325 7.68499 13.5325C8.25379 13.5217 8.64499 12.9181 8.66779 12.0265C8.54059 12.0265 8.46499 12.0001 8.36179 12.0001C7.59979 12.0049 7.2002 12.3313 7.2002 12.9289ZM19.2002 11.5716C19.2002 11.0784 18.9554 10.8 18.5462 10.8C18.1142 10.8 17.8082 11.172 17.6714 11.8705H19.2002V11.5705V11.5716Z" fill="#BFBFBF"/>
<path d="M23.4516 12.078C23.4516 11.2092 23.6388 10.4424 23.9688 9.8304C23.9463 9.70114 23.9195 9.57267 23.8884 9.4452H16.5084C16.5888 9.0144 16.7184 8.598 16.8384 8.19H23.5356C23.3844 7.7604 23.2236 7.326 23.0316 6.9144H17.3556C17.5716 6.4848 17.7888 6.0504 18.0432 5.6376H22.3272C22.0506 5.19855 21.7434 4.77951 21.408 4.3836H18.9672C19.3416 3.9276 19.752 3.4968 20.1984 3.1068C17.968 1.10807 15.0789 0.00191496 12.084 0C5.424 0 0 5.376 0 12.012C0 18.624 5.4252 24 12.0828 24C15.21 24 18.0528 22.8252 20.1984 20.892C20.6327 20.5056 21.037 20.0868 21.408 19.6392H18.9672C18.6372 19.2312 18.3336 18.8052 18.048 18.3624H22.3224C22.5948 17.9544 22.8264 17.5248 23.0268 17.0856H17.3568C17.16 16.6776 16.986 16.2576 16.8288 15.8316H23.5368C23.6784 15.4236 23.7864 14.9856 23.8884 14.5548C23.9244 14.364 23.964 14.1648 24 13.9656C23.6472 13.518 23.4516 12.8712 23.4516 12.078ZM4.926 14.634L5.6664 9.8532L3.984 14.6352H3.0924L2.994 9.8928L2.2044 14.6352H1.0044L2.016 8.424H3.8892L3.948 12.2808L5.1888 8.424H7.2192L6.2064 14.634H4.926ZM10.4364 14.0412L10.4136 14.2932L10.392 14.4888C10.392 14.5104 10.3608 14.6304 10.3608 14.6304H9.288L9.3108 14.0988C8.9808 14.5152 8.5392 14.7108 7.9404 14.7108C7.2408 14.7108 6.7584 14.1612 6.7584 13.3368C6.7584 12.0948 7.5888 11.3808 9.0432 11.3808C9.1812 11.3808 9.3732 11.4048 9.5832 11.4216C9.6228 11.2488 9.6228 11.1864 9.6228 11.1072C9.6228 10.7712 9.3912 10.6416 8.7924 10.6416C8.4228 10.6416 8.0028 10.6812 7.7124 10.7652L7.5204 10.8276L7.4004 10.8504L7.5924 9.7104C8.2308 9.516 8.6724 9.4536 9.1452 9.4536C10.2648 9.4536 10.8672 9.9636 10.8672 10.9296C10.8672 11.1864 10.8456 11.3688 10.77 11.9352L10.4796 13.7268L10.4352 14.0412H10.4364ZM13.1004 11.6208C13.7376 11.9352 14.01 12.3432 14.01 13.0344C14.01 14.196 13.3716 14.724 11.9976 14.724C11.8368 14.724 11.5872 14.724 11.2968 14.6832C11.1785 14.6836 11.0605 14.6703 10.9452 14.6436L10.7124 14.604L10.6548 14.5812L10.8468 13.4208C11.2668 13.5528 11.6184 13.6152 12.0108 13.6152C12.5196 13.6152 12.7524 13.4652 12.7524 13.1496C12.7524 12.9372 12.672 12.8532 12.132 12.6C11.454 12.2676 11.16 11.8164 11.16 11.1864C11.1408 10.26 11.6592 9.4764 13.104 9.4764C13.488 9.48 13.8672 9.516 14.2464 9.5784L14.0544 10.7388C13.745 10.701 13.4337 10.6806 13.122 10.6776C12.7116 10.6776 12.4836 10.8012 12.4836 11.076C12.48 11.3064 12.5376 11.3688 13.1004 11.6208ZM15.96 13.5048C16.1028 13.5048 16.2324 13.5048 16.3128 13.4652L16.152 14.5728C15.852 14.6832 15.54 14.7408 15.2196 14.7456C14.5596 14.7456 14.1876 14.3688 14.1876 13.6248C14.1876 13.5 14.2116 13.3272 14.2284 13.1856L14.3088 12.6756L14.3664 12.2772L14.9292 8.8284H16.2096L16.0584 9.582H16.7232L16.5528 10.8228H15.9024L15.5544 12.9288C15.5304 13.0128 15.5304 13.0704 15.5304 13.1412C15.5304 13.4028 15.6516 13.5048 15.96 13.5048ZM18.984 13.584C19.4664 13.584 19.8768 13.5048 20.3364 13.2696L20.1276 14.5332C19.6918 14.6788 19.2347 14.7506 18.7752 14.7456C17.3208 14.7456 16.584 13.9608 16.584 12.4764C16.584 10.7484 17.5344 9.4632 18.8472 9.4632C19.9272 9.4632 20.6088 10.176 20.6088 11.2932C20.6088 11.67 20.5692 12.0252 20.4396 12.5568H17.8656C17.8416 12.618 17.8416 12.6576 17.8416 12.6984C17.8416 13.2924 18.2352 13.584 18.9852 13.584H18.984ZM23.1036 11.0232C22.4832 11.0232 22.362 11.5512 21.8796 14.6436H20.5776L21.39 9.5868H22.5672L22.4472 10.3716C22.8492 9.7596 23.0988 9.5472 23.5272 9.5472H23.6472L23.6784 9.5688C23.4696 9.9768 23.2944 10.4112 23.1792 11.0232H23.1036Z" fill="#BFBFBF"/>
</g>
<defs>
<clipPath id="clip0">
<rect width="39.6094" height="24" fill="white"/>
</clipPath>
</defs>
</svg>
