<svg width="53" height="32" viewBox="0 0 53 32" fill="none" xmlns="http://www.w3.org/2000/svg">
<g clip-path="url(#clip0)">
<path d="M52.784 19.0992C52.784 19.0592 52.7488 19.0992 52.72 19.0992H52.6576V19.2432H52.7216C52.7552 19.2432 52.784 19.2432 52.784 19.2016C52.8176 19.2016 52.8176 19.1632 52.8176 19.1312C52.8112 19.1392 52.8112 19.0992 52.784 19.0992ZM47.8016 14.4C46.9984 14.4 46.4 15.312 46.4 16.6272C46.4 17.5104 46.72 17.9552 47.3376 17.9552C48.1712 17.9552 48.7392 17.0128 48.7392 15.6992C48.7456 14.8448 48.424 14.4 47.8016 14.4ZM26.0064 15.2592C26.0064 14.7104 25.6864 14.4 25.1488 14.4C24.5808 14.4 24.1792 14.816 24 15.592H26.0064V15.2592ZM36.8 17.0352C36.8 17.4512 37.0656 17.7072 37.4672 17.7072C38.176 17.696 38.7264 17.0224 38.7568 16.0288C38.5584 16.0288 38.4672 16 38.3568 16C37.3312 16.0064 36.8 16.368 36.8 17.0352Z" fill="#FAB31E"/>
<path d="M36.7904 0C32.6784 0 28.8848 1.568 26.0704 4.144C23.5495 6.42347 21.8196 9.44618 21.1312 12.7744H21.928L21.704 14.4304H20.8832C20.7618 15.6164 20.7758 16.8124 20.9248 17.9952C21.1072 17.9952 21.2784 17.9952 21.3856 17.9424L21.1728 19.4192H21.1664C21.8836 22.675 23.6011 25.6249 26.0784 27.856C29.0104 30.5271 32.8353 32.0053 36.8016 32C45.6432 32 52.8 24.8288 52.8 16.0096C52.7936 7.1712 45.632 0 36.7904 0ZM24.9184 18.1072C25.5584 18.1072 26.1008 18.0016 26.7104 17.688L26.432 19.3728C25.824 19.5728 25.28 19.656 24.64 19.656C22.7152 19.656 21.7392 18.6096 21.7392 16.6288C21.7392 14.3248 22.9984 12.6096 24.736 12.6096C26.1664 12.6096 27.0704 13.5616 27.0704 15.0512C27.0704 15.5536 27.0176 16.0272 26.8464 16.736H23.4352C23.4064 16.8192 23.4064 16.872 23.4064 16.9248C23.4064 17.7168 23.9264 18.1088 24.9184 18.1088V18.1072ZM30.368 14.6912C29.5456 14.6912 29.3872 15.3952 28.7488 19.52H27.0224L28.104 12.7744H29.6704L29.5104 13.8208C30.0432 13.0048 30.3744 12.7216 30.9408 12.7216H31.1008L31.1424 12.752C30.864 13.296 30.6336 13.8752 30.48 14.6912H30.368ZM35.3664 19.4384C34.728 19.6032 34.3216 19.6976 33.8544 19.6976C31.9808 19.6976 30.8288 18.3264 30.8288 16.104C30.8288 13.16 32.4176 11.0848 34.6992 11.0848C34.9676 11.0815 35.2354 11.1089 35.4976 11.1664L36.1888 11.3328C36.4128 11.4032 36.4656 11.4288 36.6368 11.4976L36.3296 13.2896C35.7216 12.976 35.2848 12.8416 34.7936 12.8416C33.5056 12.8416 32.5888 14.1296 32.5888 15.9616C32.5888 17.2208 33.1968 17.984 34.208 17.984C34.6224 17.984 35.1072 17.848 35.6688 17.5632L35.3664 19.4384ZM40.8032 18.296L40.7504 18.7168L40.6976 19.0528L40.6672 19.3136V19.5024H39.2384L39.2672 18.7936C38.8304 19.3488 38.2448 19.6096 37.4528 19.6096C36.5248 19.6096 35.8864 18.8768 35.8864 17.776C35.8864 16.1216 36.9856 15.168 38.912 15.168C39.096 15.168 39.3504 15.2 39.6048 15.2224C39.6576 14.992 39.6816 14.9088 39.6816 14.8032C39.6816 14.3536 39.3728 14.1824 38.5824 14.1824C38.0912 14.1824 37.5056 14.2352 37.1216 14.3472L36.8976 14.4304L36.7376 14.4592L36.9856 12.9392C37.8368 12.68 38.416 12.5984 39.0432 12.5984C40.5264 12.5984 41.2992 13.2784 41.2992 14.5664C41.2992 14.9088 41.2992 15.152 41.1712 15.9088L40.8032 18.296ZM42.9312 19.52H41.2352L42.2816 12.7744H43.8464L43.6864 13.8208C44.2192 13.0048 44.5504 12.7216 45.1184 12.7216H45.2784L45.3184 12.752C45.0416 13.296 44.816 13.8752 44.656 14.6912H44.5504C43.7232 14.6912 43.5632 15.3952 42.9312 19.52ZM49.7856 19.5088H48.1664L48.2432 18.8576C47.7824 19.36 47.2928 19.592 46.6544 19.592C45.3952 19.592 44.5744 18.4912 44.5744 16.808C44.5744 14.5552 45.8624 12.6576 47.3744 12.6576C48.0672 12.6576 48.5584 12.9696 49.0176 13.5792L49.4016 11.2144H51.0976L49.7856 19.5088ZM51.0448 19.5616C50.7664 19.5728 50.5536 19.32 50.5536 19.0304C50.5536 18.7168 50.7776 18.5024 51.0448 18.5024C51.352 18.5024 51.5648 18.7344 51.5648 19.0304C51.5648 19.1694 51.5104 19.3028 51.4132 19.4021C51.316 19.5014 51.1837 19.5587 51.0448 19.5616Z" fill="#FAB31E"/>
<path d="M51.9696 19.2C51.7619 19.2087 51.5657 19.2976 51.4221 19.448C51.2786 19.5984 51.199 19.7985 51.2 20.0064C51.1974 20.2135 51.2769 20.4132 51.4211 20.5619C51.5653 20.7106 51.7625 20.7962 51.9696 20.8C52.4208 20.8 52.8 20.464 52.8 19.9936C52.8 19.5248 52.4208 19.2 51.9696 19.2ZM52.16 20.4384L52.0528 20.1136H51.8992L51.8752 20.4384V20.4752H51.6624V19.5616H52.2784C52.3856 19.6208 52.3856 19.7296 52.3856 19.8368C52.3856 19.8976 52.3376 20.0064 52.2304 20.0544L52.4448 20.4384H52.16Z" fill="#FAB31E"/>
<path d="M9.59998 17.2384C9.59998 17.7344 9.83838 18.0432 10.2464 18.0432C11.0048 18.0288 11.5264 17.224 11.5568 16.0352C11.3872 16.0352 11.2864 16 11.1488 16C10.1328 16.0064 9.59998 16.4416 9.59998 17.2384ZM25.6 15.4288C25.6 14.7712 25.2736 14.4 24.728 14.4C24.152 14.4 23.744 14.896 23.5616 15.8272H25.6V15.4272V15.4288Z" fill="#E40520"/>
<path d="M31.2688 16.104C31.2688 14.9456 31.5184 13.9232 31.9584 13.1072C31.9284 12.9349 31.8926 12.7636 31.8512 12.5936H22.0112C22.1184 12.0192 22.2912 11.464 22.4512 10.92H31.3808C31.1792 10.3472 30.9648 9.768 30.7088 9.2192H23.1408C23.4288 8.6464 23.7184 8.0672 24.0576 7.5168H29.7696C29.4008 6.9314 28.9913 6.37269 28.544 5.8448H25.2896C25.7888 5.2368 26.336 4.6624 26.9312 4.1424C23.9573 1.47742 20.1052 0.00255328 16.112 0C7.232 0 0 7.168 0 16.016C0 24.832 7.2336 32 16.1104 32C20.28 32 24.0704 30.4336 26.9312 27.856C27.5102 27.3407 28.0494 26.7823 28.544 26.1856H25.2896C24.8496 25.6416 24.4448 25.0736 24.064 24.4832H29.7632C30.1264 23.9392 30.4352 23.3664 30.7024 22.7808H23.1424C22.88 22.2368 22.648 21.6768 22.4384 21.1088H31.3824C31.5712 20.5648 31.7152 19.9808 31.8512 19.4064C31.8992 19.152 31.952 18.8864 32 18.6208C31.5296 18.024 31.2688 17.1616 31.2688 16.104ZM6.568 19.512L7.5552 13.1376L5.312 19.5136H4.1232L3.992 13.1904L2.9392 19.5136H1.3392L2.688 11.232H5.1856L5.264 16.3744L6.9184 11.232H9.6256L8.2752 19.512H6.568ZM13.9152 18.7216L13.8848 19.0576L13.856 19.3184C13.856 19.3472 13.8144 19.5072 13.8144 19.5072H12.384L12.4144 18.7984C11.9744 19.3536 11.3856 19.6144 10.5872 19.6144C9.6544 19.6144 9.0112 18.8816 9.0112 17.7824C9.0112 16.1264 10.1184 15.1744 12.0576 15.1744C12.2416 15.1744 12.4976 15.2064 12.7776 15.2288C12.8304 14.9984 12.8304 14.9152 12.8304 14.8096C12.8304 14.3616 12.5216 14.1888 11.7232 14.1888C11.2304 14.1888 10.6704 14.2416 10.2832 14.3536L10.0272 14.4368L9.8672 14.4672L10.1232 12.9472C10.9744 12.688 11.5632 12.6048 12.1936 12.6048C13.6864 12.6048 14.4896 13.2848 14.4896 14.5728C14.4896 14.9152 14.4608 15.1584 14.36 15.9136L13.9728 18.3024L13.9136 18.7216H13.9152ZM17.4672 15.4944C18.3168 15.9136 18.68 16.4576 18.68 17.3792C18.68 18.928 17.8288 19.632 15.9968 19.632C15.7824 19.632 15.4496 19.632 15.0624 19.5776C14.9046 19.5781 14.7473 19.5604 14.5936 19.5248L14.2832 19.472L14.2064 19.4416L14.4624 17.8944C15.0224 18.0704 15.4912 18.1536 16.0144 18.1536C16.6928 18.1536 17.0032 17.9536 17.0032 17.5328C17.0032 17.2496 16.896 17.1376 16.176 16.8C15.272 16.3568 14.88 15.7552 14.88 14.9152C14.8544 13.68 15.5456 12.6352 17.472 12.6352C17.984 12.64 18.4896 12.688 18.9952 12.7712L18.7392 14.3184C18.3266 14.268 17.9116 14.2408 17.496 14.2368C16.9488 14.2368 16.6448 14.4016 16.6448 14.768C16.64 15.0752 16.7168 15.1584 17.4672 15.4944ZM21.28 18.0064C21.4704 18.0064 21.6432 18.0064 21.7504 17.9536L21.536 19.4304C21.136 19.5776 20.72 19.6544 20.2928 19.6608C19.4128 19.6608 18.9168 19.1584 18.9168 18.1664C18.9168 18 18.9488 17.7696 18.9712 17.5808L19.0784 16.9008L19.1552 16.3696L19.9056 11.7712H21.6128L21.4112 12.776H22.2976L22.0704 14.4304H21.2032L20.7392 17.2384C20.7072 17.3504 20.7072 17.4272 20.7072 17.5216C20.7072 17.8704 20.8688 18.0064 21.28 18.0064ZM25.312 18.112C25.9552 18.112 26.5024 18.0064 27.1152 17.6928L26.8368 19.3776C26.2557 19.5717 25.6462 19.6674 25.0336 19.6608C23.0944 19.6608 22.112 18.6144 22.112 16.6352C22.112 14.3312 23.3792 12.6176 25.1296 12.6176C26.5696 12.6176 27.4784 13.568 27.4784 15.0576C27.4784 15.56 27.4256 16.0336 27.2528 16.7424H23.8208C23.7888 16.824 23.7888 16.8768 23.7888 16.9312C23.7888 17.7232 24.3136 18.112 25.3136 18.112H25.312ZM30.8048 14.6976C29.9776 14.6976 29.816 15.4016 29.1728 19.5248H27.4368L28.52 12.7824H30.0896L29.9296 13.8288C30.4656 13.0128 30.7984 12.7296 31.3696 12.7296H31.5296L31.5712 12.7584C31.2928 13.3024 31.0592 13.8816 30.9056 14.6976H30.8048Z" fill="#E40520"/>
</g>
<defs>
<clipPath id="clip0">
<rect width="52.8125" height="32" fill="white"/>
</clipPath>
</defs>
</svg>
