<svg width="14" height="14" viewBox="0 0 14 14" fill="none" xmlns="http://www.w3.org/2000/svg">
<path d="M1.16797 5.49769C1.16797 5.29463 1.29488 5.09157 1.49794 5.04081L12.1585 1.20808C12.3362 1.13194 12.5646 1.15732 12.6915 1.30961C12.8184 1.46191 12.8692 1.66497 12.8184 1.84264L8.96033 12.5032C8.88418 12.7063 8.70651 12.8332 8.50345 12.8332C8.30039 12.8332 8.12271 12.7063 8.04657 12.5286L6.1429 7.90901L1.47256 5.97995C1.29488 5.90381 1.16797 5.70075 1.16797 5.49769ZM11.4986 2.50258L3.09702 5.54846L6.70131 7.04601C6.82822 7.09677 6.92975 7.1983 6.98051 7.32521L8.47807 10.9295L11.4986 2.50258Z" fill="#595959"/>
</svg>
