<svg width="160" height="160" viewBox="0 0 160 160" fill="none" xmlns="http://www.w3.org/2000/svg">
<g clip-path="url(#clip0)">
<path d="M80.0006 6.875C37.7159 6.875 3.4375 41.1534 3.4375 83.4381C3.4375 102.678 10.5356 120.258 22.2541 133.708L46.9609 152.523C56.9637 157.316 68.1684 160.001 80.0006 160.001C122.285 160.001 156.564 125.723 156.564 83.4381C156.564 41.1534 122.285 6.875 80.0006 6.875Z" fill="#F5F5F5"/>
<path d="M84.9592 131.641L84.7667 131.289C83.6527 129.254 84.4064 126.677 86.442 125.562L86.6764 125.434C84.5439 126.602 81.8442 125.812 80.677 123.68C79.5098 121.547 80.2995 118.848 82.4317 117.681C80.2992 118.848 77.5998 118.058 76.4323 115.926C75.2652 113.793 76.0548 111.094 78.187 109.926C76.0545 111.093 73.3548 110.304 72.1877 108.171C71.0205 106.039 71.8102 103.339 73.9427 102.172L79.7011 99.0197L78.8233 97.4162C78.1786 96.2384 77.0598 95.3931 75.7508 95.0944C70.9648 94.0028 65.9964 95.9328 63.2023 99.9687C60.6855 103.706 63.2173 99.1484 56.8373 113.781C56.4258 114.757 55.6961 115.565 54.7667 116.074L22.2539 133.709C29.0833 141.547 37.4817 147.982 46.9608 152.524L69.9283 140.066C70.558 139.721 71.2583 139.526 71.9755 139.494L78.9577 139.187C79.6748 139.156 80.3752 138.96 81.0048 138.616L90.2355 133.562L89.9386 133.635C88.057 134.232 85.9408 133.434 84.9592 131.641Z" fill="#FFE7BA"/>
<path d="M98.4795 129.141L75.5527 87.1328L59.4414 90.8441L84.5233 136.8C86.6383 140.654 91.477 142.064 95.3311 139.949C99.1848 137.834 100.595 132.995 98.4795 129.141Z" fill="#595959"/>
<path d="M73.9055 101.219C72.1295 97.9653 73.9502 93.915 77.5623 93.0828L78.6614 92.8297L75.5523 87.1328L59.4414 90.8444L84.5233 136.801C86.5974 140.58 91.2911 142.007 95.1067 140.065L73.9055 101.219Z" fill="#8C8C8C"/>
<path d="M84.4773 131.905L84.2848 131.553C83.1704 129.517 83.9245 126.94 85.9601 125.826L97.8163 119.336C99.852 118.221 102.429 118.975 103.544 121.011L103.736 121.363C104.85 123.398 104.096 125.976 102.061 127.09L90.2045 133.58C88.1688 134.694 85.5917 133.94 84.4773 131.905Z" fill="#FFE7BA"/>
<path d="M80.1959 123.941C79.0287 121.809 79.8184 119.109 81.9509 117.942L96.1656 110.161C98.2981 108.994 100.998 109.783 102.165 111.915C103.332 114.048 102.542 116.747 100.41 117.915L86.1956 125.696C84.0628 126.863 81.3631 126.073 80.1959 123.941Z" fill="#FFE7BA"/>
<path d="M75.9538 116.187C74.7866 114.054 75.5763 111.355 77.7084 110.188L92.8075 101.923C94.94 100.755 97.6397 101.545 98.8069 103.677C99.9741 105.81 99.1844 108.509 97.0522 109.677L81.9531 117.942C79.8206 119.109 77.1209 118.319 75.9538 116.187Z" fill="#FFE7BA"/>
<path d="M92.7054 96.9392C91.5382 94.8067 88.8385 94.017 86.706 95.1842L73.4625 102.433C71.33 103.6 70.5404 106.3 71.7079 108.433C72.8751 110.565 75.5747 111.355 77.7072 110.187L90.9504 102.938C93.0829 101.771 93.8726 99.0717 92.7054 96.9392Z" fill="#FFE7BA"/>
<path d="M55.2656 115.749C55.4638 118.516 56.6453 122.797 61.9225 123.794C65.4319 124.457 68.9834 119.998 68.9834 119.998C73.4253 113.792 73.4472 109.212 73.1459 107.217C73.1197 107.044 73.3528 106.966 73.4369 107.119L74.5697 109.188C74.9663 109.913 75.485 110.527 76.0853 111.022C77.5081 112.058 79.4556 112.25 81.1019 111.349C82.6247 110.515 83.5006 108.96 83.5394 107.341C83.5841 105.479 82.7475 104.664 78.8222 97.4123C78.525 96.8698 78.0878 96.3404 77.5403 95.9258C77.5384 95.9245 77.5369 95.9229 77.5353 95.9217C77.0225 95.5342 76.4138 95.242 75.75 95.0904C70.9641 93.9989 65.9956 95.9289 63.2016 99.9648C60.6847 103.702 63.2166 99.1445 56.8366 113.777C56.5019 114.57 55.9553 115.248 55.2656 115.749Z" fill="#FFE7BA"/>
<path d="M78.0179 105.165L80.0373 108.854C80.5692 109.826 81.7417 110.234 82.7492 109.846C83.2454 109.104 83.5213 108.233 83.5426 107.342C83.5823 105.688 82.8917 104.92 80.8507 101.113L78.8892 102.187C77.8304 102.766 77.4385 104.107 78.0179 105.165Z" fill="#FFF7E6"/>
<path d="M63.6532 122.177C63.3566 121.63 63.4632 120.932 63.9482 120.5C72.0053 113.331 70.8122 105.364 70.7994 105.284C70.6772 104.536 71.1847 103.832 71.9322 103.709C72.68 103.588 73.385 104.095 73.5063 104.842C73.5691 105.228 74.9428 114.389 65.7716 122.549C65.2057 123.053 64.3388 123.002 63.8353 122.436C63.7632 122.355 63.7025 122.269 63.6532 122.177Z" fill="#FFE7BA"/>
<path d="M51.8414 89.59L42.8204 50.4275C42.7604 50.1662 42.7332 49.9056 42.7317 49.6484C32.0835 52.6644 25.5654 63.54 28.077 74.4438C30.5885 85.3475 41.2082 92.2759 52.1023 90.3294C51.9914 90.0975 51.9017 89.8512 51.8414 89.59Z" fill="#FAFAFA"/>
<path d="M30.2734 80.0895C34.5531 87.6208 43.2369 91.9152 52.1028 90.3314C51.9916 90.0995 51.9019 89.8533 51.8416 89.592L49.1003 77.6917C48.8606 77.5673 48.6131 77.4223 48.3581 77.2539C48.3588 77.2539 40.5056 85.5464 30.2734 80.0895Z" fill="#E8E8E8"/>
<path d="M102.203 23.383C93.9952 32.9998 83.2277 40.0389 71.1992 43.7195C71.2142 43.7736 71.2323 43.8261 71.2452 43.8814L80.2661 83.0439C80.2789 83.0992 80.2855 83.1542 80.2958 83.2095C92.7223 81.257 105.484 82.8761 117.072 87.9333L136.478 96.402C135.337 91.4483 117.09 12.2311 115.949 7.27734L102.203 23.383Z" fill="#FAFAFA"/>
<path d="M108.052 16.5277L117.797 55.9158C119.386 62.3377 114.25 68.4745 107.653 67.9802C99.8566 67.3958 89.3903 67.6073 78.0403 70.6033C78.0403 70.6033 77.9019 70.9495 77.5781 71.3814L80.2647 83.0439C80.2775 83.0992 80.2844 83.1542 80.2944 83.2095C92.7209 81.257 105.483 82.8761 117.071 87.9333L136.477 96.402C135.336 91.4483 117.088 12.2311 115.947 7.27734L108.052 16.5277Z" fill="#E8E8E8"/>
<path d="M146.238 40.6998C136.921 41.2158 130.797 36.9414 130.797 36.9414C131.53 40.1233 136.115 60.0292 136.853 63.232C136.853 63.232 140.49 56.7092 149.094 53.097C150.476 52.5167 151.255 51.0414 150.918 49.5805L149.417 43.0642C149.081 41.6033 147.735 40.617 146.238 40.6998Z" fill="#FAFAFA"/>
<path d="M150.036 45.7486C148.417 46.403 146.984 47.0942 145.742 47.7742C142.422 49.5908 138.288 47.7352 137.439 44.0477C137.065 42.4255 136.696 40.8217 136.387 39.4789C132.852 38.3727 130.797 36.9414 130.797 36.9414C131.53 40.1233 136.115 60.0292 136.853 63.232C136.853 63.232 140.49 56.7092 149.094 53.097C150.477 52.5167 151.255 51.0414 150.918 49.5805L150.036 45.7486Z" fill="#E8E8E8"/>
<path d="M141.732 101.818C139.462 102.341 137.197 100.924 136.674 98.6536L115.14 5.16676C114.617 2.89614 116.033 0.631764 118.304 0.108639C120.575 -0.414486 122.839 1.00208 123.362 3.2727L144.896 96.7596C145.42 99.0302 144.003 101.295 141.732 101.818Z" fill="#B5F5EC"/>
<path d="M144.895 96.7602L136.391 59.8398C136.059 61.5683 134.745 63.0252 132.92 63.4458C131.047 63.877 129.181 63.0927 128.141 61.6117L136.673 98.6539C137.196 100.925 139.461 102.341 141.731 101.818C144.002 101.295 145.418 99.0305 144.895 96.7602Z" fill="#5CDBD3"/>
<path d="M67.5947 41.0758L44.8766 46.3089C42.965 46.7492 41.7722 48.6558 42.2125 50.5674L51.2334 89.7299C51.6738 91.6414 53.5803 92.8339 55.4919 92.3936L78.21 87.1605C80.1216 86.7202 81.3144 84.8136 80.8737 82.902L71.8528 43.7395C71.4128 41.8283 69.5062 40.6355 67.5947 41.0758Z" fill="#B5F5EC"/>
<path d="M72.2875 72.7178L54.4997 76.8153C54.4997 76.8153 52.3781 79.9056 48.3594 77.2513L51.2337 89.7297C51.6741 91.6413 53.5806 92.8338 55.4922 92.3934L78.2103 87.1603C80.1219 86.72 81.3144 84.8134 80.8741 82.9019L78.0406 70.6016C78.0406 70.6016 76.6366 74.1209 72.2875 72.7178Z" fill="#5CDBD3"/>
<path d="M56.3358 46.4827C55.2686 46.4827 54.3039 45.7486 54.0539 44.6646L52.5018 37.9255C52.2111 36.6643 52.9983 35.4058 54.2596 35.1155C55.5205 34.8233 56.7792 35.6121 57.0696 36.8733L58.6218 43.6124C58.9124 44.8736 58.1252 46.1321 56.8639 46.4224C56.6871 46.463 56.5099 46.4827 56.3358 46.4827Z" fill="#E8E8E8"/>
<path d="M51.3735 40.0433C50.3063 40.0433 49.3416 39.3092 49.0916 38.2252C48.801 36.9639 49.5882 35.7055 50.8494 35.4152L57.4594 33.8927C58.721 33.6011 59.9788 34.3889 60.2694 35.6505C60.56 36.9117 59.7728 38.1702 58.5116 38.4605L51.9016 39.983C51.7247 40.0239 51.5478 40.0433 51.3735 40.0433Z" fill="#FAFAFA"/>
<path d="M48.951 52.7204C48.6603 51.4592 49.4475 50.2007 50.7088 49.9104L63.9288 46.8654C65.19 46.5735 66.4482 47.362 66.7388 48.6232C67.0294 49.8845 66.2422 51.1429 64.981 51.4332L51.761 54.4782C50.5025 54.7689 49.2419 53.9839 48.951 52.7204Z" fill="#87E8DE"/>
<path d="M50.7986 60.7513C50.508 59.49 51.2952 58.2316 52.5564 57.9413L65.7764 54.8963C67.0377 54.6057 68.2958 55.3928 68.5864 56.6541C68.8771 57.9153 68.0899 59.1738 66.8286 59.4641L53.6086 62.5091C52.3505 62.7997 51.0896 62.0147 50.7986 60.7513Z" fill="#87E8DE"/>
<path d="M52.6502 68.7867C52.3596 67.5255 53.1465 66.2671 54.408 65.9767L67.628 62.9314C68.8896 62.6408 70.1474 63.428 70.438 64.6892C70.7286 65.9505 69.9418 67.2089 68.6802 67.4992L55.4602 70.5446C54.2021 70.8352 52.9415 70.0502 52.6502 68.7867Z" fill="#87E8DE"/>
<path d="M54.4979 76.8182C54.2072 75.5569 54.9941 74.2985 56.2557 74.0082L69.4757 70.9629C70.7372 70.6716 71.9954 71.4594 72.2857 72.7207C72.5763 73.9819 71.7894 75.2404 70.5279 75.5307L57.3079 78.576C56.0497 78.8666 54.7888 78.0819 54.4979 76.8182Z" fill="#87E8DE"/>
<path d="M56.3494 84.8494C56.0588 83.5881 56.846 82.3297 58.1072 82.0393L71.3272 78.9943C72.5878 78.7025 73.8469 79.4906 74.1372 80.7522C74.4278 82.0134 73.6407 83.2718 72.3794 83.5622L59.1594 86.6072C57.9013 86.8978 56.6403 86.1131 56.3494 84.8494Z" fill="#87E8DE"/>
<path d="M69.9283 140.064C48.6417 137.665 55.2673 115.751 55.2673 115.75C55.1073 115.866 54.9417 115.976 54.7667 116.072L22.2539 133.707C29.0833 141.545 37.4817 147.98 46.9611 152.522L69.9283 140.064Z" fill="#FFE7BA"/>
</g>
<defs>
<clipPath id="clip0">
<rect width="160" height="160" fill="white"/>
</clipPath>
</defs>
</svg>
