<svg width="140" height="169" viewBox="0 0 140 169" fill="none" xmlns="http://www.w3.org/2000/svg">
<path d="M122.739 2.05078H1.02539V137.949H122.739L130.611 46.0999L122.739 2.05078Z" fill="#595959" fill-opacity="0.5"/>
<path d="M80.8097 157.742L59.2861 147.512C55.8143 145.862 54.3376 141.71 55.9877 138.238L76.4028 95.2861C78.053 91.8144 82.205 90.3377 85.6768 91.9878L107.2 102.218C110.672 103.868 112.149 108.02 110.499 111.492L90.0836 154.444C88.4335 157.916 84.2815 159.392 80.8097 157.742Z" fill="#13C2C2"/>
<path d="M64.2445 149.868L59.289 147.513C55.8157 145.862 54.3394 141.711 55.9893 138.24L76.4044 95.2879C78.0553 91.8146 82.2062 90.3383 85.6795 91.9891L90.6352 94.3446C87.1617 92.6937 83.0108 94.17 81.3599 97.6432L60.9449 140.595C59.2949 144.067 60.7713 148.217 64.2445 149.868Z" fill="#00979D"/>
<path d="M106.1 120.747L91.4983 151.464C83.3313 150.724 75.5007 148.159 68.5552 144.03L68.5541 144.027C64.4999 141.62 60.7479 138.68 57.4045 135.259L72.0047 104.541C77.0671 104.504 82.0284 105.352 86.69 106.993C88.129 107.497 89.5359 108.078 90.911 108.731C96.743 111.503 101.954 115.581 106.098 120.746L106.1 120.747L106.1 120.747Z" fill="white"/>
<path d="M68.5535 144.028C64.4992 141.621 60.7473 138.68 57.4038 135.259L72.0041 104.541C77.0665 104.504 82.0277 105.352 86.6894 106.993C81.6729 105.33 63.3 138.583 68.5535 144.028Z" fill="#F5F5F5"/>
<path d="M82.0857 140.439L71.8983 135.597C68.8725 134.159 67.5853 130.54 69.0236 127.514L73.8656 117.326C75.3038 114.301 78.9225 113.013 81.9486 114.452L92.136 119.294C95.1617 120.732 96.449 124.351 95.0107 127.377L90.1686 137.564C88.7302 140.59 85.1115 141.877 82.0857 140.439Z" fill="#13C2C2"/>
<path d="M76.0881 137.587L71.8997 135.596C68.8744 134.158 67.5852 130.539 69.0231 127.514L73.865 117.327C75.303 114.301 78.9245 113.013 81.9498 114.451L86.1383 116.442C83.113 115.004 79.4914 116.292 78.0535 119.318L73.2116 129.505C71.7736 132.53 73.0628 136.149 76.0881 137.587Z" fill="#00979D"/>
<path d="M106.645 63.528H82.8136C78.9696 63.528 75.8535 60.4119 75.8535 56.5679V9.01086C75.8535 5.16688 78.9696 2.05078 82.8136 2.05078H106.645C110.489 2.05078 113.605 5.16688 113.605 9.01086V56.5679C113.605 60.4119 110.489 63.528 106.645 63.528Z" fill="#FFA940"/>
<path d="M88.3032 63.5275H82.8164C78.9707 63.5275 75.8555 60.4122 75.8555 56.5688V9.01168C75.8555 5.16605 78.9707 2.05078 82.8164 2.05078H88.3034C84.4575 2.05078 81.3423 5.16605 81.3423 9.01168V56.5688C81.3423 60.4122 84.4575 63.5275 88.3032 63.5275Z" fill="#F08229"/>
<path d="M113.605 19.2586L113.602 53.2695C105.909 56.1075 97.7353 57.1526 89.6897 56.4048L89.6875 56.4026C84.9926 55.9692 80.3417 54.9241 75.8535 53.2698V19.2586C80.4098 17.0519 85.2546 15.6877 90.1693 15.1687C91.6853 15.0061 93.2053 14.9268 94.7278 14.9268C101.185 14.9268 107.642 16.3721 113.602 19.2588H113.605V19.2586Z" fill="white"/>
<path d="M89.6875 56.4018C84.9926 55.9684 80.3417 54.9233 75.8535 53.269V19.2578C80.4098 17.0511 85.2546 15.687 90.1693 15.168C84.9245 15.8193 82.6055 53.7396 89.6875 56.4018Z" fill="#F5F5F5"/>
<path d="M100.369 47.3524H89.0896C85.7395 47.3524 83.0234 44.6366 83.0234 41.2862V30.0066C83.0234 26.6565 85.7392 23.9404 89.0896 23.9404H100.369C103.719 23.9404 106.435 26.6562 106.435 30.0066V41.2862C106.435 44.6363 103.719 47.3524 100.369 47.3524Z" fill="#FFA940"/>
<path d="M93.7285 47.3512H89.091C85.7414 47.3512 83.0234 44.636 83.0234 41.2863V30.007C83.0234 26.6574 85.7414 23.9395 89.091 23.9395H93.7285C90.3789 23.9395 87.6609 26.6574 87.6609 30.007V41.2863C87.6609 44.636 90.3789 47.3512 93.7285 47.3512Z" fill="#F08229"/>
<path d="M122.739 2.05078H136.924V137.949H122.739V2.05078Z" fill="white"/>
<path d="M122.739 2.05078H127.649V137.949H122.739V2.05078Z" fill="#F5F5F5"/>
<path d="M16.3152 2.05078V34.2645H6.49609V2.05078" fill="white"/>
<path d="M6.49414 51.3857H16.3144V88.6151H6.49414V51.3857Z" fill="white"/>
<path d="M6.49414 137.949V105.735H16.3133V137.949" fill="white"/>
<path d="M106.813 102.098L85.2897 91.8682C80.8022 89.7352 75.4161 91.6508 73.2832 96.1384L52.868 139.091C50.7351 143.578 52.6507 148.964 57.1382 151.097L78.6619 161.327C83.1494 163.46 88.5355 161.545 90.6684 157.057L111.084 114.105C113.217 109.617 111.301 104.231 106.813 102.098ZM83.5288 95.5725L105.052 105.803C107.497 106.965 108.541 109.899 107.379 112.344L104.328 118.764C100.422 114.553 95.7048 111.073 90.5246 108.611C85.3441 106.149 79.6669 104.689 73.9359 104.319L76.9874 97.8989C78.1494 95.454 81.0839 94.4104 83.5288 95.5725ZM95.5426 122.898C95.023 121.855 94.2744 120.909 93.3065 120.144C92.4187 119.443 91.1284 119.592 90.4258 120.48C89.7233 121.368 89.874 122.658 90.7623 123.361C92.2347 124.525 92.6985 126.527 91.8898 128.229L87.0478 138.416C86.0976 140.415 83.6984 141.268 81.6993 140.318L71.5121 135.476C69.5115 134.525 68.6572 132.126 69.6074 130.127L74.4494 119.939C75.4002 117.939 77.8012 117.085 79.8016 118.036L83.8147 119.943C84.8378 120.43 86.0611 119.994 86.5472 118.972C87.0334 117.949 86.5986 116.725 85.5754 116.239L81.5623 114.332C79.8526 113.519 77.9989 113.361 76.2825 113.752L73.9277 108.42C84.3581 109.131 94.0166 113.721 101.154 121.361L95.5426 122.898ZM72.6335 115.642C71.8647 116.336 71.2161 117.187 70.7447 118.179L69.2044 121.419L66.434 120.102L70.6687 111.193L72.6335 115.642ZM64.6733 123.807L67.4437 125.124L65.9028 128.366C65.3406 129.548 65.093 130.8 65.1221 132.027L60.004 133.631L64.6733 123.807ZM66.2466 135.973C67.041 137.324 68.2326 138.459 69.7512 139.181L79.9383 144.023C81.4569 144.744 83.0897 144.951 84.6384 144.714L87.0431 150.737C77.0043 149.165 67.6174 144.703 60.0586 137.912L66.2466 135.973ZM88.4078 143.093C89.377 142.34 90.1903 141.358 90.752 140.177L92.293 136.935L95.0651 138.252L90.3965 148.075L88.4078 143.093ZM96.8258 134.548L94.0537 133.23L95.594 129.989C96.0644 129 96.3147 127.96 96.3712 126.924L101.06 125.639L96.8256 134.548L96.8258 134.548ZM80.4226 157.623L58.8989 147.393C56.454 146.231 55.4103 143.296 56.5724 140.851L56.7619 140.453C60.9756 144.342 65.7334 147.55 70.8602 149.986C75.9851 152.422 81.478 154.086 87.1532 154.898L86.964 155.296C85.802 157.741 82.8675 158.785 80.4226 157.623Z" fill="#262626"/>
<path d="M82.8136 65.5795H106.645C111.613 65.5795 115.656 61.5373 115.656 56.5686V9.01184C115.656 4.0432 111.613 0.000976562 106.645 0.000976562H82.8136C77.845 0.000976562 73.8027 4.0432 73.8027 9.01184V56.5686C73.8027 61.5373 77.845 65.5795 82.8136 65.5795ZM106.645 61.4779H82.8139C80.1068 61.4779 77.9046 59.2757 77.9046 56.5686V56.1273C83.3821 57.8316 89.0586 58.6867 94.7352 58.6864C100.41 58.6861 106.084 57.8316 111.555 56.1287V56.5686C111.554 59.2757 109.352 61.4779 106.645 61.4779ZM104.384 30.0064V41.2857C104.384 43.4997 102.583 45.3011 100.369 45.3011H89.0895C86.8752 45.3011 85.0738 43.4997 85.0738 41.2857V30.0064C85.0738 27.7923 86.8752 25.9909 89.0895 25.9909H100.369C102.583 25.9912 104.384 27.7923 104.384 30.0064ZM84.548 48.0103C85.8449 48.8889 87.4082 49.4029 89.0895 49.4029H100.369C102.05 49.4029 103.614 48.8889 104.911 48.0095L109.669 52.4173C99.9264 55.3064 89.5333 55.3064 79.791 52.4173L84.548 48.0103ZM107.62 44.9273C108.172 43.8314 108.486 42.5949 108.486 41.2859V37.6973H111.554V48.5725L107.62 44.9273ZM111.554 33.5958H108.486V30.0064C108.486 28.9088 108.266 27.8621 107.869 26.9064L111.554 23.7323V33.5958ZM105.386 23.6325C104.004 22.5426 102.262 21.8897 100.369 21.8897H89.0898C87.1971 21.8897 85.455 22.5426 84.073 23.6325L79.6573 19.8277C89.3889 15.99 100.089 15.9919 109.804 19.8266L105.386 23.6325ZM81.5891 26.9064C81.1927 27.8621 80.9725 28.9091 80.9725 30.0064V33.5958H77.9043V23.7315L81.5891 26.9064ZM77.9043 37.6973H80.9725V41.2859C80.9725 42.5954 81.2862 43.8325 81.8393 44.9287L77.9046 48.5744V37.6973H77.9043ZM82.8136 4.10227H106.645C109.352 4.10227 111.554 6.30453 111.554 9.01156V16.1193C106.219 13.9933 100.465 12.8752 94.7292 12.8752C88.9933 12.8755 83.2391 13.9936 77.9043 16.1201V9.01184C77.9043 6.30481 80.1066 4.10227 82.8136 4.10227Z" fill="#262626"/>
<path d="M136.924 0C135.791 0 134.873 0.918203 134.873 2.05078V137.949C134.873 139.082 135.791 140 136.924 140C138.057 140 138.975 139.082 138.975 137.949V2.05078C138.975 0.918203 138.057 0 136.924 0Z" fill="#262626"/>
<path d="M122.737 0C121.605 0 120.687 0.918203 120.687 2.05078V67.9492H73.5039V63.0894C73.5039 61.9568 72.586 61.0386 71.4531 61.0386C70.3203 61.0386 69.4023 61.9568 69.4023 63.0894V76.9106C69.4023 78.0432 70.3203 78.9614 71.4531 78.9614C72.586 78.9614 73.5039 78.0432 73.5039 76.9106V72.0508H120.687V137.949C120.687 139.082 121.605 140 122.737 140C123.87 140 124.788 139.082 124.788 137.949V2.05078C124.788 0.918203 123.87 0 122.737 0Z" fill="#262626"/>
<path d="M16.3152 0C15.1824 0 14.2645 0.918203 14.2645 2.05078V32.2137H8.54687V2.05078C8.54687 0.918203 7.62894 0 6.49609 0C5.36324 0 4.44531 0.918203 4.44531 2.05078V34.2645C4.44531 35.397 5.36324 36.3152 6.49609 36.3152H16.3152C17.4481 36.3152 18.366 35.397 18.366 34.2645V2.05078C18.366 0.918203 17.4481 0 16.3152 0Z" fill="#262626"/>
<path d="M6.49414 90.6668H16.3133C17.4461 90.6668 18.3641 89.7486 18.3641 88.6161V68.6606C18.3641 67.528 17.4461 66.6098 16.3133 66.6098C15.1804 66.6098 14.2625 67.528 14.2625 68.6606V86.5653H8.54492V53.4356H14.2625V60.4574C14.2625 61.59 15.1804 62.5082 16.3133 62.5082C17.4461 62.5082 18.3641 61.59 18.3641 60.4574V51.3848C18.3641 50.2522 17.4461 49.334 16.3133 49.334H6.49414C5.36129 49.334 4.44336 50.2522 4.44336 51.3848V88.6161C4.44336 89.7486 5.36129 90.6668 6.49414 90.6668Z" fill="#262626"/>
<path d="M16.3133 103.685H6.49414C5.36129 103.685 4.44336 104.603 4.44336 105.735V137.949C4.44336 139.082 5.36129 140 6.49414 140C7.62699 140 8.54492 139.082 8.54492 137.949V107.786H14.2625V137.949C14.2625 139.082 15.1804 140 16.3133 140C17.4461 140 18.3641 139.082 18.3641 137.949V105.735C18.3641 104.603 17.4461 103.685 16.3133 103.685Z" fill="#262626"/>
<path d="M41.7393 11.4678C40.6064 11.4678 39.6885 12.386 39.6885 13.5186V13.6553C39.6885 14.7879 40.6064 15.7061 41.7393 15.7061C42.8721 15.7061 43.79 14.7879 43.79 13.6553V13.5186C43.79 12.3857 42.8721 11.4678 41.7393 11.4678Z" fill="#262626"/>
<path d="M38.4609 17.3682C37.3281 17.3682 36.4102 18.2864 36.4102 19.4189V19.5557C36.4102 20.6882 37.3281 21.6065 38.4609 21.6065C39.5938 21.6065 40.5117 20.6882 40.5117 19.5557V19.4189C40.5117 18.2864 39.5938 17.3682 38.4609 17.3682Z" fill="#262626"/>
<path d="M37.4971 13.4658V13.3291C37.4971 12.1965 36.5792 11.2783 35.4463 11.2783C34.3134 11.2783 33.3955 12.1965 33.3955 13.3291V13.4658C33.3955 14.5984 34.3134 15.5166 35.4463 15.5166C36.5792 15.5166 37.4971 14.5984 37.4971 13.4658Z" fill="#262626"/>
<path d="M61.5742 114.847C60.4414 114.847 59.5234 115.765 59.5234 116.897V117.034C59.5234 118.167 60.4414 119.085 61.5742 119.085C62.7071 119.085 63.625 118.167 63.625 117.034V116.897C63.625 115.765 62.7068 114.847 61.5742 114.847Z" fill="#262626"/>
<path d="M55.4736 111.953C54.3408 111.953 53.4229 112.871 53.4229 114.004V114.141C53.4229 115.273 54.3408 116.191 55.4736 116.191C56.6065 116.191 57.5244 115.273 57.5244 114.141V114.004C57.5244 112.871 56.6065 111.953 55.4736 111.953Z" fill="#262626"/>
<path d="M61.3584 112.791C62.4913 112.791 63.4092 111.873 63.4092 110.74V110.604C63.4092 109.471 62.4913 108.553 61.3584 108.553C60.2255 108.553 59.3076 109.471 59.3076 110.604V110.74C59.3076 111.873 60.2255 112.791 61.3584 112.791Z" fill="#262626"/>
<path d="M88.0328 86H90.5172V77.5449H88.0328L85.9117 78.9629V81.043L87.9859 79.6719H88.0328V86ZM92.7637 86H99.4785V84.125H95.9395V84.0781L97.4746 82.8359C98.834 81.7402 99.3789 81.1074 99.3789 79.9766V79.9648C99.3789 78.4121 98.043 77.3926 95.998 77.3926C93.9941 77.3926 92.6172 78.5527 92.6172 80.2695V80.3281H94.8789L94.8848 80.252C94.9316 79.6426 95.3242 79.2266 95.998 79.2266C96.584 79.2266 96.9883 79.5957 96.9883 80.1172V80.1289C96.9883 80.5977 96.8008 80.9668 95.7637 81.8223L92.7637 84.3066V86ZM104.479 86.1523C106.735 86.1523 108.123 85.1562 108.123 83.5508V83.5391C108.123 82.4434 107.321 81.7578 106.037 81.623V81.5762C106.963 81.3945 107.772 80.7324 107.772 79.666V79.6543C107.772 78.2773 106.489 77.3926 104.461 77.3926C102.493 77.3926 101.204 78.3945 101.098 79.9473L101.092 80.0352H103.33L103.336 79.9824C103.389 79.5254 103.799 79.2031 104.461 79.2031C105.094 79.2031 105.487 79.5078 105.487 80V80.0117C105.487 80.5332 105.041 80.8496 104.274 80.8496H103.401V82.4844H104.274C105.135 82.4844 105.598 82.7949 105.598 83.3691V83.3809C105.598 83.873 105.176 84.2246 104.473 84.2246C103.77 84.2246 103.33 83.8965 103.266 83.5215L103.254 83.4512H100.887L100.893 83.5273C101.016 85.1094 102.399 86.1523 104.479 86.1523Z" fill="#FADB14"/>
</svg>
