<svg width="16" height="16" viewBox="0 0 16 16" fill="none" xmlns="http://www.w3.org/2000/svg">
<path d="M13.3348 1.6001H2.66828C2.08172 1.6001 1.60156 2.08026 1.60156 2.66682V13.3335C1.60156 13.9198 2.08172 14.4001 2.66828 14.4001H13.3348C13.9214 14.4001 14.4016 13.9198 14.4016 13.3335V2.66682C14.4016 2.08026 13.9214 1.6001 13.3348 1.6001ZM13.3348 13.3335H2.66828V2.66682H13.3348V13.3335Z" fill="#595959"/>
<path d="M8.53203 4.2666H5.33203V11.7333H6.39875V8.53332H8.53203C9.71012 8.53332 10.6655 7.57796 10.6655 6.39988C10.6655 5.2218 9.71012 4.2666 8.53203 4.2666ZM8.53203 7.4666H6.39875V5.33316H8.53203C8.81495 5.33316 9.08627 5.44555 9.28632 5.6456C9.48637 5.84564 9.59876 6.11697 9.59876 6.39988C9.59876 6.68279 9.48637 6.95412 9.28632 7.15416C9.08627 7.35421 8.81495 7.4666 8.53203 7.4666Z" fill="#595959"/>
</svg>
