<svg width="20" height="20" viewBox="0 0 20 20" fill="none" xmlns="http://www.w3.org/2000/svg">
<path d="M16.6666 2H3.3334C2.6002 2 2 2.6002 2 3.3334V16.6668C2 17.3996 2.6002 18 3.3334 18H16.6666C17.3998 18 18 17.3996 18 16.6668V3.3334C18 2.6002 17.3998 2 16.6666 2ZM16.6666 16.6668H3.3334V3.3334H16.6666V16.6668Z" fill="#595959"/>
<path d="M10.668 5.33301H6.66797V14.6664H8.00137V10.6664H10.668C12.1406 10.6664 13.3348 9.4722 13.3348 7.99961C13.3348 6.52701 12.1406 5.33301 10.668 5.33301V5.33301ZM10.668 9.333H8.00137V6.66621H10.668C11.0216 6.66621 11.3608 6.80669 11.6108 7.05675C11.8609 7.30681 12.0014 7.64597 12.0014 7.99961C12.0014 8.35325 11.8609 8.6924 11.6108 8.94246C11.3608 9.19252 11.0216 9.333 10.668 9.333V9.333Z" fill="#595959"/>
</svg>
