<svg width="48" height="48" viewBox="0 0 48 48" fill="none" xmlns="http://www.w3.org/2000/svg">
<g clip-path="url(#clip0)">
<path d="M34.0393 20.7943C33.8848 20.7943 33.7263 20.8165 33.5677 20.86L31.7761 21.3535L29.916 16.8216C29.3888 15.5378 27.831 14.4932 26.4432 14.4932H9.03257C7.64465 14.4932 6.08694 15.5378 5.55996 16.8216L3.70212 21.3472L1.9327 20.8598C1.77435 20.8163 1.61583 20.7941 1.46137 20.7941C0.614524 20.7941 0 21.441 0 22.3321V23.3882C0 24.4284 0.84649 25.2749 1.88673 25.2749H2.08945L1.78915 26.0064C1.2995 27.1988 0.900915 29.2183 0.900915 30.508V39.5109C0.900915 40.5512 1.7474 41.3977 2.78764 41.3977H5.25173C6.29196 41.3977 7.13845 40.5512 7.13845 39.5109V37.2628H28.3372V39.5109C28.3372 40.5512 29.1837 41.3977 30.2239 41.3977H32.6876C33.7279 41.3977 34.5743 40.5512 34.5743 39.5109V30.5081C34.5743 29.2187 34.1758 27.1991 33.6861 26.0066L33.3858 25.2751H33.6137C34.654 25.2751 35.5004 24.4286 35.5004 23.3884V22.3323C35.5006 21.4412 34.8859 20.7943 34.0393 20.7943ZM5.05463 24.2503L7.86887 17.3956C8.18415 16.6277 9.12117 15.9993 9.95128 15.9993H25.5245C26.3546 15.9993 27.2916 16.6275 27.6069 17.3956L30.4212 24.2503C30.7363 25.0183 30.3151 25.6467 29.485 25.6467H5.99095C5.16067 25.6465 4.73953 25.0183 5.05463 24.2503ZM11.3367 32.9208C11.3367 33.3359 10.997 33.6753 10.5822 33.6753H5.23623C4.82108 33.6753 4.4815 33.3358 4.4815 32.9208V30.3552C4.4815 29.9403 4.82108 29.6007 5.23623 29.6007H10.5822C10.997 29.6007 11.3367 29.9403 11.3367 30.3552V32.9208ZM30.9436 32.9208C30.9436 33.3359 30.6038 33.6753 30.189 33.6753H24.8431C24.4283 33.6753 24.0885 33.3358 24.0885 32.9208V30.3552C24.0885 29.9403 24.4283 29.6007 24.8431 29.6007H30.189C30.6038 29.6007 30.9436 29.9403 30.9436 30.3552V32.9208Z" fill="#00979D"/>
<path d="M45.6396 6.60254H36.7036C35.4023 6.60254 34.3438 7.66127 34.3438 8.96235V17.8986C34.3438 19.1998 35.4025 20.2586 36.7036 20.2586H40.2908V40.3151C40.2908 40.8015 40.685 41.1957 41.1715 41.1957C41.658 41.1957 42.0522 40.8015 42.0522 40.3151V20.2587H45.6396C46.9409 20.2587 47.9994 19.2 47.9994 17.8988V8.96253C47.9994 7.66127 46.9409 6.60254 45.6396 6.60254ZM43.6157 14.0119C43.1017 14.4746 42.3447 14.7092 41.3658 14.7092H40.0717C39.9164 14.7092 39.7899 14.8358 39.7899 14.9912V17.1733C39.7899 17.4103 39.5971 17.603 39.36 17.603H38.38C38.1427 17.603 37.95 17.4102 37.95 17.1733V9.68855C37.95 9.4513 38.1429 9.25843 38.38 9.25843H40.8487C42.484 9.25843 43.0945 9.50484 43.5961 9.93055C44.1252 10.3795 44.3933 11.0671 44.3933 11.9747C44.3931 12.8616 44.1318 13.5467 43.6157 14.0119Z" fill="#00979D"/>
<path d="M42.214 11.0659C41.9752 10.8855 41.5527 10.7939 40.9584 10.7939H40.0709C39.9155 10.7939 39.7891 10.9204 39.7891 11.0756V12.869C39.7891 13.0241 39.9155 13.1506 40.0709 13.1506H40.6026C40.7979 13.1506 41.1136 13.1361 41.3061 13.1184C41.493 13.1013 42.0205 13.0248 42.214 12.8786C42.4464 12.7029 42.5642 12.3989 42.5642 11.9753C42.5642 11.5476 42.4464 11.2417 42.214 11.0659Z" fill="#00979D"/>
</g>
<defs>
<clipPath id="clip0">
<rect width="48" height="48" fill="white"/>
</clipPath>
</defs>
</svg>
