<svg width="24" height="18" viewBox="0 0 24 18" fill="none" xmlns="http://www.w3.org/2000/svg">
<path d="M17.0196 7.09587C16.9424 7.09587 16.8631 7.10697 16.7839 7.12872L15.8881 7.37548L14.958 5.10954C14.6944 4.46763 13.9155 3.94531 13.2216 3.94531H4.51629C3.82233 3.94531 3.04347 4.46763 2.77998 5.10954L1.85106 7.37231L0.966348 7.12863C0.887176 7.10688 0.807917 7.09578 0.730683 7.09578C0.307262 7.09578 0 7.41925 0 7.86478V8.39282C0 8.91294 0.423245 9.33618 0.943363 9.33618H1.04473L0.894574 9.70192C0.649751 10.2981 0.450457 11.3079 0.450457 11.9527V16.4542C0.450457 16.9743 0.873702 17.3976 1.39382 17.3976H2.62586C3.14598 17.3976 3.56923 16.9743 3.56923 16.4542V15.3301H14.1686V16.4542C14.1686 16.9743 14.5918 17.3976 15.1119 17.3976H16.3438C16.8639 17.3976 17.2872 16.9743 17.2872 16.4542V11.9528C17.2872 11.3081 17.0879 10.2983 16.8431 9.70201L16.6929 9.33627H16.8069C17.327 9.33627 17.7502 8.91303 17.7502 8.39291V7.86486C17.7503 7.41934 17.443 7.09587 17.0196 7.09587ZM2.52732 8.8239L3.93443 5.39655C4.09207 5.01258 4.56058 4.69836 4.97564 4.69836H12.7623C13.1773 4.69836 13.6458 5.0125 13.8035 5.39655L15.2106 8.8239C15.3681 9.20787 15.1576 9.52209 14.7425 9.52209H2.99548C2.58033 9.522 2.36977 9.20787 2.52732 8.8239ZM5.66837 13.1591C5.66837 13.3667 5.49849 13.5364 5.29109 13.5364H2.61811C2.41054 13.5364 2.24075 13.3666 2.24075 13.1591V11.8764C2.24075 11.6689 2.41054 11.4991 2.61811 11.4991H5.29109C5.49849 11.4991 5.66837 11.6689 5.66837 11.8764V13.1591ZM15.4718 13.1591C15.4718 13.3667 15.3019 13.5364 15.0945 13.5364H12.4215C12.2141 13.5364 12.0443 13.3666 12.0443 13.1591V11.8764C12.0443 11.6689 12.2141 11.4991 12.4215 11.4991H15.0945C15.3019 11.4991 15.4718 11.6689 15.4718 11.8764V13.1591Z" fill="white"/>
<path d="M22.8198 0H18.3518C17.7012 0 17.1719 0.529364 17.1719 1.17991V5.64802C17.1719 6.29865 17.7012 6.82802 18.3518 6.82802H20.1454V16.8563C20.1454 17.0995 20.3425 17.2966 20.5858 17.2966C20.829 17.2966 21.0261 17.0995 21.0261 16.8563V6.82811H22.8198C23.4704 6.82811 23.9997 6.29874 23.9997 5.64811V1.18C23.9997 0.529364 23.4704 0 22.8198 0ZM21.8078 3.70467C21.5509 3.93602 21.1724 4.05332 20.6829 4.05332H20.0359C19.9582 4.05332 19.895 4.11664 19.895 4.19432V5.28537C19.895 5.4039 19.7985 5.50025 19.68 5.50025H19.19C19.0714 5.50025 18.975 5.40382 18.975 5.28537V1.543C18.975 1.42438 19.0715 1.32795 19.19 1.32795H20.4243C21.242 1.32795 21.5473 1.45115 21.7981 1.66401C22.0626 1.88849 22.1967 2.2323 22.1967 2.6861C22.1966 3.12951 22.0659 3.47209 21.8078 3.70467Z" fill="white"/>
<path d="M21.107 2.22972C20.9876 2.13954 20.7763 2.09375 20.4792 2.09375H20.0354C19.9578 2.09375 19.8945 2.15698 19.8945 2.23457V3.13125C19.8945 3.20884 19.9578 3.27207 20.0354 3.27207H20.3013C20.399 3.27207 20.5568 3.26485 20.653 3.25596C20.7465 3.24741 21.0102 3.20919 21.107 3.1361C21.2232 3.04821 21.2821 2.89621 21.2821 2.68441C21.2821 2.47058 21.2232 2.31761 21.107 2.22972Z" fill="white"/>
</svg>
