<svg width="32" height="32" viewBox="0 0 32 32" fill="none" xmlns="http://www.w3.org/2000/svg">
<g clip-path="url(#clip0)">
<path d="M22.6928 13.8629C22.5899 13.8629 22.4842 13.8777 22.3785 13.9067L21.1841 14.2357L19.944 11.2144C19.5926 10.3585 18.554 9.66211 17.6288 9.66211H6.02172C5.09644 9.66211 4.05796 10.3585 3.70664 11.2144L2.46808 14.2314L1.28846 13.9065C1.1829 13.8775 1.07722 13.8627 0.974244 13.8627C0.409683 13.8627 0 14.294 0 14.8881V15.5921C0 16.2856 0.564327 16.8499 1.25782 16.8499H1.39297L1.19277 17.3376C0.866334 18.1325 0.60061 19.4789 0.60061 20.3386V26.3406C0.60061 27.0341 1.16494 27.5984 1.85843 27.5984H3.50115C4.19464 27.5984 4.75897 27.0341 4.75897 26.3406V24.8419H18.8914V26.3406C18.8914 27.0341 19.4558 27.5984 20.1493 27.5984H21.7917C22.4852 27.5984 23.0496 27.0341 23.0496 26.3406V20.3388C23.0496 19.4791 22.7838 18.1328 22.4574 17.3377L22.2572 16.8501H22.4091C23.1026 16.8501 23.667 16.2857 23.667 15.5922V14.8882C23.6671 14.2941 23.2573 13.8629 22.6928 13.8629ZM3.36976 16.1669L5.24591 11.5971C5.4561 11.0851 6.08078 10.6662 6.63418 10.6662H17.0163C17.5697 10.6662 18.1944 11.085 18.4046 11.5971L20.2808 16.1669C20.4908 16.6789 20.2101 17.0978 19.6567 17.0978H3.99397C3.44044 17.0977 3.15969 16.6789 3.36976 16.1669ZM7.55782 21.9472C7.55782 22.224 7.33132 22.4502 7.05479 22.4502H3.49082C3.21406 22.4502 2.98767 22.2238 2.98767 21.9472V20.2368C2.98767 19.9602 3.21406 19.7338 3.49082 19.7338H7.05479C7.33132 19.7338 7.55782 19.9602 7.55782 20.2368V21.9472ZM20.629 21.9472C20.629 22.224 20.4025 22.4502 20.126 22.4502H16.562C16.2855 22.4502 16.059 22.2238 16.059 21.9472V20.2368C16.059 19.9602 16.2855 19.7338 16.562 19.7338H20.126C20.4025 19.7338 20.629 19.9602 20.629 20.2368V21.9472Z" fill="#00979D"/>
<path d="M30.4212 4.40234H24.4638C23.5963 4.40234 22.8906 5.10816 22.8906 5.97555V11.933C22.8906 12.8005 23.5964 13.5064 24.4638 13.5064H26.8554V26.8774C26.8554 27.2017 27.1181 27.4645 27.4425 27.4645C27.7668 27.4645 28.0296 27.2017 28.0296 26.8774V13.5065H30.4212C31.2887 13.5065 31.9944 12.8007 31.9944 11.9332V5.97567C31.9944 5.10816 31.2887 4.40234 30.4212 4.40234ZM29.0719 9.3419C28.7293 9.65037 28.2246 9.80678 27.572 9.80678H26.7093C26.6057 9.80678 26.5214 9.8912 26.5214 9.99477V11.4495C26.5214 11.6075 26.3928 11.736 26.2348 11.736H25.5815C25.4233 11.736 25.2948 11.6074 25.2948 11.4495V6.45968C25.2948 6.30152 25.4234 6.17294 25.5815 6.17294H27.2272C28.3175 6.17294 28.7245 6.33721 29.0589 6.62102C29.4116 6.92033 29.5903 7.37874 29.5903 7.98381C29.5902 8.57503 29.416 9.0318 29.0719 9.3419Z" fill="#00979D"/>
<path d="M28.1323 7.37856C27.9731 7.25832 27.6914 7.19727 27.2952 7.19727H26.7035C26.5999 7.19727 26.5156 7.28157 26.5156 7.38502V8.5806C26.5156 8.68405 26.5999 8.76836 26.7035 8.76836H27.058C27.1882 8.76836 27.3986 8.75873 27.527 8.74687C27.6516 8.73548 28.0032 8.68452 28.1323 8.58706C28.2872 8.46988 28.3657 8.26721 28.3657 7.98481C28.3657 7.69971 28.2872 7.49575 28.1323 7.37856Z" fill="#00979D"/>
</g>
<defs>
<clipPath id="clip0">
<rect width="32" height="32" fill="white"/>
</clipPath>
</defs>
</svg>
