<svg width="160" height="160" viewBox="0 0 160 160" fill="none" xmlns="http://www.w3.org/2000/svg">
<g clip-path="url(#clip0)">
<path d="M29.9841 141.406H130.017C146.274 127.367 156.563 106.604 156.563 83.4384C156.563 41.1537 122.285 6.875 80.0003 6.875C37.7156 6.875 3.4375 41.1537 3.4375 83.4384C3.4375 106.604 13.7272 127.367 29.9841 141.406Z" fill="#F5F5F5"/>
<path d="M115.254 0H44.7492C36.412 0 29.6289 6.78281 29.6289 15.1203V141.092C33.4952 144.473 37.7055 147.468 42.1986 150.025H117.805C122.298 147.468 126.509 144.473 130.375 141.092V15.1203C130.375 6.78281 123.592 0 115.254 0V0Z" fill="#595959"/>
<path d="M44.7492 0C36.412 0 29.6289 6.78281 29.6289 15.1203V141.092C33.4952 144.473 37.7055 147.468 42.1986 150.025H60.6155C61.5842 148.111 62.8923 147.079 62.8923 147.079V106.142C56.8802 100.13 62.8923 93.25 62.8923 93.25V52.3125C62.8923 52.3125 62.8923 31.8378 62.8923 26.2909C62.8923 20.7441 67.353 19.7778 67.353 19.7778C64.3739 16.7987 67.353 14.5516 67.353 14.5516C65.3152 12.5138 67.353 10.835 67.353 10.835V5.60906C63.8711 3.23437 66.8245 0 66.8245 0L44.7492 0Z" fill="#262626"/>
<path d="M115.253 9.40625H104.657C102.681 9.40625 101.08 11.0075 101.08 12.9828C101.08 15.2822 99.1986 17.1637 96.8992 17.1637H63.1027C60.803 17.1637 58.9217 15.2822 58.9217 12.9828C58.9217 11.0075 57.3205 9.40625 55.3452 9.40625H44.7483C41.593 9.40625 39.0352 11.9641 39.0352 15.1194V148.125C50.8817 155.643 64.9317 159.999 80.0008 159.999C95.0698 159.999 109.12 155.643 120.966 148.125V15.1194C120.966 11.9641 118.409 9.40625 115.253 9.40625Z" fill="#FAFAFA"/>
<path d="M58.9217 12.9828C58.9217 11.0075 57.3205 9.40625 55.3452 9.40625H44.7483C41.593 9.40625 39.0352 11.9641 39.0352 15.1194V148.125C45.4611 152.203 52.5367 155.348 60.0708 157.375C58.0983 150.861 62.8914 147.079 62.8914 147.079V106.141C56.8792 100.129 62.8914 93.2494 62.8914 93.2494V52.3119C62.8914 52.3119 62.8914 31.8372 62.8914 26.2903C62.8914 20.7434 67.352 19.7772 67.352 19.7772C66.3867 18.8119 66.0489 17.9241 66.0308 17.1641H63.1027C60.803 17.1638 58.9217 15.2822 58.9217 12.9828Z" fill="#E8E8E8"/>
<path d="M123.579 146.388V15.1189C123.579 10.528 119.844 6.79297 115.253 6.79297H104.656C101.243 6.79297 98.4662 9.56984 98.4662 12.9827C98.4662 13.8327 97.7484 14.5505 96.8984 14.5505H63.1022C62.2522 14.5505 61.5344 13.8327 61.5344 12.9827C61.5344 9.56953 58.7578 6.79297 55.3447 6.79297H44.7478C40.1569 6.79297 36.4219 10.528 36.4219 15.1189V146.388C38.1163 147.563 39.8584 148.674 41.6481 149.712V15.1189C41.6481 13.4098 43.0387 12.0192 44.7478 12.0192H55.3447C55.8759 12.0192 56.3081 12.4514 56.3081 12.9827C56.3081 16.7289 59.3559 19.7767 63.1022 19.7767H96.8984C100.645 19.7767 103.692 16.7286 103.692 12.9827C103.692 12.4511 104.125 12.0192 104.656 12.0192H115.253C116.962 12.0192 118.353 13.4098 118.353 15.1189V149.712C120.142 148.674 121.885 147.563 123.579 146.388Z" fill="#8C8C8C"/>
<path d="M67.3519 14.5508H63.1025C62.2525 14.5508 61.5347 13.833 61.5347 12.983C61.5347 9.56984 58.7581 6.79297 55.345 6.79297H44.7481C40.1572 6.79297 36.4219 10.528 36.4219 15.1189V146.388C38.1163 147.563 39.8584 148.674 41.6481 149.712V15.1189C41.6481 13.4098 43.0387 12.0192 44.7478 12.0192H55.3447C55.8759 12.0192 56.3081 12.4514 56.3081 12.9827C56.3081 16.7289 59.3559 19.7767 63.1022 19.7767H67.3516C64.3728 16.798 67.3519 14.5508 67.3519 14.5508Z" fill="#595959"/>
<path d="M140.42 93.25H62.9986C58.2252 93.25 54.3555 89.3803 54.3555 84.6069V60.9556C54.3555 56.1822 58.2252 52.3125 62.9986 52.3125H140.42C145.194 52.3125 149.064 56.1822 149.064 60.9556V84.6069C149.064 89.3803 145.194 93.25 140.42 93.25Z" fill="#FFE7BA"/>
<path d="M140.42 147.078H62.9986C58.2252 147.078 54.3555 143.208 54.3555 138.435V114.784C54.3555 110.01 58.2252 106.141 62.9986 106.141H140.42C145.194 106.141 149.064 110.01 149.064 114.784V138.435C149.064 143.208 145.194 147.078 140.42 147.078Z" fill="#B5F5EC"/>
<path d="M95.8239 84.6069V60.9556C95.8239 56.1822 99.6936 52.3125 104.467 52.3125H62.9986C58.2252 52.3125 54.3555 56.1822 54.3555 60.9556V84.6069C54.3555 89.3803 58.2252 93.25 62.9986 93.25H104.467C99.6936 93.25 95.8239 89.3803 95.8239 84.6069Z" fill="#FFD591"/>
<path d="M95.8239 138.435V114.784C95.8239 110.01 99.6936 106.141 104.467 106.141H62.9986C58.2252 106.141 54.3555 110.01 54.3555 114.784V138.435C54.3555 143.208 58.2252 147.078 62.9986 147.078H104.467C99.6936 147.078 95.8239 143.208 95.8239 138.435Z" fill="#87E8DE"/>
<path d="M68.8614 10.8356H67.3514C65.9083 10.8356 64.7383 9.66594 64.7383 8.2225C64.7383 6.77906 65.9083 5.60938 67.3514 5.60938H68.8614C70.3045 5.60938 71.4745 6.77906 71.4745 8.2225C71.4745 9.66594 70.3045 10.8356 68.8614 10.8356Z" fill="#8C8C8C"/>
<path d="M92.2886 10.8356H77.7811C76.338 10.8356 75.168 9.66594 75.168 8.2225C75.168 6.77906 76.338 5.60938 77.7811 5.60938H92.2886C93.7317 5.60938 94.9017 6.77906 94.9017 8.2225C94.9017 9.66594 93.7317 10.8356 92.2886 10.8356Z" fill="#8C8C8C"/>
<path d="M70.2641 87.5348C70.0872 87.5348 69.9072 87.5145 69.7275 87.4727C68.4672 87.1773 67.685 85.9164 67.9803 84.6558L73.7947 59.8373C74.09 58.5773 75.3503 57.7939 76.6112 58.0898C77.8716 58.3852 78.6537 59.6461 78.3584 60.9067L72.5441 85.7252C72.2909 86.8055 71.3278 87.5348 70.2641 87.5348Z" fill="#FAFAFA"/>
<path d="M78.6898 87.5348C78.513 87.5348 78.333 87.5145 78.1533 87.4727C76.893 87.1773 76.1108 85.9164 76.4061 84.6558L82.2208 59.8373C82.5161 58.5773 83.7761 57.7939 85.0373 58.0898C86.2976 58.3852 87.0798 59.6461 86.7845 60.9067L80.9698 85.7252C80.7167 86.8055 79.7536 87.5348 78.6898 87.5348Z" fill="#FAFAFA"/>
<path d="M86.653 70.7852H70.1523C68.858 70.7852 67.8086 69.7361 67.8086 68.4414C67.8086 67.1467 68.858 66.0977 70.1523 66.0977H86.653C87.9473 66.0977 88.9967 67.1467 88.9967 68.4414C88.9967 69.7361 87.9473 70.7852 86.653 70.7852Z" fill="#FAFAFA"/>
<path d="M84.6608 79.3281H68.1602C66.8658 79.3281 65.8164 78.2791 65.8164 76.9844C65.8164 75.6897 66.8658 74.6406 68.1602 74.6406H84.6608C85.9552 74.6406 87.0045 75.6897 87.0045 76.9844C87.0045 78.2791 85.9552 79.3281 84.6608 79.3281Z" fill="#FAFAFA"/>
<path d="M135.258 70.7852H98.168C96.8736 70.7852 95.8242 69.7361 95.8242 68.4414C95.8242 67.1467 96.8736 66.0977 98.168 66.0977H135.258C136.553 66.0977 137.602 67.1467 137.602 68.4414C137.602 69.7361 136.552 70.7852 135.258 70.7852Z" fill="#FFD591"/>
<path d="M135.257 79.3281H114.234C112.94 79.3281 111.891 78.2791 111.891 76.9844C111.891 75.6897 112.94 74.6406 114.234 74.6406H135.257C136.552 74.6406 137.601 75.6897 137.601 76.9844C137.601 78.2791 136.552 79.3281 135.257 79.3281Z" fill="#FFD591"/>
<path d="M105.763 79.3281H98.168C96.8736 79.3281 95.8242 78.2791 95.8242 76.9844C95.8242 75.6897 96.8736 74.6406 98.168 74.6406H105.763C107.058 74.6406 108.107 75.6897 108.107 76.9844C108.107 78.2791 107.058 79.3281 105.763 79.3281Z" fill="#FFD591"/>
<path d="M70.2641 141.363C70.0872 141.363 69.9072 141.343 69.7275 141.301C68.4672 141.006 67.685 139.745 67.9803 138.484L73.7947 113.665C74.09 112.405 75.3503 111.622 76.6112 111.918C77.8716 112.213 78.6537 113.474 78.3584 114.735L72.5441 139.554C72.2909 140.634 71.3278 141.363 70.2641 141.363Z" fill="#FAFAFA"/>
<path d="M78.6898 141.363C78.513 141.363 78.333 141.343 78.1533 141.301C76.893 141.006 76.1108 139.745 76.4061 138.484L82.2208 113.665C82.5161 112.405 83.7761 111.622 85.0373 111.918C86.2976 112.213 87.0798 113.474 86.7845 114.735L80.9698 139.554C80.7167 140.634 79.7536 141.363 78.6898 141.363Z" fill="#FAFAFA"/>
<path d="M86.653 124.617H70.1523C68.858 124.617 67.8086 123.568 67.8086 122.273C67.8086 120.979 68.858 119.93 70.1523 119.93H86.653C87.9473 119.93 88.9967 120.979 88.9967 122.273C88.9967 123.568 87.9473 124.617 86.653 124.617Z" fill="#FAFAFA"/>
<path d="M84.6608 133.156H68.1602C66.8658 133.156 65.8164 132.107 65.8164 130.812C65.8164 129.518 66.8658 128.469 68.1602 128.469H84.6608C85.9552 128.469 87.0045 129.518 87.0045 130.812C87.0045 132.107 85.9552 133.156 84.6608 133.156Z" fill="#FAFAFA"/>
<path d="M135.258 124.617H98.168C96.8736 124.617 95.8242 123.568 95.8242 122.273C95.8242 120.979 96.8736 119.93 98.168 119.93H135.258C136.553 119.93 137.602 120.979 137.602 122.273C137.602 123.568 136.552 124.617 135.258 124.617Z" fill="#87E8DE"/>
<path d="M135.257 133.156H114.234C112.94 133.156 111.891 132.107 111.891 130.812C111.891 129.518 112.94 128.469 114.234 128.469H135.257C136.552 128.469 137.601 129.518 137.601 130.812C137.601 132.107 136.552 133.156 135.257 133.156Z" fill="#87E8DE"/>
<path d="M105.763 133.156H98.168C96.8736 133.156 95.8242 132.107 95.8242 130.812C95.8242 129.518 96.8736 128.469 98.168 128.469H105.763C107.058 128.469 108.107 129.518 108.107 130.812C108.107 132.107 107.058 133.156 105.763 133.156Z" fill="#87E8DE"/>
<path d="M81.1689 32.7852H57.582C56.2877 32.7852 55.2383 31.7361 55.2383 30.4414C55.2383 29.1467 56.2877 28.0977 57.582 28.0977H81.1689C82.4633 28.0977 83.5127 29.1467 83.5127 30.4414C83.5127 31.7358 82.4633 32.7852 81.1689 32.7852Z" fill="#595959"/>
<path d="M105.611 41.6211H57.582C56.2877 41.6211 55.2383 40.572 55.2383 39.2773C55.2383 37.9827 56.2877 36.9336 57.582 36.9336H105.611C106.906 36.9336 107.955 37.9827 107.955 39.2773C107.955 40.572 106.906 41.6211 105.611 41.6211Z" fill="#E8E8E8"/>
</g>
<defs>
<clipPath id="clip0">
<rect width="160" height="160" fill="white"/>
</clipPath>
</defs>
</svg>
