<svg width="160" height="160" viewBox="0 0 160 160" fill="none" xmlns="http://www.w3.org/2000/svg">
<path d="M132.599 139.069C147.355 125.113 156.563 105.351 156.563 83.4378C156.563 41.1534 122.285 6.875 80.0003 6.875C37.7159 6.875 3.4375 41.1534 3.4375 83.4378C3.4375 125.722 37.7159 160.001 80.0003 160.001C83.3138 160.001 86.5781 159.79 89.7806 159.382L132.599 139.069Z" fill="#F5F5F5"/>
<path d="M124.012 114.238C123.34 111.769 123.103 109.202 123.312 106.652L124.562 94.8753C125.172 87.4863 124.046 80.0831 120.775 73.4297C112.324 56.2381 114.262 54.9906 114 37.9284C114 34.4431 111.174 31.6172 107.689 31.6172C104.203 31.6172 101.377 34.4428 101.377 37.9284C101.377 107.313 101.507 102.222 101.079 104.256V113.342C101.079 120.997 94.8509 127.225 87.1959 127.225C82.1119 127.225 64.5791 127.225 52.6484 127.225C57.9559 134.606 65.2169 140.386 73.6431 143.885C73.6953 143.907 73.7475 143.929 73.7997 143.951C80.31 146.701 87.5791 152.187 88.7937 158.995L88.9112 159.482C106.055 157.494 121.471 149.846 133.242 138.451L124.012 114.238Z" fill="#FFE7BA"/>
<path d="M29.2076 31.8387L27.2854 30.0577C24.322 27.3121 19.651 27.4902 16.9054 30.4534C14.1598 33.4168 14.3379 38.0877 17.301 40.8334L29.2076 51.8656V31.8387Z" fill="#FFE7BA"/>
<path d="M21.2076 35.313C19.3898 33.6286 18.6251 31.2205 18.9354 28.9258C18.1935 29.3055 17.5026 29.8098 16.9054 30.4539C14.1598 33.4173 14.3379 38.0883 17.301 40.8339L29.2076 51.8661V42.7258L21.2076 35.313Z" fill="#FFD591"/>
<path d="M124.586 115.746C121.979 133.723 106.507 147.533 87.8075 147.533C84.5791 147.533 81.4472 147.121 78.4609 146.348C83.4119 149.375 87.8656 153.799 88.7925 158.995L88.91 159.481C106.054 157.494 121.47 149.845 133.241 138.451L124.586 115.746Z" fill="#FFE7BA"/>
<path d="M90.5045 127.523H39.8061C33.8108 127.523 28.9336 122.646 28.9336 116.651V10.8728C28.9336 4.8775 33.8108 0 39.8061 0H90.5045C96.4998 0 101.377 4.8775 101.377 10.8728V116.651C101.377 122.646 96.4995 127.523 90.5045 127.523Z" fill="#595959"/>
<path d="M39.8061 0C33.8108 0 28.9336 4.8775 28.9336 10.8725V116.651C28.9336 122.646 33.8111 127.523 39.8061 127.523H54.9198C51.5655 124.102 55.478 120.759 55.478 120.759C49.957 119.31 50.4258 113.508 50.4258 113.508C50.4258 113.508 50.4258 24.8375 50.4258 19.2906C50.4258 13.7437 56.0602 12.3428 56.0602 12.3428C53.8408 10.1234 56.0602 7.79125 56.0602 7.79125V4.03344C54.013 2.73594 54.4161 0.969375 54.8617 0L39.8061 0Z" fill="#262626"/>
<path d="M57.1483 7.79328H56.0627C55.0248 7.79328 54.1836 6.95203 54.1836 5.91422C54.1836 4.87641 55.0248 4.03516 56.0627 4.03516H57.1483C58.1861 4.03516 59.0273 4.87641 59.0273 5.91422C59.0273 6.95203 58.1861 7.79328 57.1483 7.79328Z" fill="#8C8C8C"/>
<path d="M73.9906 7.79328H63.5587C62.5209 7.79328 61.6797 6.95203 61.6797 5.91422C61.6797 4.87641 62.5209 4.03516 63.5587 4.03516H73.9906C75.0284 4.03516 75.8697 4.87641 75.8697 5.91422C75.8697 6.95203 75.0284 7.79328 73.9906 7.79328Z" fill="#8C8C8C"/>
<path d="M90.5058 6.76562H82.8861C81.4655 6.76562 80.3142 7.91719 80.3142 9.3375C80.3142 10.9909 78.9614 12.3441 77.308 12.3441H53.0058C51.3523 12.3441 49.9992 10.9913 49.9992 9.3375C49.9992 7.91719 48.8477 6.76562 47.4273 6.76562H39.8073C37.5386 6.76562 35.6992 8.605 35.6992 10.8738V116.652C35.6992 118.921 37.5386 120.76 39.8073 120.76H90.5058C92.7745 120.76 94.6139 118.921 94.6139 116.652C94.6139 105.771 94.6139 13.7778 94.6139 10.8738C94.6139 8.605 92.7745 6.76562 90.5058 6.76562Z" fill="#FAFAFA"/>
<path d="M55.4789 120.76C54.6977 117.389 58.6077 116.602 58.6077 116.602C58.6077 116.602 61.0945 94.8175 58.6077 92.3306C56.1208 89.8437 58.6077 87.4953 58.6077 87.4953C58.6077 87.4953 61.3245 65.9416 58.6077 63.2244C55.8908 60.5075 58.6077 58.3891 58.6077 58.3891V34.1181C53.7414 31.0456 56.3011 26.6247 56.3011 26.6247V19.6637C52.6239 15.9866 56.0598 12.3453 56.0611 12.3441H53.0055C51.352 12.3441 49.9989 10.9913 49.9989 9.3375C49.9989 7.91719 48.8473 6.76562 47.427 6.76562H39.8073C37.5386 6.76562 35.6992 8.60469 35.6992 10.8737V116.652C35.6992 118.921 37.5386 120.76 39.8073 120.76H55.4789V120.76Z" fill="#F5F5F5"/>
<path d="M49.8713 26.6247H80.4397C82.3619 26.6247 83.92 25.0666 83.92 23.1444C83.92 21.2222 82.3619 19.6641 80.4397 19.6641H49.8713C47.9491 19.6641 46.3906 21.2222 46.3906 23.1444C46.3906 25.0669 47.9491 26.6247 49.8713 26.6247Z" fill="#E8E8E8"/>
<path d="M49.8709 19.6641H56.2997V26.625H49.8709C47.9487 26.625 46.3906 25.0669 46.3906 23.1447C46.3903 21.2219 47.9487 19.6641 49.8709 19.6641Z" fill="#E8E8E8"/>
<path d="M86.6159 58.3881H43.6931C41.9713 58.3881 40.5625 56.9794 40.5625 55.2575V37.2478C40.5625 35.5259 41.9713 34.1172 43.6931 34.1172H86.6159C88.3378 34.1172 89.7466 35.5259 89.7466 37.2478V55.2575C89.7466 56.9794 88.3378 58.3881 86.6159 58.3881Z" fill="#E8E8E8"/>
<path d="M86.6159 87.4936H43.6931C41.9713 87.4936 40.5625 86.0848 40.5625 84.363V66.3533C40.5625 64.6314 41.9713 63.2227 43.6931 63.2227H86.6159C88.3378 63.2227 89.7466 64.6314 89.7466 66.3533V84.363C89.7466 86.0848 88.3378 87.4936 86.6159 87.4936Z" fill="#E8E8E8"/>
<path d="M86.6159 116.599H43.6931C41.9713 116.599 40.5625 115.19 40.5625 113.468V95.4587C40.5625 93.7369 41.9713 92.3281 43.6931 92.3281H86.6159C88.3378 92.3281 89.7466 93.7369 89.7466 95.4587V113.468C89.7466 115.19 88.3378 116.599 86.6159 116.599Z" fill="#E8E8E8"/>
<path d="M86.6159 58.3881H43.6931C41.9713 58.3881 40.5625 56.9794 40.5625 55.2575V37.2478C40.5625 35.5259 41.9713 34.1172 43.6931 34.1172H86.6159C88.3378 34.1172 89.7466 35.5259 89.7466 37.2478V55.2575C89.7466 56.9794 88.3378 58.3881 86.6159 58.3881Z" fill="#E8E8E8"/>
<path d="M86.6159 87.4936H43.6931C41.9713 87.4936 40.5625 86.0848 40.5625 84.363V66.3533C40.5625 64.6314 41.9713 63.2227 43.6931 63.2227H86.6159C88.3378 63.2227 89.7466 64.6314 89.7466 66.3533V84.363C89.7466 86.0848 88.3378 87.4936 86.6159 87.4936Z" fill="#E8E8E8"/>
<path d="M86.6159 116.599H43.6931C41.9713 116.599 40.5625 115.19 40.5625 113.468V95.4587C40.5625 93.7369 41.9713 92.3281 43.6931 92.3281H86.6159C88.3378 92.3281 89.7466 93.7369 89.7466 95.4587V113.468C89.7466 115.19 88.3378 116.599 86.6159 116.599Z" fill="#E8E8E8"/>
<path d="M55.475 55.2572V37.2478C55.475 35.5259 56.8838 34.1172 58.6056 34.1172H43.6931C41.9713 34.1172 40.5625 35.5259 40.5625 37.2478V55.2572C40.5625 56.9791 41.9713 58.3878 43.6931 58.3878H58.6056C56.8838 58.3878 55.475 56.9791 55.475 55.2572Z" fill="#BFBFBF"/>
<path d="M55.475 84.363V66.3533C55.475 64.6314 56.8838 63.2227 58.6056 63.2227H43.6931C41.9713 63.2227 40.5625 64.6314 40.5625 66.3533V84.363C40.5625 86.0848 41.9713 87.4936 43.6931 87.4936H58.6056C56.8838 87.4936 55.475 86.0848 55.475 84.363Z" fill="#BFBFBF"/>
<path d="M55.475 113.468V95.4587C55.475 93.7369 56.8838 92.3281 58.6056 92.3281H43.6931C41.9713 92.3281 40.5625 93.7369 40.5625 95.4587V113.468C40.5625 115.19 41.9713 116.599 43.6931 116.599H58.6056C56.8838 116.599 55.475 115.19 55.475 113.468Z" fill="#BFBFBF"/>
<path d="M63.463 44.1836H50.9102C49.6158 44.1836 48.5664 43.1345 48.5664 41.8398C48.5664 40.5452 49.6158 39.4961 50.9102 39.4961H63.463C64.7573 39.4961 65.8067 40.5452 65.8067 41.8398C65.8067 43.1342 64.7573 44.1836 63.463 44.1836Z" fill="#8C8C8C"/>
<path d="M79.4005 53.0078H50.9102C49.6158 53.0078 48.5664 51.9588 48.5664 50.6641C48.5664 49.3694 49.6158 48.3203 50.9102 48.3203H79.4005C80.6948 48.3203 81.7442 49.3694 81.7442 50.6641C81.7442 51.9588 80.6948 53.0078 79.4005 53.0078Z" fill="#D9D9D9"/>
<path d="M73.2553 44.1836H71.4844C70.19 44.1836 69.1406 43.1345 69.1406 41.8398C69.1406 40.5452 70.19 39.4961 71.4844 39.4961H73.2553C74.5497 39.4961 75.5991 40.5452 75.5991 41.8398C75.5991 43.1342 74.55 44.1836 73.2553 44.1836Z" fill="#D9D9D9"/>
<path d="M63.463 73.2891H50.9102C49.6158 73.2891 48.5664 72.24 48.5664 70.9453C48.5664 69.6506 49.6158 68.6016 50.9102 68.6016H63.463C64.7573 68.6016 65.8067 69.6506 65.8067 70.9453C65.8067 72.24 64.7573 73.2891 63.463 73.2891Z" fill="#8C8C8C"/>
<path d="M79.4005 82.1172H50.9102C49.6158 82.1172 48.5664 81.0681 48.5664 79.7734C48.5664 78.4788 49.6158 77.4297 50.9102 77.4297H79.4005C80.6948 77.4297 81.7442 78.4788 81.7442 79.7734C81.7442 81.0678 80.6948 82.1172 79.4005 82.1172Z" fill="#D9D9D9"/>
<path d="M73.2553 73.2891H71.4844C70.19 73.2891 69.1406 72.24 69.1406 70.9453C69.1406 69.6506 70.19 68.6016 71.4844 68.6016H73.2553C74.5497 68.6016 75.5991 69.6506 75.5991 70.9453C75.5991 72.24 74.55 73.2891 73.2553 73.2891Z" fill="#D9D9D9"/>
<path d="M63.463 102.395H50.9102C49.6158 102.395 48.5664 101.345 48.5664 100.051C48.5664 98.7561 49.6158 97.707 50.9102 97.707H63.463C64.7573 97.707 65.8067 98.7561 65.8067 100.051C65.8067 101.345 64.7573 102.395 63.463 102.395Z" fill="#8C8C8C"/>
<path d="M79.4005 111.223H50.9102C49.6158 111.223 48.5664 110.174 48.5664 108.879C48.5664 107.584 49.6158 106.535 50.9102 106.535H79.4005C80.6948 106.535 81.7442 107.584 81.7442 108.879C81.7442 110.174 80.6948 111.223 79.4005 111.223Z" fill="#D9D9D9"/>
<path d="M73.2553 102.395H71.4844C70.19 102.395 69.1406 101.345 69.1406 100.051C69.1406 98.7561 70.19 97.707 71.4844 97.707H73.2553C74.5497 97.707 75.5991 98.7561 75.5991 100.051C75.5991 101.345 74.55 102.395 73.2553 102.395Z" fill="#D9D9D9"/>
<path d="M39.8979 70.5762C37.482 73.1834 33.4101 73.3387 30.8029 70.9228L20.0226 60.934C17.4154 58.5184 17.2601 54.4462 19.676 51.839C22.092 49.2318 26.1638 49.0765 28.771 51.4924L39.5513 61.4812C42.1585 63.8971 42.3138 67.969 39.8979 70.5762Z" fill="#FFE7BA"/>
<path d="M35.2379 66.3834L24.4576 56.3947C22.6545 54.7241 22.026 52.2616 22.6076 50.0391C21.5207 50.3528 20.501 50.95 19.676 51.8403C17.2601 54.4475 17.4154 58.5197 20.0226 60.9353L30.8029 70.9241C33.4101 73.3397 37.482 73.1847 39.8979 70.5775C40.6429 69.7734 41.1416 68.8294 41.401 67.8381C39.3051 68.4428 36.9548 67.9744 35.2379 66.3834Z" fill="#FFD591"/>
<path d="M39.8979 105.686C37.482 108.293 33.4101 108.448 30.8029 106.032L20.0226 96.0434C17.4154 93.6278 17.2601 89.5556 19.676 86.9484C22.092 84.3412 26.1638 84.1859 28.771 86.6018L39.5513 96.5906C42.1585 99.0062 42.3138 103.078 39.8979 105.686Z" fill="#FFE7BA"/>
<path d="M35.2379 101.489L24.4576 91.5002C22.6545 89.8295 22.026 87.367 22.6076 85.1445C21.5207 85.4583 20.501 86.0555 19.676 86.9458C17.2601 89.553 17.4154 93.6252 20.0226 96.0408L30.8029 106.03C33.4101 108.445 37.482 108.29 39.8979 105.683C40.6429 104.879 41.1416 103.935 41.401 102.944C39.3051 103.549 36.9548 103.08 35.2379 101.489Z" fill="#FFD591"/>
<path d="M39.8979 88.1309C37.482 90.7381 33.4101 90.8934 30.8029 88.4774L20.0226 78.4887C17.4154 76.0731 17.2601 72.0009 19.676 69.3937C22.092 66.7865 26.1638 66.6312 28.771 69.0471L39.5513 79.0359C42.1585 81.4515 42.3138 85.5234 39.8979 88.1309Z" fill="#FFE7BA"/>
<path d="M35.2379 83.9381L24.4576 73.9494C22.6545 72.2787 22.026 69.8163 22.6076 67.5938C21.5207 67.9075 20.5007 68.5047 19.676 69.395C17.2601 72.0022 17.4154 76.0741 20.0226 78.49L30.8029 88.4788C33.4101 90.8947 37.482 90.7394 39.8979 88.1322C40.6429 87.3281 41.1416 86.3841 41.401 85.3928C39.3051 85.9978 36.9548 85.5291 35.2379 83.9381Z" fill="#FFD591"/>
<path d="M131.897 27.1523C127.741 32.4386 123.99 40.0336 126.989 48.3217C132.614 63.8695 141.572 77.0686 137.405 100.052C135.515 110.481 141.719 114.853 149.06 116.517C153.866 106.504 156.563 95.2864 156.563 83.4373C156.563 61.1786 147.062 41.142 131.897 27.1523Z" fill="#FAFAFA"/>
</svg>
