<svg width="160" height="160" viewBox="0 0 160 160" fill="none" xmlns="http://www.w3.org/2000/svg">
<g clip-path="url(#clip0)">
<path d="M23.4916 135.094H136.509C148.964 121.477 156.563 103.346 156.563 83.4381C156.563 41.1534 122.285 6.875 80.0003 6.875C37.7156 6.875 3.4375 41.1534 3.4375 83.4381C3.4375 103.346 11.0372 121.477 23.4916 135.094Z" fill="#E8E8E8"/>
<path d="M80.0012 160C102.378 160 122.511 150.399 136.51 135.093V39.6566C133.967 28.5822 121.901 27.9041 121.746 27.8975H110.997C109.68 27.8975 108.612 26.8297 108.612 25.5128V13.9962C108.57 11.8706 107.826 2.28406 98.0412 0.014375C98.0066 0.0103125 97.9497 0.0040625 97.915 0H27.9259C25.4772 0 23.4922 1.985 23.4922 4.43375V135.093C37.4912 150.399 57.6244 160 80.0012 160Z" fill="#D9D9D9"/>
<path d="M58.9844 47.1328C58.9978 47.1381 59.0091 47.1428 59.0225 47.1481C58.9987 47.1384 58.9844 47.1328 58.9844 47.1328Z" fill="#BFBFBF"/>
<path d="M46.5522 90.6577C46.5378 90.6433 46.5172 90.6227 46.4922 90.5977L46.5522 90.6577Z" fill="#BFBFBF"/>
<path d="M46.4639 90.5694C46.4239 90.5294 46.3733 90.4791 46.3086 90.4141C46.3686 90.4741 46.4214 90.5269 46.4639 90.5694Z" fill="#BFBFBF"/>
<path d="M45.9978 90.1033C45.9481 90.0536 45.8928 89.9983 45.8359 89.9414C45.8906 89.9964 45.9453 90.0508 45.9978 90.1033Z" fill="#BFBFBF"/>
<path d="M45.5959 89.7014C45.5359 89.6414 45.4728 89.5783 45.4062 89.5117C45.4675 89.5727 45.5316 89.6367 45.5959 89.7014Z" fill="#BFBFBF"/>
<path d="M45.5938 89.6992C45.6803 89.7858 45.7603 89.8658 45.8337 89.9395C45.7544 89.8595 45.6737 89.7789 45.5938 89.6992Z" fill="#BFBFBF"/>
<path d="M46.5508 90.6562C46.583 90.6884 46.5858 90.6913 46.5508 90.6562V90.6562Z" fill="#BFBFBF"/>
<path d="M61.7312 0H27.9259C25.4772 0 23.4922 1.985 23.4922 4.43375V135.093C33.7253 146.281 47.2378 154.415 62.5066 157.985C60.0375 155.196 59.4022 151.129 59.4022 151.129C59.4022 151.129 59.4022 136.338 59.4022 129.983C59.4022 123.629 62.69 121.651 62.69 121.651L44.8631 88.9681C41.0053 85.1103 44.8631 80.7456 44.8631 80.7456C44.8631 60.7787 58.9862 47.1344 58.9862 47.1344C55.2369 45.6397 55.0275 39.6706 55.0275 39.6706C55.0275 39.6706 55.0275 15.9206 55.0275 8.83719C55.0272 4.54406 58.7766 1.63063 61.7312 0V0Z" fill="#BFBFBF"/>
<path d="M129.276 21.1337L115.375 7.23281C110.744 2.60156 104.463 0 97.9141 0H93.5156C107.201 0 108.097 11.7288 108.142 14.0056V25.5131C108.142 27.0891 109.42 28.3666 110.996 28.3666H121.745C121.745 28.3666 136.509 29.0228 136.509 44.0228V38.5953C136.509 32.0456 133.907 25.7647 129.276 21.1337Z" fill="#F7F7F7"/>
<path d="M114.987 86.3806C112.666 86.1287 110.588 87.8006 110.335 90.1168C109.574 97.0871 106.553 103.391 101.598 108.346C89.7038 120.24 70.3497 120.24 58.4554 108.346C56.8097 106.7 55.3669 104.879 54.1476 102.922C53.7141 102.227 54.4197 101.383 55.1775 101.695L60.4735 103.876C62.5738 104.742 65.0463 103.872 66.0091 101.814C67.0372 99.6174 66.0138 97.0331 63.7972 96.12L47.0907 89.2387C44.9385 88.3521 42.4704 89.3778 41.5832 91.5328L34.7019 108.239C33.8144 110.394 34.8416 112.86 36.996 113.747C39.1685 114.642 41.6235 113.589 42.5035 111.453L44.6888 106.147C44.9535 105.505 45.8466 105.44 46.1904 106.044C47.9029 109.055 50.0163 111.839 52.4894 114.312C67.6713 129.494 92.3779 129.498 107.564 114.312C113.802 108.074 117.765 99.8062 118.723 91.0318C118.976 88.7159 117.303 86.6334 114.987 86.3806Z" fill="#B5F5EC"/>
<path d="M122.202 53.2826C120.063 52.5173 117.704 53.6601 116.839 55.7601L114.7 60.9551C114.435 61.5979 113.542 61.6626 113.198 61.0582C111.486 58.0482 109.372 55.2635 106.899 52.7904C91.7153 37.6063 67.0088 37.6063 51.8244 52.7904C45.5863 59.0285 41.6235 67.2963 40.666 76.0704C40.3947 78.5545 42.3356 80.747 44.865 80.747C46.9897 80.747 48.8178 79.1463 49.0535 76.9854C49.8141 70.0151 52.8356 63.7113 57.7906 58.7563C69.6847 46.8623 89.0385 46.862 100.933 58.7563C102.579 60.4023 104.022 62.2238 105.241 64.1798C105.674 64.8754 104.969 65.7191 104.211 65.4073L98.805 63.1804C96.5881 62.2676 94.0413 63.3813 93.2244 65.6648C92.4591 67.8038 93.6019 70.1623 95.7025 71.0276L112.298 77.8635C114.471 78.7582 116.926 77.7057 117.806 75.5695L124.687 58.8629C125.6 56.6466 124.485 54.0998 122.202 53.2826Z" fill="#E6FFFB"/>
<path d="M152.465 58.6602C148.988 63.008 146.898 68.507 146.898 74.4736V94.8502C146.898 100.467 148.748 105.67 151.865 109.889C154.903 101.644 156.565 92.7348 156.565 83.4358C156.565 74.7648 155.121 66.4314 152.465 58.6602Z" fill="#F5F5F5"/>
<path d="M8.1375 109.889C11.2544 105.67 13.1044 100.467 13.1044 94.8502V74.4736C13.1044 68.507 11.0147 63.008 7.53781 58.6602C4.88125 66.4314 3.4375 74.7648 3.4375 83.4358C3.43781 92.7348 5.10031 101.644 8.1375 109.889Z" fill="#F5F5F5"/>
<path d="M125.009 16.8662L115.375 7.23281C110.744 2.60156 104.463 0 97.9141 0H93.5156C107.201 0 108.098 11.7288 108.143 14.0056V25.5131C108.143 27.0891 109.42 28.3666 110.996 28.3666H117.356C115.65 18.0869 125.009 16.8662 125.009 16.8662Z" fill="#E8E8E8"/>
<path d="M40.6621 76.0692C40.3908 78.5533 42.3317 80.7458 44.8611 80.7458C46.9858 80.7458 48.8139 79.1452 49.0495 76.9842C49.8105 70.0139 52.8317 63.7102 57.7867 58.7552C59.5264 57.0155 61.4292 55.5377 63.4417 54.3067C63.4377 54.3061 63.4339 54.3048 63.4302 54.3042C56.4183 53.2605 59.0224 47.1498 59.0224 47.1498L58.9686 47.1445C56.4249 48.7077 54.022 50.5877 51.8205 52.7892C45.5824 59.0273 41.6196 67.2952 40.6621 76.0692Z" fill="#B5F5EC"/>
<path d="M58.456 108.348C56.8104 106.702 55.3675 104.881 54.1482 102.924C53.7147 102.229 54.4204 101.385 55.1779 101.697L60.4738 103.878C62.5741 104.743 65.0466 103.873 66.0094 101.816C67.0376 99.6194 66.0141 97.0351 63.7976 96.1219L47.091 89.2407C44.9388 88.3541 42.4707 89.3797 41.5835 91.5347L34.7019 108.241C33.8144 110.396 34.8416 112.862 36.996 113.749C39.1685 114.643 41.6235 113.591 42.5035 111.455L44.6888 106.149C44.9535 105.507 45.8466 105.442 46.1907 106.046C47.9029 109.057 50.0166 111.841 52.4897 114.314C55.5541 117.378 59.0069 119.823 62.691 121.651C61.6557 115.61 67.2885 114.497 67.2885 114.497L67.2897 114.494C64.0876 113.028 61.0885 110.98 58.456 108.348Z" fill="#87E8DE"/>
<path d="M114.986 86.3806C112.665 86.1287 110.587 87.8006 110.334 90.1168C109.573 97.0871 106.552 103.391 101.597 108.346C101.597 108.346 100.438 115.204 107.563 114.312C113.802 108.074 117.765 99.8065 118.722 91.0321C118.975 88.7159 117.302 86.6334 114.986 86.3806Z" fill="#E6FFFB"/>
</g>
<defs>
<clipPath id="clip0">
<rect width="160" height="160" fill="white"/>
</clipPath>
</defs>
</svg>
