<svg width="20" height="20" viewBox="0 0 20 20" fill="none" xmlns="http://www.w3.org/2000/svg">
<path d="M9.43797 15.4358L16.8247 8.04716C16.8579 8.01396 16.8735 7.96903 16.8696 7.92411L16.3716 2.03739C16.3579 1.88505 16.2388 1.76591 16.0864 1.75224L10.1997 1.25614C10.1548 1.25224 10.1079 1.26786 10.0766 1.30106L2.68992 8.68778C2.66084 8.71715 2.64453 8.75681 2.64453 8.79814C2.64453 8.83946 2.66084 8.87912 2.68992 8.90849L9.21727 15.4358C9.27781 15.4983 9.37742 15.4983 9.43797 15.4358ZM10.6606 2.70731L15.0473 3.07841L15.4184 7.46513L9.32664 13.555L4.56883 8.79911L10.6606 2.70731ZM11.8356 6.34462C11.9227 6.43167 12.026 6.50072 12.1398 6.54783C12.2535 6.59494 12.3755 6.61918 12.4986 6.61917C12.6217 6.61916 12.7436 6.5949 12.8574 6.54778C12.9711 6.50065 13.0745 6.43159 13.1615 6.34452C13.2486 6.25746 13.3176 6.1541 13.3647 6.04035C13.4118 5.9266 13.4361 5.80468 13.4361 5.68156C13.436 5.55844 13.4118 5.43653 13.3647 5.32279C13.3175 5.20904 13.2485 5.10569 13.1614 5.01864C13.0743 4.93159 12.971 4.86254 12.8572 4.81543C12.7435 4.76832 12.6216 4.74408 12.4984 4.74409C12.3753 4.7441 12.2534 4.76836 12.1397 4.81549C12.0259 4.86261 11.9226 4.93168 11.8355 5.01874C11.7485 5.10581 11.6794 5.20916 11.6323 5.32291C11.5852 5.43667 11.561 5.55858 11.561 5.6817C11.561 5.80482 11.5852 5.92673 11.6324 6.04047C11.6795 6.15422 11.7486 6.25757 11.8356 6.34462ZM17.3774 10.5433L16.604 9.77177C16.5746 9.74269 16.535 9.72638 16.4936 9.72638C16.4523 9.72638 16.4126 9.74269 16.3833 9.77177L9.31297 16.8284L4.67234 12.1995C4.64298 12.1704 4.60332 12.1541 4.56199 12.1541C4.52066 12.1541 4.48101 12.1704 4.45164 12.1995L3.6782 12.971C3.64912 13.0004 3.63281 13.04 3.63281 13.0813C3.63281 13.1227 3.64912 13.1623 3.6782 13.1917L8.4282 17.9339L9.20164 18.7054C9.26219 18.7659 9.3618 18.7659 9.42234 18.7054L17.3774 10.764C17.438 10.7034 17.438 10.6038 17.3774 10.5433Z" fill="#595959"/>
</svg>
