<svg width="88" height="88" viewBox="0 0 88 88" fill="none" xmlns="http://www.w3.org/2000/svg">
<g clip-path="url(#clip0)">
<path d="M62.4053 38.1224C62.1221 38.1224 61.8315 38.1631 61.5409 38.2428L58.2562 39.1476L54.846 30.8392C53.8795 28.4855 51.0234 26.5703 48.4792 26.5703H16.5597C14.0152 26.5703 11.1594 28.4855 10.1933 30.8392L6.78721 39.136L3.54328 38.2425C3.25298 38.1627 2.96236 38.122 2.67917 38.122C1.12663 38.122 0 39.3081 0 40.9417V42.8778C0 44.7849 1.5519 46.3368 3.459 46.3368H3.83066L3.2801 47.6779C2.38242 49.864 1.65168 53.5664 1.65168 55.9308V72.4362C1.65168 74.3433 3.20358 75.8952 5.11067 75.8952H9.62816C11.5353 75.8952 13.0872 74.3433 13.0872 72.4362V68.3146H51.9515V72.4362C51.9515 74.3433 53.5034 75.8952 55.4105 75.8952H59.9273C61.8344 75.8952 63.3863 74.3433 63.3863 72.4362V55.9311C63.3863 53.5671 62.6556 49.8646 61.7579 47.6782L61.2073 46.3372H61.6252C63.5322 46.3372 65.0842 44.7853 65.0842 42.8782V40.942C65.0845 39.3084 63.9575 38.1224 62.4053 38.1224ZM9.26683 44.4585L14.4263 31.8915C15.0043 30.4836 16.7221 29.3315 18.244 29.3315H46.7949C48.3168 29.3315 50.0347 30.4833 50.6127 31.8915L55.7721 44.4585C56.3498 45.8664 55.5777 47.0185 54.0559 47.0185H10.9834C9.46122 47.0182 8.68915 45.8664 9.26683 44.4585ZM20.784 60.3543C20.784 61.1154 20.1611 61.7376 19.4007 61.7376H9.59975C8.83865 61.7376 8.21608 61.1151 8.21608 60.3543V55.6508C8.21608 54.89 8.83865 54.2675 9.59975 54.2675H19.4007C20.1611 54.2675 20.784 54.89 20.784 55.6508V60.3543ZM56.7299 60.3543C56.7299 61.1154 56.107 61.7376 55.3465 61.7376H45.5456C44.7852 61.7376 44.1623 61.1151 44.1623 60.3543V55.6508C44.1623 54.89 44.7852 54.2675 45.5456 54.2675H55.3465C56.107 54.2675 56.7299 54.89 56.7299 55.6508V60.3543Z" fill="#BFBFBF"/>
<path d="M83.6739 12.1055H67.2912C64.9055 12.1055 62.9648 14.0465 62.9648 16.4318V32.8149C62.9648 35.2005 64.9058 37.1415 67.2912 37.1415H73.8678V73.9118C73.8678 74.8036 74.5905 75.5263 75.4824 75.5263C76.3743 75.5263 77.0969 74.8036 77.0969 73.9118V37.1419H83.6739C86.0596 37.1419 88.0003 35.2009 88.0003 32.8152V16.4321C88.0003 14.0465 86.0596 12.1055 83.6739 12.1055ZM79.9634 25.6893C79.0211 26.5375 77.6333 26.9677 75.8386 26.9677H73.4662C73.1813 26.9677 72.9495 27.1998 72.9495 27.4846V31.4851C72.9495 31.9198 72.5959 32.273 72.1613 32.273H70.3646C69.9297 32.273 69.5764 31.9195 69.5764 31.4851V17.7631C69.5764 17.3282 69.93 16.9746 70.3646 16.9746H74.8905C77.8887 16.9746 79.0079 17.4264 79.9275 18.2068C80.8976 19.0299 81.389 20.2906 81.389 21.9545C81.3887 23.5803 80.9095 24.8365 79.9634 25.6893Z" fill="#BFBFBF"/>
<path d="M77.395 20.2876C76.9572 19.957 76.1825 19.7891 75.093 19.7891H73.4659C73.1811 19.7891 72.9492 20.0209 72.9492 20.3054V23.5932C72.9492 23.8777 73.1811 24.1096 73.4659 24.1096H74.4407C74.7988 24.1096 75.3775 24.0831 75.7304 24.0505C76.073 24.0192 77.0401 23.879 77.395 23.611C77.8209 23.2887 78.037 22.7314 78.037 21.9548C78.037 21.1708 77.8209 20.6099 77.395 20.2876Z" fill="#BFBFBF"/>
</g>
<defs>
<clipPath id="clip0">
<rect width="88" height="88" fill="white"/>
</clipPath>
</defs>
</svg>
