<svg width="24" height="24" viewBox="0 0 24 24" fill="none" xmlns="http://www.w3.org/2000/svg">
<g clip-path="url(#clip0)">
<path d="M5.19923 13.4922C4.09645 13.4922 3.19922 14.3894 3.19922 15.4922C3.19922 16.595 4.09641 17.4922 5.19923 17.4922C6.30201 17.4922 7.19924 16.595 7.19924 15.4922C7.19924 14.3894 6.30206 13.4922 5.19923 13.4922ZM5.19923 16.6922C4.53764 16.6922 3.99923 16.1538 3.99923 15.4922C3.99923 14.8306 4.53764 14.2922 5.19923 14.2922C5.86082 14.2922 6.39923 14.8306 6.39923 15.4922C6.39923 16.1538 5.86082 16.6922 5.19923 16.6922Z" fill="#00979D"/>
<path d="M23.6 13.4922V11.0922C23.6 10.9203 23.49 10.767 23.3264 10.7126L21.0696 9.96025C20.2196 8.52067 19.0512 7.15066 16.4692 6.69827C16.4644 6.69747 16.4596 6.69667 16.4548 6.69588C11.6864 6.03667 8.10642 7.11227 5.808 9.89388C4.0972 9.91867 2.35078 10.2763 1.32361 10.9339C0.791625 11.2747 0.476016 11.8679 0.446391 12.4991L0.399984 13.4923C0.179203 13.4923 0 13.6715 0 13.8923V15.4923C0 15.713 0.179203 15.8922 0.399984 15.8922H1.99997C2.22197 15.8922 2.39958 15.7098 2.39995 15.4878C2.39995 15.4858 2.40037 15.4839 2.40037 15.4814C2.40637 13.9402 3.65719 12.6922 5.19998 12.6922C6.74639 12.6922 7.99997 13.9458 7.99997 15.4922C7.97119 15.735 8.16277 15.8922 8.39995 15.8922H15.6C15.822 15.8922 15.9996 15.7098 15.9999 15.4878C15.9999 15.4858 16.0003 15.4838 16.0003 15.4814C16.0063 13.9402 17.2571 12.6922 18.7999 12.6922C20.3463 12.6922 21.5999 13.9458 21.5999 15.4922C21.5711 15.735 21.7627 15.8921 21.9999 15.8921H23.5999C23.8207 15.8921 23.9999 15.7129 23.9999 15.4922V13.8922C24 13.6714 23.8208 13.4922 23.6 13.4922ZM12.8 9.69227C12.8 9.80266 12.7104 9.89228 12.6 9.89228H7.38361C7.19883 9.89228 7.11483 9.66508 7.25119 9.54067C8.6392 8.27547 10.4044 7.55186 12.5796 7.35949C12.6968 7.34908 12.8 7.44349 12.8 7.5611V9.69227ZM17.6056 9.69424C17.6044 9.80383 17.5152 9.89224 17.4056 9.89224H13.8C13.6896 9.89224 13.6 9.80266 13.6 9.69222V7.50822C13.6 7.39741 13.6884 7.30624 13.7988 7.30624C14.5964 7.30544 15.4404 7.36342 16.3376 7.48746C16.7648 7.56264 17.1456 7.66586 17.492 7.79266C17.5716 7.82186 17.6224 7.89907 17.6216 7.98386L17.6056 9.69424ZM19.6932 9.89224H18.6056C18.4944 9.89224 18.4044 9.80144 18.4056 9.69025L18.416 8.60627C18.4176 8.44108 18.606 8.35146 18.7392 8.44905C19.1716 8.76503 19.5312 9.14144 19.8516 9.56866C19.9516 9.70183 19.8596 9.89224 19.6932 9.89224Z" fill="#00979D"/>
<path d="M18.8008 13.4922C17.698 13.4922 16.8008 14.3894 16.8008 15.4922C16.8008 16.595 17.698 17.4922 18.8008 17.4922C19.9036 17.4922 20.8008 16.595 20.8008 15.4922C20.8008 14.3894 19.9036 13.4922 18.8008 13.4922ZM18.8008 16.6922C18.1392 16.6922 17.6008 16.1538 17.6008 15.4922C17.6008 14.8306 18.1392 14.2922 18.8008 14.2922C19.4624 14.2922 20.0008 14.8306 20.0008 15.4922C20.0008 16.1538 19.4624 16.6922 18.8008 16.6922Z" fill="#00979D"/>
</g>
<defs>
<clipPath id="clip0">
<rect width="24" height="24" fill="white"/>
</clipPath>
</defs>
</svg>
