<svg width="55" height="36" viewBox="0 0 55 36" fill="none" xmlns="http://www.w3.org/2000/svg">
<g clip-path="url(#clip0)">
<path d="M50.429 35.814H4.59097C3.38602 35.8247 2.22533 35.3582 1.36015 34.5154C0.934822 34.1013 0.595576 33.6064 0.362091 33.0595C0.128605 32.5126 0.00552798 31.9245 0 31.3294L0 4.50428C0.00552798 3.9092 0.128605 3.32114 0.362091 2.77422C0.595576 2.2273 0.934822 1.73242 1.36015 1.31828C2.22533 0.475495 3.38602 0.00897793 4.59097 0.0197125H50.429C51.634 0.00897793 52.7947 0.475495 53.6598 1.31828C54.0852 1.73242 54.4244 2.2273 54.6579 2.77422C54.8914 3.32114 55.0145 3.9092 55.02 4.50428V31.3487C54.9893 33.8379 52.9356 35.8346 50.429 35.814Z" fill="white"/>
<path d="M0 30.1611V31.3478C0.0307088 33.837 2.08436 35.8337 4.59097 35.8118H50.429C51.6338 35.8231 52.7945 35.357 53.6598 34.5146C54.0852 34.1004 54.4244 33.6055 54.6579 33.0586C54.8914 32.5117 55.0145 31.9236 55.02 31.3286V30.1611H0Z" fill="#F99F1B"/>
<path d="M0 5.67142V4.48471C0.0307088 1.99556 2.08436 0.000134273 4.59097 0.0207057H50.429C51.6338 0.00948823 52.7945 0.475554 53.6598 1.31799C54.0852 1.73213 54.4244 2.22701 54.6579 2.77393C54.8914 3.32084 55.0145 3.9089 55.02 4.50399V5.67142H0ZM26.3712 11.5497L23.5639 24.304H20.2038L22.974 11.5497H26.3699H26.3712ZM40.5446 19.8001L42.327 14.9967L43.3519 19.8001H40.5446ZM44.3192 24.322H47.4311L44.6993 11.5497H41.8331C41.5265 11.542 41.2247 11.6279 40.9675 11.7958C40.7104 11.9638 40.5098 12.2061 40.3923 12.4908L35.3267 24.3027H38.8748L39.576 22.4191H43.9021L44.3192 24.3027V24.322ZM35.516 20.1396C35.516 16.7864 30.7549 16.5974 30.7728 15.0906C30.792 14.6393 31.2475 14.1494 32.2148 14.017C33.3518 13.9101 34.4969 14.1052 35.5352 14.5827L36.1238 11.8878C35.1144 11.5171 34.0484 11.3257 32.9736 11.3221C29.634 11.3221 27.2822 13.0566 27.2822 15.5431C27.263 17.3701 28.952 18.4064 30.2226 19.0094C31.5508 19.6304 31.9884 20.0457 31.9884 20.5908C31.9679 21.4587 30.9251 21.8354 29.9577 21.8354C28.2496 21.8727 27.2835 21.4021 26.5043 21.0434L25.8773 23.8321C26.6757 24.1896 28.1357 24.4917 29.6353 24.5097C33.1822 24.5097 35.4968 22.8151 35.516 20.1396ZM21.5346 11.5497L16.071 24.322H12.5215L9.82811 14.1494C9.65665 13.5271 9.50566 13.3008 9.01176 13.018C7.95232 12.5263 6.83735 12.1658 5.69137 11.9444L5.76814 11.5677H11.5158C12.2375 11.5677 12.9015 12.0576 13.0717 12.8868L14.4946 20.2527L18.0043 11.587H21.5333V11.5484L21.5346 11.5497Z" fill="#2D4990"/>
</g>
<defs>
<clipPath id="clip0">
<rect width="55" height="36" fill="white"/>
</clipPath>
</defs>
</svg>
