<svg width="37" height="24" viewBox="0 0 37 24" fill="none" xmlns="http://www.w3.org/2000/svg">
<g clip-path="url(#clip0)">
<path d="M33.7817 23.8757H3.07543C2.26825 23.8828 1.49072 23.5718 0.911143 23.01C0.626225 22.7339 0.398969 22.4039 0.24256 22.0393C0.0861508 21.6747 0.00370312 21.2827 0 20.886L0 3.00253C0.00370312 2.60581 0.0861508 2.21376 0.24256 1.84915C0.398969 1.48454 0.626225 1.15462 0.911143 0.878531C1.49072 0.316671 2.26825 0.00565976 3.07543 0.0128161H33.7817C34.5889 0.00565976 35.3664 0.316671 35.946 0.878531C36.2309 1.15462 36.4582 1.48454 36.6146 1.84915C36.771 2.21376 36.8534 2.60581 36.8571 3.00253V20.8988C36.8366 22.5582 35.4609 23.8894 33.7817 23.8757Z" fill="white"/>
<path d="M0 20.1077V20.8988C0.0205714 22.5582 1.39629 23.8894 3.07543 23.8748H33.7817C34.5888 23.8823 35.3663 23.5716 35.946 23.0099C36.2309 22.7339 36.4582 22.4039 36.6146 22.0393C36.771 21.6747 36.8534 21.2827 36.8571 20.886V20.1077H0Z" fill="#F99F1B"/>
<path d="M0 3.78095V2.9898C0.0205714 1.33038 1.39629 8.95159e-05 3.07543 0.0138038H33.7817C34.5888 0.00632548 35.3663 0.317036 35.946 0.878661C36.2309 1.15475 36.4582 1.48467 36.6146 1.84928C36.771 2.21389 36.8534 2.60594 36.8571 3.00266V3.78095H0ZM17.6657 7.6998L15.7851 16.2027H13.5343L15.39 7.6998H17.6649H17.6657ZM27.1603 13.2001L28.3543 9.9978L29.0409 13.2001H27.1603ZM29.6889 16.2147H31.7734L29.9434 7.6998H28.0234C27.818 7.69469 27.6159 7.7519 27.4436 7.8639C27.2713 7.97589 27.137 8.13742 27.0583 8.32723L23.6649 16.2018H26.0417L26.5114 14.9461H29.4094L29.6889 16.2018V16.2147ZM23.7917 13.4264C23.7917 11.1909 20.6023 11.0649 20.6143 10.0604C20.6271 9.75952 20.9323 9.43295 21.5803 9.34466C22.3419 9.27339 23.109 9.40345 23.8046 9.7218L24.1989 7.92523C23.5226 7.67805 22.8086 7.55043 22.0886 7.54809C19.8514 7.54809 18.276 8.70438 18.276 10.3621C18.2631 11.5801 19.3946 12.2709 20.2457 12.6729C21.1354 13.0869 21.4286 13.3638 21.4286 13.7272C21.4149 14.3058 20.7163 14.5569 20.0683 14.5569C18.924 14.5818 18.2769 14.2681 17.7549 14.0289L17.3349 15.8881C17.8697 16.1264 18.8477 16.3278 19.8523 16.3398C22.2283 16.3398 23.7789 15.2101 23.7917 13.4264ZM14.4257 7.6998L10.7657 16.2147H8.388L6.58371 9.43295C6.46886 9.01809 6.36771 8.86723 6.03686 8.67866C5.32715 8.35089 4.58025 8.11056 3.81257 7.96295L3.864 7.7118H7.71429C8.19771 7.7118 8.64257 8.03837 8.75657 8.59123L9.70971 13.5018L12.0609 7.72466H14.4249V7.69895L14.4257 7.6998Z" fill="#2D4990"/>
</g>
<defs>
<clipPath id="clip0">
<rect width="36.8438" height="24" fill="white"/>
</clipPath>
</defs>
</svg>
