<svg width="48" height="48" viewBox="0 0 48 48" fill="none" xmlns="http://www.w3.org/2000/svg">
<path d="M15.9375 27.4219C15.9375 27.1641 16.1484 26.9531 16.4062 26.9531H18.4688C18.7266 26.9531 18.9375 27.1641 18.9375 27.4219V35.4375H35.5781V26.3906C35.5781 19.9969 30.3937 14.8125 24 14.8125C17.6063 14.8125 12.4219 19.9969 12.4219 26.3906V35.4375H15.9375V27.4219Z" fill="#FFF1F0"/>
<path d="M10.1691 14.5547L12.0253 12.6984C12.1707 12.5531 12.1707 12.3141 12.0253 12.1688L8.84253 8.98594C8.77205 8.91615 8.67687 8.877 8.57769 8.877C8.4785 8.877 8.38332 8.91615 8.31284 8.98594L6.45659 10.8422C6.38681 10.9127 6.34766 11.0078 6.34766 11.107C6.34766 11.2062 6.38681 11.3014 6.45659 11.3719L9.63941 14.5547C9.78472 14.7 10.0191 14.7 10.1691 14.5547ZM41.5566 10.8422L39.7003 8.98594C39.6299 8.91615 39.5347 8.877 39.4355 8.877C39.3363 8.877 39.2411 8.91615 39.1707 8.98594L35.9878 12.1688C35.9181 12.2392 35.8789 12.3344 35.8789 12.4336C35.8789 12.5328 35.9181 12.628 35.9878 12.6984L37.8441 14.5547C37.9894 14.7 38.2285 14.7 38.3738 14.5547L41.5566 11.3719C41.7019 11.2219 41.7019 10.9875 41.5566 10.8422ZM22.6894 8.4375H25.3144C25.5207 8.4375 25.6894 8.26875 25.6894 8.0625V3.5625C25.6894 3.35625 25.5207 3.1875 25.3144 3.1875H22.6894C22.4832 3.1875 22.3144 3.35625 22.3144 3.5625V8.0625C22.3144 8.26875 22.4832 8.4375 22.6894 8.4375ZM39.0019 41.8125H9.00191C8.17222 41.8125 7.50191 42.4828 7.50191 43.3125V44.4375C7.50191 44.6437 7.67066 44.8125 7.87691 44.8125H40.1269C40.3332 44.8125 40.5019 44.6437 40.5019 44.4375V43.3125C40.5019 42.4828 39.8316 41.8125 39.0019 41.8125ZM9.04878 37.3125C9.04878 38.1422 9.71909 38.8125 10.5488 38.8125H37.455C38.2847 38.8125 38.955 38.1422 38.955 37.3125V26.3906C38.955 18.1313 32.2613 11.4375 24.0019 11.4375C15.7425 11.4375 9.04878 18.1313 9.04878 26.3906V37.3125ZM12.4238 26.3906C12.4238 19.9969 17.6082 14.8125 24.0019 14.8125C30.3957 14.8125 35.58 19.9969 35.58 26.3906V35.4375H18.9394V27.4219C18.9394 27.1641 18.7285 26.9531 18.4707 26.9531H16.4082C16.1503 26.9531 15.9394 27.1641 15.9394 27.4219V35.4375H12.4238V26.3906Z" fill="#F5222D"/>
</svg>
