<svg width="16" height="16" viewBox="0 0 16 16" fill="none" xmlns="http://www.w3.org/2000/svg">
<path d="M3.01561 12.3243C3.01561 12.5984 3.23905 12.8198 3.51561 12.8198H12.4844C12.7609 12.8198 12.9844 12.5984 12.9844 12.3243V8.7168C12.9844 5.9887 10.7531 3.77773 7.99998 3.77773C5.24686 3.77773 3.01561 5.9887 3.01561 8.7168V12.3243ZM4.14061 8.7168C4.14061 6.60492 5.86873 4.89251 7.99998 4.89251C10.1312 4.89251 11.8594 6.60492 11.8594 8.7168V11.705H6.31248V9.05742C6.31248 8.97227 6.24217 8.90259 6.15623 8.90259H5.46873C5.3828 8.90259 5.31248 8.97227 5.31248 9.05742V11.705H4.14061V8.7168ZM3.38905 4.80735L4.0078 4.19423C4.05623 4.14623 4.05623 4.06727 4.0078 4.01927L2.94686 2.96798C2.92337 2.94492 2.89164 2.93199 2.85858 2.93199C2.82552 2.93199 2.79379 2.94492 2.7703 2.96798L2.15155 3.5811C2.12828 3.60438 2.11523 3.63582 2.11523 3.66858C2.11523 3.70134 2.12828 3.73278 2.15155 3.75606L3.21248 4.80735C3.26092 4.85535 3.33905 4.85535 3.38905 4.80735ZM13.8515 3.5811L13.2328 2.96798C13.2093 2.94492 13.1776 2.93199 13.1445 2.93199C13.1115 2.93199 13.0797 2.94492 13.0562 2.96798L11.9953 4.01927C11.972 4.04255 11.959 4.07399 11.959 4.10675C11.959 4.13951 11.972 4.17095 11.9953 4.19423L12.614 4.80735C12.6625 4.85535 12.7422 4.85535 12.7906 4.80735L13.8515 3.75606C13.9 3.70651 13.9 3.6291 13.8515 3.5811ZM13 13.8107H2.99998C2.72342 13.8107 2.49998 14.0321 2.49998 14.3061V14.6777C2.49998 14.7459 2.55623 14.8016 2.62498 14.8016H13.375C13.4437 14.8016 13.5 14.7459 13.5 14.6777V14.3061C13.5 14.0321 13.2765 13.8107 13 13.8107ZM7.56248 2.78683H8.43748C8.50623 2.78683 8.56248 2.73109 8.56248 2.66296V1.1766C8.56248 1.10847 8.50623 1.05273 8.43748 1.05273H7.56248C7.49373 1.05273 7.43748 1.10847 7.43748 1.1766V2.66296C7.43748 2.73109 7.49373 2.78683 7.56248 2.78683Z" fill="black"/>
</svg>
