<svg width="32" height="32" viewBox="0 0 32 32" fill="none" xmlns="http://www.w3.org/2000/svg">
<path d="M31.4667 27.1353H30.4C30.1054 27.1353 29.8667 27.374 29.8667 27.6686C29.8667 27.9631 30.1054 28.2019 30.4 28.2019H31.4667C31.7613 28.2019 32 27.9631 32 27.6686C32 27.374 31.7613 27.1353 31.4667 27.1353Z" fill="#00979D"/>
<path d="M1.60021 5.80166H14.4002C14.6946 5.80129 14.9331 5.56272 14.9335 5.26835V4.20166H1.06689V5.26835C1.06727 5.56272 1.30583 5.80129 1.60021 5.80166Z" fill="#00979D"/>
<path d="M4.2666 9.00195V17.002H5.8666V15.9353C5.86754 15.052 6.58335 14.3362 7.4666 14.3353H8.53329C9.41654 14.3362 10.1324 15.052 10.1333 15.9353V17.002H11.734L11.7333 9.00195H4.2666Z" fill="#00979D"/>
<path d="M8.53311 15.4019H7.46642C7.17204 15.4022 6.93348 15.6408 6.93311 15.9352V17.0019H9.06642V15.9352C9.06611 15.6408 8.82754 15.4022 8.53311 15.4019Z" fill="#00979D"/>
<path d="M30.9333 4.86317C30.9323 4.58054 30.8198 4.30973 30.6203 4.10954C30.4206 3.90954 30.1494 3.79735 29.8667 3.79785V6.37023L30.6203 5.6166C30.8198 5.41635 30.9322 5.14567 30.9333 4.86317Z" fill="#00979D"/>
<path d="M4.7998 25.0017H11.1998V20.2017H4.7998V25.0017ZM6.3998 21.2683H9.5998C9.89437 21.2683 10.1331 21.5072 10.1331 21.8017C10.1331 22.0962 9.8943 22.335 9.5998 22.335H6.3998C6.10524 22.335 5.86649 22.0962 5.86649 21.8017C5.86649 21.5071 6.10524 21.2683 6.3998 21.2683ZM6.3998 22.8683H9.5998C9.89437 22.8683 10.1331 23.1071 10.1331 23.4017C10.1331 23.6962 9.8943 23.935 9.5998 23.935H6.3998C6.10524 23.935 5.86649 23.6962 5.86649 23.4017C5.86649 23.1071 6.10524 22.8683 6.3998 22.8683Z" fill="#00979D"/>
<path d="M25.6001 7.62256L23.4668 9.75587V12.7703L25.6001 10.6369V7.62256Z" fill="#00979D"/>
<path d="M26.6665 9.57011L28.7998 7.43673V4.42236L26.6665 6.55567V9.57011Z" fill="#00979D"/>
<path d="M22.3999 10.8223L20.2666 12.9556V15.97L22.3999 13.8366V10.8223Z" fill="#00979D"/>
<path d="M18.0839 18.1529L19.2 17.0368V14.0225L16.644 16.5785C17.3709 16.8082 17.9199 17.4084 18.0839 18.1529Z" fill="#00979D"/>
<path d="M28.2667 27.1349H17.0667V18.6015C17.0667 18.0124 16.5891 17.5348 16 17.5348C15.4109 17.5348 14.9333 18.0124 14.9333 18.6015V27.1348H13.8666V6.86816H2.13331V27.1349H0.533312C0.23875 27.1349 0 27.3736 0 27.6682C0 27.9627 0.23875 28.2015 0.533312 28.2015H28.2666C28.5612 28.2015 28.7999 27.9627 28.7999 27.6682C28.7999 27.3736 28.5612 27.1349 28.2667 27.1349ZM12.2667 25.0015C12.2649 25.5899 11.7884 26.0664 11.2 26.0682H4.8C4.21163 26.0664 3.73506 25.5899 3.73331 25.0015V20.2015C3.73506 19.6131 4.21156 19.1365 4.8 19.1348H11.2C11.7884 19.1365 12.2649 19.613 12.2667 20.2015V25.0015ZM12.8 17.0015C12.7983 17.5899 12.3217 18.0664 11.7333 18.0682H4.26669C3.67831 18.0664 3.20175 17.5899 3.2 17.0015V9.00148C3.20175 8.4131 3.67825 7.93654 4.26669 7.93479H11.7334C12.3217 7.93654 12.7983 8.41304 12.8001 9.00148V17.0015H12.8ZM16.4907 19.3375C16.4649 19.4027 16.4269 19.4625 16.3787 19.5135L16.2987 19.5775C16.2689 19.5977 16.2367 19.6139 16.2027 19.6255C16.1725 19.6409 16.1401 19.6517 16.1067 19.6575C16.0714 19.6637 16.0358 19.6672 16 19.6682C15.9303 19.6674 15.8614 19.6529 15.7973 19.6255C15.7327 19.5984 15.6732 19.5605 15.6213 19.5135C15.5731 19.4625 15.5351 19.4027 15.5093 19.3375C15.4819 19.2734 15.4674 19.2045 15.4666 19.1348C15.4676 19.099 15.4711 19.0634 15.4773 19.0281C15.4831 18.9947 15.4939 18.9623 15.5093 18.9321C15.5209 18.8981 15.5371 18.8659 15.5573 18.8361L15.6213 18.7561C15.6723 18.7079 15.7321 18.6699 15.7973 18.6441C15.9959 18.5604 16.2254 18.6047 16.3786 18.7561L16.4426 18.8361C16.4628 18.8659 16.479 18.8981 16.4906 18.9321C16.5061 18.9623 16.5168 18.9947 16.5226 19.0281C16.5288 19.0634 16.5324 19.099 16.5333 19.1348C16.5326 19.2045 16.5181 19.2734 16.4907 19.3375Z" fill="#00979D"/>
</svg>
