<svg width="32" height="32" viewBox="0 0 32 32" fill="none" xmlns="http://www.w3.org/2000/svg">
<path d="M31.4668 27.1353H30.4001C30.1055 27.1353 29.8668 27.374 29.8668 27.6686C29.8668 27.9631 30.1055 28.2019 30.4001 28.2019H31.4668C31.7613 28.2019 32.0001 27.9631 32.0001 27.6686C32.0001 27.374 31.7613 27.1353 31.4668 27.1353Z" fill="#BFBFBF"/>
<path d="M1.59996 5.8019H14.4C14.6943 5.80153 14.9329 5.56297 14.9333 5.26859V4.2019H1.06665V5.26859C1.06703 5.56297 1.30559 5.80153 1.59996 5.8019Z" fill="#BFBFBF"/>
<path d="M4.26672 9.00195V17.002H5.86672V15.9353C5.86766 15.052 6.58347 14.3362 7.46672 14.3353H8.53341C9.41666 14.3362 10.1325 15.052 10.1334 15.9353V17.002H11.7342L11.7334 9.00195H4.26672Z" fill="#BFBFBF"/>
<path d="M8.53335 15.4019H7.46666C7.17229 15.4023 6.93372 15.6409 6.93335 15.9352V17.0019H9.06666V15.9352C9.06635 15.6409 8.82779 15.4023 8.53335 15.4019Z" fill="#BFBFBF"/>
<path d="M30.9334 4.86341C30.9323 4.58079 30.8198 4.30997 30.6204 4.10979C30.4206 3.90979 30.1494 3.7976 29.8668 3.7981V6.37047L30.6204 5.61685C30.8198 5.4166 30.9323 5.14591 30.9334 4.86341Z" fill="#BFBFBF"/>
<path d="M4.79999 25.002H11.2V20.202H4.79999V25.002ZM6.39999 21.2687H9.59999C9.89455 21.2687 10.1333 21.5075 10.1333 21.802C10.1333 22.0965 9.89449 22.3353 9.59999 22.3353H6.39999C6.10543 22.3353 5.86667 22.0965 5.86667 21.802C5.86667 21.5074 6.10543 21.2687 6.39999 21.2687ZM6.39999 22.8687H9.59999C9.89455 22.8687 10.1333 23.1074 10.1333 23.402C10.1333 23.6965 9.89449 23.9353 9.59999 23.9353H6.39999C6.10543 23.9353 5.86667 23.6965 5.86667 23.402C5.86667 23.1074 6.10543 22.8687 6.39999 22.8687Z" fill="#BFBFBF"/>
<path d="M25.6 7.6228L23.4667 9.75611V12.7705L25.6 10.6372V7.6228Z" fill="#BFBFBF"/>
<path d="M26.6667 9.57047L28.8 7.4371V4.42273L26.6667 6.55604V9.57047Z" fill="#BFBFBF"/>
<path d="M22.4 10.8227L20.2667 12.956V15.9704L22.4 13.8371V10.8227Z" fill="#BFBFBF"/>
<path d="M18.0839 18.1533L19.2 17.0371V14.0228L16.644 16.5788C17.3709 16.8085 17.9199 17.4088 18.0839 18.1533Z" fill="#BFBFBF"/>
<path d="M28.2667 27.1353H17.0667V18.6019C17.0667 18.0128 16.5891 17.5352 16 17.5352C15.4109 17.5352 14.9333 18.0128 14.9333 18.6019V27.1352H13.8666V6.86859H2.13331V27.1353H0.533312C0.23875 27.1353 0 27.374 0 27.6686C0 27.9632 0.23875 28.2019 0.533312 28.2019H28.2666C28.5612 28.2019 28.7999 27.9632 28.7999 27.6686C28.7999 27.374 28.5612 27.1353 28.2667 27.1353ZM12.2667 25.0019C12.2649 25.5903 11.7884 26.0668 11.2 26.0686H4.8C4.21163 26.0668 3.73506 25.5903 3.73331 25.0019V20.2019C3.73506 19.6135 4.21156 19.137 4.8 19.1352H11.2C11.7884 19.1369 12.2649 19.6135 12.2667 20.2019V25.0019ZM12.8 17.0019C12.7983 17.5903 12.3217 18.0668 11.7333 18.0686H4.26669C3.67831 18.0668 3.20175 17.5903 3.2 17.0019V9.0019C3.20175 8.41353 3.67825 7.93697 4.26669 7.93522H11.7334C12.3217 7.93697 12.7983 8.41347 12.8001 9.0019V17.0019H12.8ZM16.4907 19.3379C16.4649 19.4032 16.4269 19.4629 16.3787 19.5139L16.2987 19.5779C16.2689 19.5981 16.2367 19.6143 16.2027 19.6259C16.1725 19.6413 16.1401 19.6521 16.1067 19.6579C16.0714 19.6641 16.0358 19.6677 16 19.6686C15.9303 19.6678 15.8614 19.6533 15.7973 19.6259C15.7327 19.5988 15.6732 19.561 15.6213 19.5139C15.5731 19.4629 15.5351 19.4032 15.5093 19.3379C15.4819 19.2738 15.4674 19.205 15.4666 19.1352C15.4676 19.0995 15.4711 19.0638 15.4773 19.0285C15.4831 18.9951 15.4939 18.9627 15.5093 18.9325C15.5209 18.8985 15.5371 18.8663 15.5573 18.8365L15.6213 18.7565C15.6723 18.7083 15.7321 18.6703 15.7973 18.6445C15.9959 18.5608 16.2254 18.6051 16.3786 18.7565L16.4426 18.8365C16.4628 18.8663 16.479 18.8985 16.4906 18.9325C16.5061 18.9627 16.5168 18.9951 16.5226 19.0285C16.5288 19.0638 16.5324 19.0994 16.5333 19.1352C16.5326 19.205 16.5181 19.2738 16.4907 19.3379Z" fill="#BFBFBF"/>
</svg>
