<svg width="16" height="16" viewBox="0 0 16 16" fill="none" xmlns="http://www.w3.org/2000/svg">
<path fill-rule="evenodd" clip-rule="evenodd" d="M7.99991 2.66602C10.4319 2.66602 12.7339 3.59602 14.4832 5.28535C14.7479 5.54068 14.7552 5.96335 14.4999 6.22802C14.3692 6.36335 14.1946 6.43135 14.0206 6.43135C13.8539 6.43135 13.6866 6.36935 13.5572 6.24402C12.0572 4.79668 10.0839 3.99935 7.99991 3.99935C5.91591 3.99935 3.94258 4.79668 2.44258 6.24402C2.17925 6.50068 1.75658 6.49335 1.49991 6.22802C1.24525 5.96335 1.25191 5.54068 1.51725 5.28535C3.26658 3.59602 5.56858 2.66602 7.99991 2.66602ZM8.00018 5.99922C6.38151 5.99922 4.80818 6.66655 3.68351 7.83122C3.42885 8.09655 3.43551 8.51855 3.70085 8.77388C3.96485 9.02988 4.38818 9.02255 4.64351 8.75788C5.51751 7.85188 6.74085 7.33255 8.00018 7.33255C9.25951 7.33255 10.4828 7.85188 11.3568 8.75788C11.4875 8.89322 11.6622 8.96122 11.8368 8.96122C12.0035 8.96122 12.1708 8.89922 12.2995 8.77388C12.5648 8.51855 12.5715 8.09655 12.3168 7.83122C11.1922 6.66655 9.61885 5.99922 8.00018 5.99922ZM5.68485 10.2679C6.30951 9.66522 7.13151 9.33255 8.00018 9.33255C8.86885 9.33255 9.69085 9.66522 10.3155 10.2679C10.5802 10.5239 10.5875 10.9459 10.3322 11.2105C10.2015 11.3465 10.0268 11.4145 9.85218 11.4145C9.68551 11.4145 9.51818 11.3519 9.38951 11.2272C8.63951 10.5032 7.36085 10.5032 6.61085 11.2272C6.34751 11.4832 5.92485 11.4759 5.66818 11.2105C5.41285 10.9459 5.42018 10.5239 5.68485 10.2679ZM7.33351 12.6659C7.33351 12.2979 7.63151 11.9992 8.00018 11.9992C8.36885 11.9992 8.66685 12.2979 8.66685 12.6659C8.66685 13.0339 8.36885 13.3325 8.00018 13.3325C7.63151 13.3325 7.33351 13.0339 7.33351 12.6659Z" fill="#52C41A"/>
<mask id="mask0" mask-type="alpha" maskUnits="userSpaceOnUse" x="1" y="2" width="14" height="12">
<path fill-rule="evenodd" clip-rule="evenodd" d="M7.99991 2.66602C10.4319 2.66602 12.7339 3.59602 14.4832 5.28535C14.7479 5.54068 14.7552 5.96335 14.4999 6.22802C14.3692 6.36335 14.1946 6.43135 14.0206 6.43135C13.8539 6.43135 13.6866 6.36935 13.5572 6.24402C12.0572 4.79668 10.0839 3.99935 7.99991 3.99935C5.91591 3.99935 3.94258 4.79668 2.44258 6.24402C2.17925 6.50068 1.75658 6.49335 1.49991 6.22802C1.24525 5.96335 1.25191 5.54068 1.51725 5.28535C3.26658 3.59602 5.56858 2.66602 7.99991 2.66602ZM8.00018 5.99922C6.38151 5.99922 4.80818 6.66655 3.68351 7.83122C3.42885 8.09655 3.43551 8.51855 3.70085 8.77388C3.96485 9.02988 4.38818 9.02255 4.64351 8.75788C5.51751 7.85188 6.74085 7.33255 8.00018 7.33255C9.25951 7.33255 10.4828 7.85188 11.3568 8.75788C11.4875 8.89322 11.6622 8.96122 11.8368 8.96122C12.0035 8.96122 12.1708 8.89922 12.2995 8.77388C12.5648 8.51855 12.5715 8.09655 12.3168 7.83122C11.1922 6.66655 9.61885 5.99922 8.00018 5.99922ZM5.68485 10.2679C6.30951 9.66522 7.13151 9.33255 8.00018 9.33255C8.86885 9.33255 9.69085 9.66522 10.3155 10.2679C10.5802 10.5239 10.5875 10.9459 10.3322 11.2105C10.2015 11.3465 10.0268 11.4145 9.85218 11.4145C9.68551 11.4145 9.51818 11.3519 9.38951 11.2272C8.63951 10.5032 7.36085 10.5032 6.61085 11.2272C6.34751 11.4832 5.92485 11.4759 5.66818 11.2105C5.41285 10.9459 5.42018 10.5239 5.68485 10.2679ZM7.33351 12.6659C7.33351 12.2979 7.63151 11.9992 8.00018 11.9992C8.36885 11.9992 8.66685 12.2979 8.66685 12.6659C8.66685 13.0339 8.36885 13.3325 8.00018 13.3325C7.63151 13.3325 7.33351 13.0339 7.33351 12.6659Z" fill="white"/>
</mask>
<g mask="url(#mask0)">
</g>
</svg>
