<svg width="80" height="80" viewBox="0 0 80 80" fill="none" xmlns="http://www.w3.org/2000/svg">
<circle cx="40" cy="40" r="40" fill="#F5F5F5"/>
<circle cx="40.0001" cy="39.9991" r="31.9424" fill="#F0F2F5"/>
<g clip-path="url(#clip0)">
<path d="M53.1456 29.1609C52.7111 28.7263 52.0064 28.7263 51.5718 29.1609C51.1372 29.5955 51.1372 30.3001 51.5718 30.7347C54.7365 33.8993 56.4793 38.1099 56.4793 42.5908C56.4793 47.0717 54.7365 51.2823 51.5718 54.4469C51.1372 54.8815 51.1372 55.5861 51.5718 56.0208C52.0072 56.4561 52.7117 56.4546 53.1456 56.0208C56.7307 52.4358 58.705 47.6663 58.705 42.5908C58.705 37.5154 56.7307 32.7459 53.1456 29.1609Z" fill="#BFBFBF"/>
<path d="M49.776 32.531C49.3414 32.0964 48.6367 32.0964 48.2022 32.531C47.7676 32.9656 47.7676 33.6702 48.2022 34.1048C50.4674 36.3699 51.715 39.3838 51.715 42.5912C51.715 45.7986 50.4675 48.8125 48.2022 51.0777C47.7676 51.5123 47.7676 52.2169 48.2022 52.6515C48.6366 53.0859 49.3412 53.0862 49.776 52.6515C52.4617 49.9659 53.9408 46.3931 53.9408 42.5912C53.9408 38.7892 52.4616 35.2165 49.776 32.531Z" fill="#BFBFBF"/>
<path d="M46.4037 35.903C45.9691 35.4685 45.2644 35.4685 44.8299 35.903C44.3953 36.3377 44.3953 37.0423 44.8299 37.4769C46.195 38.8418 46.9467 40.6581 46.9467 42.5911C46.9467 44.5241 46.195 46.3404 44.8299 47.7054C44.3953 48.1399 44.3953 48.8446 44.8299 49.2792C45.2644 49.7137 45.969 49.7138 46.4037 49.2792C48.1891 47.4938 49.1725 45.1186 49.1725 42.591C49.1725 40.0635 48.1891 37.6884 46.4037 35.903Z" fill="#BFBFBF"/>
<path d="M22.9452 42.5908C22.9452 38.1099 24.688 33.8993 27.8527 30.7347C28.2873 30.3002 28.2873 29.5955 27.8527 29.1609C27.4182 28.7264 26.7136 28.7263 26.2789 29.1609C22.6938 32.7459 20.7195 37.5153 20.7195 42.5908C20.7195 47.6663 22.6938 52.4358 26.2789 56.0207C26.7133 56.4553 27.4181 56.4554 27.8527 56.0207C28.2873 55.5861 28.2873 54.8815 27.8527 54.4469C24.688 51.2823 22.9452 47.0717 22.9452 42.5908Z" fill="#BFBFBF"/>
<path d="M27.7096 42.5913C27.7096 39.3838 28.9571 36.37 31.2225 34.1048C31.6571 33.6702 31.6571 32.9656 31.2225 32.531C30.7879 32.0964 30.0833 32.0965 29.6487 32.531C26.963 35.2165 25.4839 38.7894 25.4839 42.5913C25.4839 46.3932 26.963 49.966 29.6487 52.6516C30.0839 53.0867 30.7884 53.0856 31.2225 52.6516C31.657 52.217 31.657 51.5124 31.2225 51.0778C28.9571 48.8126 27.7096 45.7987 27.7096 42.5913Z" fill="#BFBFBF"/>
<path d="M34.5945 35.9031C34.16 35.4685 33.4554 35.4685 33.0207 35.9031C31.2353 37.6885 30.252 40.0637 30.252 42.5912C30.252 45.1188 31.2353 47.494 33.0207 49.2794C33.4559 49.7145 34.1605 49.7134 34.5945 49.2794C35.0292 48.8448 35.0291 48.1401 34.5945 47.7056C33.2294 46.3406 32.4777 44.5243 32.4777 42.5913C32.4777 40.6584 33.2294 38.842 34.5945 37.4771C35.0291 37.0424 35.0291 36.3377 34.5945 35.9031Z" fill="#BFBFBF"/>
<path d="M39.7123 37.9023C37.1268 37.9023 35.0234 40.0058 35.0234 42.5912C35.0234 45.1766 37.1269 47.28 39.7123 47.28C42.2977 47.28 44.4011 45.1766 44.4011 42.5912C44.4011 40.0058 42.2977 37.9023 39.7123 37.9023Z" fill="#BFBFBF"/>
</g>
<defs>
<clipPath id="clip0">
<rect width="37.9856" height="37.9856" fill="white" transform="translate(20.7195 23.5977)"/>
</clipPath>
</defs>
</svg>
