<svg width="16" height="18" viewBox="0 0 16 18" fill="none" xmlns="http://www.w3.org/2000/svg">
<path d="M14.667 7.99984H13.2503V3.33317C13.2503 1.86025 12.0566 0.666504 10.5837 0.666504H5.41699C3.94408 0.666504 2.75033 1.86025 2.75033 3.33317V7.99984H1.33366C0.964909 7.99984 0.666992 8.29775 0.666992 8.6665V16.6665C0.666992 17.0353 0.964909 17.3332 1.33366 17.3332H14.667C15.0357 17.3332 15.3337 17.0353 15.3337 16.6665V8.6665C15.3337 8.29775 15.0357 7.99984 14.667 7.99984ZM4.25032 3.33317C4.25032 2.68942 4.77324 2.1665 5.41699 2.1665H10.5837C11.2274 2.1665 11.7503 2.68942 11.7503 3.33317V7.99984H4.25032V3.33317ZM13.8337 15.8332H2.16699V9.49984H13.8337V15.8332ZM7.41699 12.9373V14.0415C7.41699 14.1332 7.49199 14.2082 7.58366 14.2082H8.41699C8.50866 14.2082 8.58366 14.1332 8.58366 14.0415V12.9373C8.75563 12.8139 8.88399 12.639 8.95026 12.4379C9.01653 12.2369 9.0173 12.02 8.95245 11.8184C8.8876 11.6169 8.76047 11.4412 8.58937 11.3165C8.41827 11.1918 8.21203 11.1246 8.00032 11.1246C7.78862 11.1246 7.58237 11.1918 7.41128 11.3165C7.24018 11.4412 7.11305 11.6169 7.0482 11.8184C6.98335 12.02 6.98411 12.2369 7.05039 12.4379C7.11666 12.639 7.24502 12.8139 7.41699 12.9373Z" fill="#00979D"/>
</svg>
