<svg width="32" height="32" viewBox="0 0 32 32" fill="none" xmlns="http://www.w3.org/2000/svg">
<path d="M31.4667 30.9333H25.6V0.533312C25.6 0.238937 25.3611 0 25.0667 0H6.93331C6.63894 0 6.4 0.238937 6.4 0.533312V30.9333H0.533312C0.238937 30.9333 0 31.1723 0 31.4666C0 31.761 0.238937 32 0.533312 32H6.93331H9.06662H22.9333H25.0666H31.4666C31.761 32 31.9999 31.7611 31.9999 31.4667C31.9999 31.1723 31.7611 30.9333 31.4667 30.9333ZM21.3333 29.3333C21.3333 29.6277 21.0944 29.8666 20.8 29.8666H11.2C10.9056 29.8666 10.6667 29.6277 10.6667 29.3333V19.2C10.6667 18.9056 10.9056 18.6667 11.2 18.6667H20.8C21.0944 18.6667 21.3333 18.9056 21.3333 19.2V29.3333ZM10.6667 17.0667C10.6667 16.7723 10.9056 16.5334 11.2 16.5334H13.3333C13.6277 16.5334 13.8666 16.7723 13.8666 17.0667C13.8666 17.3611 13.6277 17.6 13.3333 17.6H11.2C10.9056 17.6 10.6667 17.3611 10.6667 17.0667ZM21.3333 14.9333C21.3333 15.2277 21.0944 15.4666 20.8 15.4666H11.2C10.9056 15.4666 10.6667 15.2277 10.6667 14.9333V4.8C10.6667 4.50563 10.9056 4.26669 11.2 4.26669H20.8C21.0944 4.26669 21.3333 4.50563 21.3333 4.8V14.9333ZM23.4667 30.9333H22.4V3.2H9.6V30.9333H8.53331V2.66669C8.53331 2.37231 8.77225 2.13337 9.06662 2.13337H22.9333C23.2277 2.13337 23.4666 2.37231 23.4666 2.66669V30.9333H23.4667Z" fill="#00979D"/>
<path d="M20.2666 19.7333H11.7333V28.8H20.2666V19.7333Z" fill="#00979D"/>
<path d="M20.2666 5.33325H11.7333V14.3999H20.2666V5.33325Z" fill="#00979D"/>
</svg>
