<svg width="32" height="32" viewBox="0 0 32 32" fill="none" xmlns="http://www.w3.org/2000/svg">
<path d="M15.9998 7.625C21.5054 7.625 25.9686 12.0881 25.9686 17.5938V24.875C25.9686 25.1402 25.8632 25.3946 25.6757 25.5821C25.4881 25.7696 25.2338 25.875 24.9686 25.875H7.03106C6.76584 25.875 6.51149 25.7696 6.32395 25.5821C6.13641 25.3946 6.03106 25.1402 6.03106 24.875V17.5938C6.03106 12.0881 10.4942 7.625 15.9998 7.625ZM15.1248 2.125H16.8748C16.9411 2.125 17.0047 2.15134 17.0516 2.19822C17.0985 2.24511 17.1248 2.3087 17.1248 2.375V5.375C17.1248 5.4413 17.0985 5.50489 17.0516 5.55178C17.0047 5.59866 16.9411 5.625 16.8748 5.625H15.1248C15.0585 5.625 14.9949 5.59866 14.948 5.55178C14.9011 5.50489 14.8748 5.4413 14.8748 5.375V2.375C14.8748 2.3087 14.9011 2.24511 14.948 2.19822C14.9949 2.15134 15.0585 2.125 15.1248 2.125ZM5.53887 5.98938C5.56209 5.96613 5.58966 5.94769 5.62001 5.93511C5.65036 5.92253 5.68289 5.91605 5.71574 5.91605C5.7486 5.91605 5.78113 5.92253 5.81148 5.93511C5.84183 5.94769 5.8694 5.96613 5.89262 5.98938L8.01387 8.11063C8.06072 8.1575 8.08703 8.22107 8.08703 8.28734C8.08703 8.35362 8.06072 8.41718 8.01387 8.46406L6.77637 9.70156C6.72949 9.74841 6.66593 9.77473 6.59965 9.77473C6.53337 9.77473 6.46981 9.74841 6.42293 9.70156L4.30168 7.58031C4.25483 7.53343 4.22852 7.46987 4.22852 7.40359C4.22852 7.33732 4.25483 7.27375 4.30168 7.22687L5.53918 5.98938H5.53887ZM26.4639 5.98938L27.7014 7.22687C27.7481 7.27374 27.7744 7.33724 27.7744 7.40344C27.7744 7.46964 27.7481 7.53313 27.7014 7.58L25.5801 9.70187C25.5569 9.72512 25.5293 9.74356 25.499 9.75614C25.4686 9.76872 25.4361 9.7752 25.4032 9.7752C25.3704 9.7752 25.3379 9.76872 25.3075 9.75614C25.2772 9.74356 25.2496 9.72512 25.2264 9.70187L23.9889 8.46437C23.9656 8.44116 23.9472 8.41358 23.9346 8.38323C23.922 8.35289 23.9155 8.32035 23.9155 8.2875C23.9155 8.25465 23.922 8.22211 23.9346 8.19176C23.9472 8.16142 23.9656 8.13384 23.9889 8.11063L26.1104 5.98938C26.1573 5.94253 26.2209 5.91621 26.2871 5.91621C26.3534 5.91621 26.417 5.94253 26.4639 5.98938ZM5.99981 27.875H25.9998C26.265 27.875 26.5194 27.9804 26.7069 28.1679C26.8944 28.3554 26.9998 28.6098 26.9998 28.875V29.625C26.9998 29.6913 26.9735 29.7549 26.9266 29.8018C26.8797 29.8487 26.8161 29.875 26.7498 29.875H5.24981C5.1835 29.875 5.11991 29.8487 5.07303 29.8018C5.02614 29.7549 4.99981 29.6913 4.99981 29.625V28.875C4.99981 28.6098 5.10516 28.3554 5.2927 28.1679C5.48024 27.9804 5.73459 27.875 5.99981 27.875ZM10.6248 17.9688V25.875H12.6248V17.9688H10.6248Z" fill="#F5222D"/>
</svg>
