<svg width="24" height="24" viewBox="0 0 24 24" fill="none" xmlns="http://www.w3.org/2000/svg">
<path fill-rule="evenodd" clip-rule="evenodd" d="M18.9199 12.4698C18.917 12.4634 18.9137 12.4572 18.9104 12.451L12.3922 0.247925C12.3107 0.0952148 12.1516 0 11.9788 0C11.8057 0 11.6468 0.0952148 11.5653 0.247925L8.34357 6.27924C8.22162 6.50757 8.30786 6.79175 8.53619 6.91351C8.76471 7.03564 9.04852 6.9494 9.17047 6.72107L11.9788 1.46375L18.0738 12.8745C18.0769 12.8806 18.0798 12.8866 18.0831 12.8926C18.6143 13.8871 18.895 15.0121 18.895 16.1462C18.895 19.96 15.7923 23.0625 11.9788 23.0625C8.16504 23.0625 5.0625 19.96 5.0625 16.1462C5.0625 15.0121 5.3432 13.8869 5.87439 12.8926C5.87787 12.8864 5.88098 12.88 5.88409 12.8738L7.4035 10.0292C7.52545 9.8009 7.43921 9.51691 7.21088 9.39496C6.98254 9.27301 6.69855 9.35925 6.5766 9.58759L5.04712 12.451C5.04364 12.4574 5.04016 12.464 5.03723 12.4706C4.44031 13.5954 4.125 14.866 4.125 16.1462C4.125 20.4769 7.64813 24 11.9788 24C16.3094 24 19.8325 20.4769 19.8325 16.1462C19.8325 14.8656 19.517 13.5948 18.9199 12.4698Z" fill="#1890FF"/>
<path fill-rule="evenodd" clip-rule="evenodd" d="M14.1269 12.3246C13.9026 12.1951 13.616 12.272 13.4866 12.4962L9.65857 19.1264C9.52912 19.3507 9.60602 19.6373 9.83014 19.7667C9.90393 19.8094 9.9845 19.8297 10.0642 19.8297C10.226 19.8297 10.3837 19.7457 10.4705 19.5952L14.2985 12.9649C14.4279 12.7408 14.351 12.454 14.1269 12.3246Z" fill="#1890FF"/>
<path fill-rule="evenodd" clip-rule="evenodd" d="M9.474 11.7285C8.41895 11.7285 7.56055 12.5869 7.56055 13.642C7.56055 14.6972 8.41895 15.5556 9.474 15.5556C10.5291 15.5556 11.3875 14.6972 11.3875 13.642C11.3875 12.5869 10.5291 11.7285 9.474 11.7285ZM9.474 14.6181C8.93585 14.6181 8.49805 14.1803 8.49805 13.6422C8.49805 13.1038 8.93585 12.666 9.474 12.666C10.0121 12.666 10.45 13.1038 10.45 13.6422C10.45 14.1803 10.0121 14.6181 9.474 14.6181Z" fill="#1890FF"/>
<path fill-rule="evenodd" clip-rule="evenodd" d="M12.5693 18.4467C12.5693 19.5019 13.4279 20.3603 14.483 20.3603C15.538 20.3603 16.3964 19.5019 16.3964 18.4467C16.3964 17.3916 15.538 16.5332 14.483 16.5332C13.4279 16.5332 12.5693 17.3916 12.5693 18.4467ZM14.483 17.4707C15.0211 17.4707 15.4589 17.9085 15.4589 18.4467C15.4589 18.985 15.0211 19.4228 14.483 19.4228C13.9448 19.4228 13.5068 18.985 13.5068 18.4467C13.5068 17.9085 13.9446 17.4707 14.483 17.4707Z" fill="#1890FF"/>
<path fill-rule="evenodd" clip-rule="evenodd" d="M7.87305 8.62305C8.13123 8.62305 8.3418 8.41248 8.3418 8.1543C8.3418 7.89612 8.13123 7.68555 7.87305 7.68555C7.61487 7.68555 7.4043 7.89612 7.4043 8.1543C7.4043 8.41248 7.61487 8.62305 7.87305 8.62305Z" fill="#1890FF"/>
</svg>
