<svg width="24" height="24" viewBox="0 0 24 24" fill="none" xmlns="http://www.w3.org/2000/svg">
<path d="M11.6442 3.0495L11.3994 2.10156C9.453 2.60345 8.09345 4.35925 8.09473 6.3692H9.07416C9.07342 4.80603 10.1307 3.44043 11.6442 3.0495Z" fill="#13C2C2"/>
<path d="M6.38108 15.183H18.6219C21.1908 15.1847 23.2748 13.1035 23.2762 10.5345C23.2779 8.05145 21.3287 6.00506 18.8485 5.8855C18.5836 2.38012 15.527 -0.246707 12.0216 0.0184296C8.88468 0.255551 6.3917 2.74872 6.1544 5.8855C3.58854 6.00909 1.60862 8.18933 1.73203 10.7554C1.8516 13.2355 3.89799 15.1847 6.38108 15.183ZM6.38108 6.85943H7.11552V6.36981C7.11552 3.39526 9.52701 0.983945 12.5016 0.983945C15.4761 0.983945 17.8874 3.39526 17.8874 6.36981V6.85943H18.6219C20.6499 6.85943 22.294 8.50354 22.294 10.5316C22.294 12.5597 20.6499 14.2038 18.6219 14.2038H6.38108C4.353 14.2038 2.7089 12.5597 2.7089 10.5316C2.7089 8.50354 4.353 6.85943 6.38108 6.85943Z" fill="#13C2C2"/>
<path d="M12.7207 16.2139C12.4788 16.093 12.1847 16.191 12.0637 16.4329C12.0637 16.433 12.0637 16.433 12.0635 16.4332L11.5739 17.4125C11.4512 17.6534 11.5472 17.9482 11.7881 18.0711C12.0291 18.1938 12.3239 18.0978 12.4466 17.8569C12.4477 17.8547 12.4488 17.8525 12.4499 17.8503L12.9395 16.871C13.0605 16.6292 12.9628 16.3349 12.7209 16.2139H12.7207Z" fill="#13C2C2"/>
<path d="M16.6376 16.2139C16.3957 16.093 16.1017 16.191 15.9808 16.4329C15.9806 16.433 15.9806 16.433 15.9806 16.4332L15.491 17.4125C15.3681 17.6534 15.4641 17.9482 15.7051 18.0711C15.946 18.1938 16.2408 18.0978 16.3635 17.8569C16.3646 17.8547 16.3659 17.8525 16.367 17.8503L16.8566 16.871C16.9776 16.6292 16.8797 16.3349 16.6378 16.2139C16.6378 16.2139 16.6378 16.2139 16.6376 16.2139Z" fill="#13C2C2"/>
<path d="M19.8454 18.1201C20.0319 18.1212 20.2028 18.0163 20.2861 17.8495L20.7757 16.8703C20.8984 16.6293 20.8026 16.3343 20.5617 16.2116C20.3207 16.0889 20.0259 16.1847 19.9032 16.4257C19.9021 16.4279 19.9008 16.4303 19.8997 16.4325L19.4101 17.4117C19.2893 17.6536 19.3874 17.9476 19.6293 18.0685C19.6965 18.1022 19.7705 18.1198 19.8454 18.1201Z" fill="#13C2C2"/>
<path d="M8.53194 17.8495L9.02156 16.8703C9.14443 16.6293 9.04866 16.3343 8.8077 16.2116C8.56673 16.0889 8.27193 16.1847 8.14906 16.4257C8.14797 16.4279 8.14687 16.4301 8.14577 16.4324L7.65596 17.4117C7.53328 17.6527 7.62904 17.9475 7.87001 18.0703C8.11098 18.193 8.40578 18.0972 8.52864 17.8563C8.52974 17.8541 8.53084 17.8517 8.53194 17.8495Z" fill="#13C2C2"/>
<path d="M4.17703 18.1201C4.36251 18.1203 4.53225 18.0154 4.6152 17.8495L5.10482 16.8703C5.22751 16.6293 5.13174 16.3343 4.89077 16.2116C4.64981 16.0889 4.35501 16.1847 4.23233 16.4257C4.23104 16.4279 4.22995 16.4301 4.22885 16.4325L3.73922 17.4117C3.61837 17.6536 3.71652 17.9477 3.9584 18.0685C4.02615 18.1026 4.10104 18.1201 4.17703 18.1201Z" fill="#13C2C2"/>
<path d="M10.5938 19.3699L10.1042 20.3492C9.98152 20.5902 10.0773 20.885 10.3183 21.0078C10.5592 21.1305 10.854 21.0347 10.9769 20.7938C10.978 20.7916 10.9791 20.7892 10.9802 20.787L11.4698 19.8078C11.5927 19.5668 11.4967 19.272 11.2559 19.1491C11.015 19.0264 10.72 19.1222 10.5973 19.3632C10.5962 19.3654 10.5949 19.3678 10.5938 19.3699Z" fill="#13C2C2"/>
<path d="M14.5119 19.3719L14.0223 20.3511C13.8994 20.5921 13.9953 20.8869 14.2363 21.0097C14.4773 21.1324 14.7721 21.0367 14.8948 20.7957C14.8959 20.7933 14.897 20.7911 14.8981 20.7889L15.3877 19.8097C15.5105 19.5687 15.4146 19.2739 15.1736 19.151C14.9327 19.0284 14.6379 19.1243 14.5152 19.3653C14.5141 19.3675 14.513 19.3697 14.5119 19.3719Z" fill="#13C2C2"/>
<path d="M18.3766 21.0597C18.5632 21.0606 18.734 20.9557 18.8173 20.7889L19.307 19.8097C19.4296 19.5687 19.3339 19.2739 19.0929 19.151C18.8519 19.0284 18.5572 19.1243 18.4345 19.3653C18.4332 19.3675 18.4321 19.3697 18.431 19.3719L17.9414 20.3511C17.8205 20.593 17.9187 20.8872 18.1605 21.0081C18.2277 21.0416 18.3017 21.0592 18.3766 21.0597Z" fill="#13C2C2"/>
<path d="M7.06319 20.787L7.55281 19.8078C7.67568 19.5668 7.57991 19.272 7.33895 19.1491C7.09798 19.0264 6.80318 19.1222 6.68031 19.3632C6.67922 19.3654 6.67812 19.3678 6.67684 19.3699L6.18721 20.3492C6.06453 20.5902 6.16029 20.885 6.40126 21.0078C6.64223 21.1305 6.93703 21.0347 7.05989 20.7938C7.06099 20.7916 7.06209 20.7892 7.06319 20.787Z" fill="#13C2C2"/>
<path d="M3.4178 19.1514C3.17592 19.0305 2.88185 19.1285 2.761 19.3704C2.761 19.3705 2.76082 19.3707 2.76082 19.3707L2.2712 20.35C2.14852 20.5909 2.24428 20.8857 2.48525 21.0086C2.72621 21.1313 3.02101 21.0355 3.14369 20.7946C3.14479 20.7924 3.14607 20.79 3.14717 20.7878L3.6368 19.8085C3.75783 19.5667 3.65987 19.2726 3.41799 19.1516C3.41799 19.1516 3.41799 19.1514 3.4178 19.1514Z" fill="#13C2C2"/>
<path d="M8.8551 23.9477C9.09699 24.0683 9.39087 23.9702 9.51172 23.7283L10.0013 22.7491C10.1242 22.5081 10.0283 22.2133 9.78729 22.0906C9.54651 21.9678 9.25153 22.0637 9.12885 22.3045C9.12775 22.3069 9.12647 22.3091 9.12537 22.3114L8.63574 23.2907C8.51489 23.5326 8.61286 23.8266 8.85474 23.9475C8.85492 23.9477 8.8551 23.9477 8.8551 23.9477Z" fill="#13C2C2"/>
<path d="M12.7721 23.9476C13.014 24.0683 13.308 23.9701 13.4287 23.7282L13.9183 22.749C14.0412 22.508 13.9453 22.2132 13.7043 22.0905C13.4633 21.9679 13.1685 22.0636 13.0458 22.3046C13.0447 22.3068 13.0435 22.3092 13.0424 22.3114L12.5527 23.2906C12.4319 23.5325 12.5298 23.8266 12.7717 23.9474C12.7719 23.9476 12.7721 23.9476 12.7721 23.9476Z" fill="#13C2C2"/>
<path d="M16.6892 23.9476C16.9311 24.0683 17.2249 23.9701 17.3458 23.7282L17.8354 22.749C17.9581 22.508 17.8621 22.2132 17.6214 22.0905C17.3804 21.9679 17.0854 22.0636 16.9627 22.3046C16.9616 22.3068 16.9605 22.3092 16.9594 22.3114L16.4698 23.2906C16.3488 23.5325 16.4469 23.8266 16.6888 23.9474C16.6888 23.9476 16.689 23.9476 16.6892 23.9476Z" fill="#13C2C2"/>
<path d="M5.86525 22.0889C5.62337 21.968 5.3293 22.066 5.20827 22.3079C5.20827 22.308 5.20809 22.3082 5.20809 22.3082L4.71846 23.2877C4.59578 23.5284 4.69154 23.8234 4.93251 23.9461C5.17348 24.0688 5.46828 23.973 5.59096 23.7321C5.59224 23.7299 5.59334 23.7277 5.59444 23.7253L6.08406 22.746C6.2051 22.5042 6.10714 22.2101 5.86544 22.0891C5.86525 22.0891 5.86525 22.0891 5.86525 22.0889Z" fill="#13C2C2"/>
<path d="M1.0212 23.9476C1.26308 24.0683 1.55697 23.9701 1.67782 23.7282L2.16744 22.749C2.29012 22.508 2.19436 22.2132 1.95339 22.0905C1.71242 21.9679 1.41762 22.0636 1.29476 22.3046C1.29366 22.3068 1.29256 22.309 1.29146 22.3114L0.80184 23.2906C0.680807 23.5325 0.778952 23.8266 1.02083 23.9474C1.02083 23.9476 1.02102 23.9476 1.0212 23.9476Z" fill="#13C2C2"/>
<path d="M17.8877 12.2461H19.8462V13.2253H17.8877V12.2461Z" fill="#13C2C2"/>
<path d="M15.9287 12.2461H16.908V13.2253H15.9287V12.2461Z" fill="#13C2C2"/>
</svg>
