<svg width="32" height="32" viewBox="0 0 32 32" fill="none" xmlns="http://www.w3.org/2000/svg">
<g clip-path="url(#clip0)">
<path d="M17.7059 21.1754C17.3695 21.0075 16.9605 21.1437 16.7926 21.4799C16.7923 21.4801 16.7923 21.4804 16.7923 21.4804L16.1114 22.842C15.9408 23.1769 16.0741 23.5868 16.409 23.7575C16.7442 23.9281 17.1541 23.7948 17.3246 23.4599C17.3263 23.4567 17.3277 23.4538 17.3294 23.4506L18.0101 22.089C18.1783 21.7528 18.0421 21.3439 17.7059 21.1757V21.1754Z" fill="#13C2C2"/>
<path d="M23.1509 21.1754C22.8148 21.0075 22.4058 21.1437 22.2376 21.4799C22.2376 21.4801 22.2376 21.4804 22.2374 21.4804L21.5567 22.842C21.3861 23.1769 21.5194 23.5868 21.8543 23.7575C22.1893 23.9281 22.5992 23.7948 22.7698 23.4599C22.7716 23.4567 22.773 23.4538 22.7745 23.4506L23.4554 22.089C23.6236 21.7528 23.4874 21.3439 23.1512 21.1757L23.1509 21.1754Z" fill="#13C2C2"/>
<path d="M27.6106 23.8255C27.8699 23.827 28.1074 23.681 28.2234 23.4491L28.9041 22.0875C29.0747 21.7525 28.9414 21.3426 28.6065 21.172C28.2715 21.0013 27.8616 21.1346 27.6909 21.4696C27.6895 21.4727 27.6878 21.4759 27.6863 21.4788L27.0056 22.8404C26.8374 23.1768 26.9739 23.5855 27.3101 23.7537C27.4036 23.8004 27.5064 23.825 27.6106 23.8255Z" fill="#13C2C2"/>
<path d="M11.882 23.4491L12.5626 22.0875C12.7335 21.7526 12.6002 21.3427 12.2653 21.172C11.9303 21.0013 11.5204 21.1344 11.3497 21.4696C11.348 21.4725 11.3463 21.4757 11.3449 21.4789L10.6642 22.8405C10.4935 23.1754 10.6266 23.5853 10.9616 23.756C11.2965 23.9267 11.7064 23.7936 11.8773 23.4586C11.8788 23.4555 11.8805 23.4523 11.882 23.4491Z" fill="#13C2C2"/>
<path d="M5.82715 23.8256C6.08497 23.8256 6.32105 23.6798 6.43629 23.4491L7.11695 22.0875C7.28785 21.7526 7.15455 21.3427 6.81959 21.172C6.48463 21.0013 6.07471 21.1344 5.90381 21.4696C5.90235 21.4725 5.90064 21.4757 5.89918 21.4789L5.21851 22.8405C5.0503 23.1769 5.18677 23.5856 5.5232 23.7538C5.61744 23.8009 5.72144 23.8256 5.82715 23.8256Z" fill="#13C2C2"/>
<path d="M14.7491 25.5648L14.0684 26.9264C13.8978 27.2614 14.0311 27.6713 14.3661 27.8419C14.701 28.0128 15.1109 27.8795 15.2816 27.5446C15.2833 27.5414 15.2848 27.5382 15.2862 27.5351L15.9671 26.1735C16.1378 25.8385 16.0045 25.4286 15.6695 25.2579C15.3346 25.0873 14.9246 25.2203 14.754 25.5555C14.7523 25.5585 14.7508 25.5617 14.7491 25.5648Z" fill="#13C2C2"/>
<path d="M20.1964 25.5648L19.5157 26.9263C19.3451 27.2613 19.4784 27.6712 19.8133 27.8419C20.1483 28.0125 20.5582 27.8792 20.7288 27.5443C20.7303 27.5413 20.732 27.5382 20.7335 27.535L21.4141 26.1734C21.5848 25.8385 21.4517 25.4285 21.1165 25.2579C20.7816 25.0872 20.3717 25.2205 20.201 25.5555C20.1995 25.5587 20.1978 25.5618 20.1964 25.5648Z" fill="#13C2C2"/>
<path d="M25.5697 27.9115C25.829 27.9129 26.0665 27.7669 26.1825 27.535L26.8631 26.1734C27.0338 25.8385 26.9005 25.4286 26.5655 25.2579C26.2306 25.0872 25.8207 25.2205 25.65 25.5555C25.6483 25.5587 25.6468 25.5619 25.6454 25.5648L24.9645 26.9264C24.7965 27.2628 24.933 27.6715 25.2691 27.8397C25.3626 27.8863 25.4654 27.911 25.5697 27.9115Z" fill="#13C2C2"/>
<path d="M9.8391 27.535L10.5198 26.1734C10.6904 25.8385 10.5574 25.4285 10.2224 25.2579C9.8872 25.0872 9.47729 25.2205 9.30663 25.5555C9.30517 25.5584 9.30346 25.5616 9.302 25.5648L8.62133 26.9264C8.45044 27.2613 8.58374 27.6712 8.9187 27.8419C9.25366 28.0128 9.66357 27.8795 9.83422 27.5445C9.83593 27.5413 9.83764 27.5382 9.8391 27.535Z" fill="#13C2C2"/>
<path d="M4.77015 25.2594C4.43397 25.0915 4.02503 25.2277 3.85682 25.5639C3.85682 25.5641 3.85657 25.5644 3.85657 25.5644L3.17591 26.9259C3.00525 27.2609 3.13831 27.6708 3.47352 27.8414C3.80848 28.0121 4.21839 27.879 4.38905 27.5441C4.39051 27.5409 4.39222 27.5377 4.39368 27.5346L5.07435 26.173C5.24281 25.8368 5.10658 25.4279 4.77039 25.2597L4.77015 25.2594Z" fill="#13C2C2"/>
<path d="M12.332 31.9279C12.6685 32.0956 13.0772 31.9591 13.2449 31.6229L13.9258 30.2614C14.0965 29.9264 13.9632 29.5165 13.6282 29.3458C13.2932 29.1752 12.8833 29.3082 12.7127 29.6434C12.711 29.6464 12.7095 29.6495 12.7078 29.6527L12.0271 31.0143C11.8589 31.3507 11.9954 31.7594 12.3316 31.9276C12.3318 31.9276 12.332 31.9279 12.332 31.9279Z" fill="#13C2C2"/>
<path d="M17.7774 31.9278C18.1135 32.0956 18.5222 31.9591 18.6902 31.6229L19.3711 30.2613C19.5418 29.9264 19.4085 29.5164 19.0735 29.3458C18.7383 29.1751 18.3284 29.3084 18.1577 29.6434C18.1563 29.6466 18.1546 29.6497 18.1531 29.6527L17.4724 31.0143C17.3042 31.3507 17.4407 31.7594 17.7769 31.9276C17.7771 31.9276 17.7771 31.9278 17.7774 31.9278Z" fill="#13C2C2"/>
<path d="M23.2227 31.9278C23.5589 32.0956 23.9676 31.9591 24.1356 31.6229L24.8162 30.2613C24.9869 29.9264 24.8536 29.5164 24.5186 29.3458C24.1837 29.1751 23.7737 29.3084 23.6031 29.6434C23.6016 29.6466 23.5999 29.6497 23.5984 29.6527L22.9178 31.0143C22.7496 31.3507 22.8858 31.7594 23.2222 31.9276C23.2222 31.9276 23.2225 31.9278 23.2227 31.9278Z" fill="#13C2C2"/>
<path d="M8.17464 29.3434C7.83822 29.1754 7.42928 29.3117 7.26131 29.6479C7.26107 29.6481 7.26107 29.6483 7.26107 29.6483L6.58016 31.0099C6.40951 31.3449 6.54281 31.7548 6.87777 31.9255C7.21273 32.0964 7.62264 31.9631 7.79329 31.6281C7.795 31.6249 7.79647 31.6218 7.79818 31.6186L8.47884 30.257C8.6473 29.9208 8.51107 29.5119 8.17489 29.3437C8.17464 29.3437 8.17464 29.3434 8.17464 29.3434Z" fill="#13C2C2"/>
<path d="M1.43946 31.9278C1.77565 32.0956 2.18434 31.9591 2.35231 31.6229L3.03297 30.2613C3.20363 29.9264 3.07057 29.5164 2.73561 29.3458C2.4004 29.1751 1.99049 29.3084 1.81984 29.6434C1.81837 29.6466 1.81666 29.6497 1.8152 29.6527L1.13453 31.0143C0.96632 31.3507 1.10279 31.7594 1.43898 31.9276C1.43898 31.9276 1.43922 31.9278 1.43946 31.9278Z" fill="#13C2C2"/>
<path d="M25.9094 8.16895H24.8884V7.48828C24.8884 3.35254 21.5359 0 17.4002 0C13.2647 0 9.91187 3.35254 9.91187 7.48828V8.16895H8.89087C6.07105 8.16895 3.78516 10.4548 3.78516 13.2747C3.78516 16.0942 6.07105 18.3801 8.89087 18.3801H25.9094C28.7293 18.3801 31.0151 16.0942 31.0151 13.2747C31.0151 10.4548 28.7293 8.16895 25.9094 8.16895ZM12.635 7.48828H11.2734C11.2717 4.69361 13.1624 2.2522 15.8684 1.55469L16.209 2.8728C14.1043 3.41602 12.6343 5.3147 12.635 7.48828ZM23.5269 17.0186H22.1653V15.6572H23.5269V17.0186ZM27.6113 17.0186H24.8884V15.6572H27.6113V17.0186Z" fill="#13C2C2"/>
</g>
<defs>
<clipPath id="clip0">
<rect width="32" height="32" fill="white"/>
</clipPath>
</defs>
</svg>
