<svg width="32" height="32" viewBox="0 0 32 32" fill="none" xmlns="http://www.w3.org/2000/svg">
<g clip-path="url(#clip0)">
<path d="M27.3167 4.68628C26.9506 4.32015 26.357 4.32015 25.9908 4.68628C25.6247 5.0524 25.6247 5.64596 25.9908 6.01209C28.6568 8.67803 30.125 12.2252 30.125 16C30.125 19.7748 28.6568 23.3219 25.9908 25.9878C25.6247 26.3539 25.6247 26.9475 25.9908 27.3137C26.3576 27.6804 26.9512 27.6792 27.3167 27.3137C30.3368 24.2936 32 20.2757 32 16C32 11.7243 30.3368 7.70634 27.3167 4.68628Z" fill="#BFBFBF"/>
<path d="M24.4778 7.52491C24.1117 7.15885 23.5181 7.15885 23.152 7.52491C22.786 7.89104 22.786 8.4846 23.152 8.85073C25.0604 10.7589 26.1114 13.2979 26.1114 15.9999C26.1114 18.7019 25.0604 21.2409 23.152 23.1491C22.7859 23.5152 22.7859 24.1088 23.152 24.4749C23.518 24.8409 24.1116 24.8411 24.4778 24.4749C26.7404 22.2125 27.9864 19.2027 27.9864 15.9999C27.9864 12.797 26.7403 9.78723 24.4778 7.52491Z" fill="#BFBFBF"/>
<path d="M21.637 10.3657C21.2709 9.99967 20.6773 9.99967 20.3112 10.3657C19.9451 10.7319 19.9452 11.3255 20.3112 11.6915C21.4612 12.8414 22.0945 14.3715 22.0945 15.9999C22.0945 17.6283 21.4612 19.1584 20.3112 20.3083C19.9451 20.6743 19.9451 21.268 20.3112 21.6341C20.6773 22.0002 21.2708 22.0003 21.637 21.6341C23.1412 20.13 23.9695 18.1291 23.9695 15.9999C23.9695 13.8706 23.1412 11.8698 21.637 10.3657Z" fill="#BFBFBF"/>
<path d="M1.875 16.0003C1.875 12.2255 3.34319 8.67837 6.00919 6.01243C6.37531 5.64637 6.37531 5.05274 6.00919 4.68662C5.64313 4.32056 5.04956 4.32049 4.68337 4.68662C1.66325 7.70668 0 11.7246 0 16.0003C0 20.276 1.66325 24.2939 4.68337 27.314C5.04938 27.6801 5.64306 27.6802 6.00919 27.314C6.37531 26.9479 6.37531 26.3543 6.00919 25.9882C3.34319 23.3222 1.875 19.7751 1.875 16.0003Z" fill="#BFBFBF"/>
<path d="M5.88867 16C5.88867 13.298 6.93961 10.7591 8.84798 8.85081C9.21411 8.48469 9.21411 7.89112 8.84798 7.525C8.48192 7.15887 7.8883 7.15894 7.52217 7.525C5.25967 9.78731 4.01367 12.7972 4.01367 16C4.01367 19.2028 5.25967 22.2127 7.52217 24.4751C7.8888 24.8416 8.48236 24.8407 8.84798 24.4751C9.21405 24.1089 9.21405 23.5154 8.84798 23.1492C6.93961 21.241 5.88867 18.702 5.88867 16Z" fill="#BFBFBF"/>
<path d="M11.6888 10.3658C11.3227 9.99972 10.7291 9.99972 10.363 10.3658C8.85883 11.8699 8.03046 13.8708 8.03046 16.0001C8.03046 18.1293 8.85883 20.1303 10.363 21.6343C10.7296 22.0009 11.3231 22 11.6888 21.6343C12.0549 21.2682 12.0548 20.6746 11.6888 20.3085C10.5388 19.1587 9.90545 17.6285 9.90545 16.0002C9.90545 14.3718 10.5388 12.8417 11.6888 11.6918C12.0548 11.3256 12.0548 10.732 11.6888 10.3658Z" fill="#BFBFBF"/>
<path d="M16 12.0499C13.8219 12.0499 12.05 13.8219 12.05 15.9999C12.05 18.1779 13.822 19.9499 16 19.9499C18.178 19.9499 19.95 18.1779 19.95 15.9999C19.95 13.8219 18.178 12.0499 16 12.0499Z" fill="#BFBFBF"/>
</g>
<defs>
<clipPath id="clip0">
<rect width="32" height="32" fill="white"/>
</clipPath>
</defs>
</svg>
