<svg width="32" height="32" viewBox="0 0 32 32" fill="none" xmlns="http://www.w3.org/2000/svg">
<g clip-path="url(#clip0)">
<path d="M27.3167 4.6867C26.9507 4.32058 26.357 4.32058 25.9909 4.6867C25.6248 5.05283 25.6248 5.64639 25.9909 6.01252C28.6569 8.67845 30.1251 12.2256 30.1251 16.0004C30.1251 19.7752 28.6569 23.3223 25.9909 25.9883C25.6248 26.3543 25.6248 26.948 25.9909 27.3141C26.3577 27.6808 26.9512 27.6796 27.3167 27.3141C30.3368 24.294 32.0001 20.2761 32.0001 16.0004C32.0001 11.7247 30.3368 7.70677 27.3167 4.6867Z" fill="#00979D"/>
<path d="M24.4778 7.52455C24.1117 7.15848 23.5181 7.15848 23.152 7.52455C22.786 7.89067 22.786 8.48423 23.152 8.85036C25.0604 10.7585 26.1114 13.2975 26.1114 15.9995C26.1114 18.7015 25.0604 21.2405 23.152 23.1487C22.7859 23.5149 22.7859 24.1084 23.152 24.4745C23.518 24.8405 24.1116 24.8407 24.4778 24.4745C26.7404 22.2122 27.9864 19.2024 27.9864 15.9995C27.9864 12.7966 26.7403 9.78686 24.4778 7.52455Z" fill="#00979D"/>
<path d="M21.637 10.3663C21.2709 10.0003 20.6773 10.0003 20.3112 10.3663C19.9451 10.7325 19.9452 11.3261 20.3112 11.6922C21.4612 12.842 22.0945 14.3722 22.0945 16.0005C22.0945 17.6289 21.4612 19.159 20.3112 20.3089C19.9451 20.675 19.9451 21.2686 20.3112 21.6347C20.6773 22.0008 21.2708 22.0009 21.637 21.6347C23.1412 20.1306 23.9695 18.1297 23.9695 16.0005C23.9695 13.8712 23.1412 11.8704 21.637 10.3663Z" fill="#00979D"/>
<path d="M1.875 16.0004C1.875 12.2256 3.34319 8.67843 6.00919 6.01249C6.37531 5.64643 6.37531 5.0528 6.00919 4.68668C5.64313 4.32062 5.04956 4.32055 4.68337 4.68668C1.66325 7.70674 0 11.7247 0 16.0004C0 20.2761 1.66325 24.294 4.68337 27.3141C5.04938 27.6801 5.64306 27.6802 6.00919 27.3141C6.37531 26.9479 6.37531 26.3544 6.00919 25.9882C3.34319 23.3223 1.875 19.7752 1.875 16.0004Z" fill="#00979D"/>
<path d="M5.88867 15.9996C5.88867 13.2976 6.93961 10.7586 8.84798 8.85038C9.21411 8.48426 9.21411 7.8907 8.84798 7.52457C8.48192 7.15845 7.8883 7.15851 7.52217 7.52457C5.25967 9.78688 4.01367 12.7968 4.01367 15.9996C4.01367 19.2024 5.25967 22.2123 7.52217 24.4746C7.8888 24.8412 8.48236 24.8403 8.84798 24.4746C9.21405 24.1085 9.21405 23.5149 8.84798 23.1488C6.93961 21.2406 5.88867 18.7016 5.88867 15.9996Z" fill="#00979D"/>
<path d="M11.6888 10.3664C11.3228 10.0003 10.7291 10.0003 10.363 10.3664C8.85889 11.8705 8.03052 13.8714 8.03052 16.0006C8.03052 18.1299 8.85889 20.1308 10.363 21.6349C10.7296 22.0015 11.3232 22.0005 11.6888 21.6349C12.055 21.2688 12.0549 20.6751 11.6888 20.3091C10.5388 19.1592 9.90552 17.6291 9.90552 16.0007C9.90552 14.3723 10.5388 12.8422 11.6888 11.6923C12.0549 11.3261 12.0549 10.7325 11.6888 10.3664Z" fill="#00979D"/>
<path d="M16 12.0508C13.822 12.0508 12.05 13.8228 12.05 16.0008C12.05 18.1788 13.822 19.9508 16 19.9508C18.178 19.9508 19.95 18.1788 19.95 16.0008C19.95 13.8228 18.1781 12.0508 16 12.0508Z" fill="#00979D"/>
</g>
<defs>
<clipPath id="clip0">
<rect width="32" height="32" fill="white"/>
</clipPath>
</defs>
</svg>
