<svg width="32" height="32" viewBox="0 0 32 32" fill="none" xmlns="http://www.w3.org/2000/svg">
<g clip-path="url(#clip0)">
<path d="M16.8603 10.1948C13.6544 9.728 10.6769 11.9486 10.2104 15.1548C9.74363 18.3608 11.9643 21.3379 15.1704 21.8047C18.3752 22.2713 21.3519 20.0521 21.8199 16.8476C22.2852 13.6414 20.0658 10.6642 16.8603 10.1948ZM12.0133 17.5839C11.7282 17.6579 11.4372 17.4868 11.3632 17.2016C10.7368 14.7747 12.0817 12.2741 14.452 11.4591C14.7295 11.3608 15.0345 11.506 15.1328 11.7838C15.2312 12.0614 15.0857 12.3661 14.8081 12.4645C14.8052 12.4655 14.8023 12.4667 14.7991 12.4677C12.9554 13.1012 11.9088 15.0459 12.3956 16.9338C12.4696 17.2189 12.2985 17.51 12.0133 17.5839ZM15.2737 20.2354C15.2056 20.46 14.9983 20.6136 14.7635 20.6136C14.711 20.6136 14.6585 20.6058 14.6082 20.5902C13.8211 20.3499 13.109 19.911 12.5406 19.3156C12.3373 19.1024 12.3453 18.7648 12.5582 18.5614C12.7714 18.3581 13.109 18.3661 13.3123 18.579C13.7535 19.0429 14.3067 19.3849 14.9187 19.5726C15.1992 19.6583 15.3579 19.9544 15.2737 20.2354Z" fill="#FADB14"/>
<path d="M22.6797 11.5502L29.6145 7.5625L30.146 8.48703L23.2114 12.4747L22.6797 11.5502Z" fill="#FADB14"/>
<path d="M15.4922 7.99923L15.5081 0L16.5747 0.00219718L16.5588 8.00142L15.4922 7.99923Z" fill="#FADB14"/>
<path d="M1.90234 8.43649L2.43724 7.51367L9.35813 11.5255L8.82323 12.4481L1.90234 8.43649Z" fill="#FADB14"/>
<path d="M1.87695 23.5118L8.81079 19.5234L9.34275 20.448L2.40892 24.4364L1.87695 23.5118Z" fill="#FADB14"/>
<path d="M15.4492 31.9973L15.4651 23.998L16.5317 24L16.5158 31.9995L15.4492 31.9973Z" fill="#FADB14"/>
<path d="M22.6641 20.4716L23.199 19.5488L30.1201 23.5604L29.5852 24.4832L22.6641 20.4716Z" fill="#FADB14"/>
<path d="M19.5469 8.80357L21.9462 4.64648L22.87 5.17967L20.4707 9.33675L19.5469 8.80357Z" fill="#FADB14"/>
<path d="M9.14844 5.18162L10.0715 4.64844L12.4723 8.80455L11.5492 9.33773L9.14844 5.18162Z" fill="#FADB14"/>
<path d="M3.21289 15.4668H8.01253V16.5334H3.21289V15.4668Z" fill="#FADB14"/>
<path d="M9.15234 26.817L11.5517 22.6602L12.4755 23.1933L10.0761 27.3502L9.15234 26.817Z" fill="#FADB14"/>
<path d="M19.5508 23.1914L20.4738 22.6582L22.8746 26.8141L21.9516 27.3473L19.5508 23.1914Z" fill="#FADB14"/>
<path d="M24.0098 15.4648H28.8094V16.5315H24.0098V15.4648Z" fill="#FADB14"/>
</g>
<defs>
<clipPath id="clip0">
<rect width="32" height="32" fill="white"/>
</clipPath>
</defs>
</svg>
