<svg width="24" height="24" viewBox="0 0 24 24" fill="none" xmlns="http://www.w3.org/2000/svg">
<g clip-path="url(#clip0)">
<path d="M13.1998 16.2727V3.60007C13.1998 3.49381 13.1574 3.3919 13.0822 3.31684C13.0115 3.23589 12.907 3.19263 12.7998 3.20003L11.1996 3.20524C10.9787 3.20524 10.7996 3.38435 10.7996 3.60527V16.2723C9.40187 16.9342 8.80547 18.6039 9.46738 20.0016C9.83931 20.787 10.5548 21.3552 11.404 21.5395C11.5986 21.5803 11.7969 21.601 11.9957 21.6015C13.5422 21.6021 14.7964 20.3488 14.7969 18.8023C14.7973 17.7216 14.1757 16.737 13.1998 16.2727ZM13.8859 19.4669C13.763 19.8147 13.5462 20.1217 13.2594 20.3538V20.353C12.7854 20.7363 12.1632 20.8843 11.5673 20.7555C10.4889 20.5163 9.80845 19.4482 10.0476 18.3697C10.1968 17.6971 10.6816 17.1485 11.3309 16.9179C11.4914 16.8622 11.5993 16.7111 11.5997 16.5411V4.0041L12.3998 4.0001V16.5411C12.3998 16.7113 12.5075 16.8627 12.6682 16.9187C13.7081 17.2861 14.2533 18.427 13.8859 19.4669Z" fill="#F5222D"/>
<path d="M16.3821 15.9987C15.9758 15.3629 15.436 14.8231 14.8002 14.4168V12.001H16.0002C16.2212 12.001 16.4003 11.8219 16.4003 11.601C16.4003 11.38 16.2212 11.2009 16.0002 11.2009H14.8002V10.4009H16.0002C16.2212 10.4009 16.4003 10.2217 16.4003 10.0008C16.4003 9.7799 16.2212 9.60079 16.0002 9.60079H14.8002V8.80072H16.0002C16.2212 8.80072 16.4003 8.62161 16.4003 8.40069C16.4003 8.17977 16.2212 8.00066 16.0002 8.00066H14.8002V7.20059H16.0002C16.2212 7.20059 16.4003 7.02148 16.4003 6.80056C16.4003 6.57964 16.2212 6.40053 16.0002 6.40053H14.8002V5.60046H16.0002C16.2212 5.60046 16.4003 5.42135 16.4003 5.20043C16.4003 4.97951 16.2212 4.80039 16.0002 4.80039H14.8002V2.80023C14.7984 1.25445 13.5457 0.00175014 11.9999 0C10.4541 0.00175014 9.20144 1.25445 9.19969 2.80023V14.4168C6.77949 15.9633 6.07123 19.179 7.61776 21.5992C9.16429 24.0194 12.38 24.7276 14.8002 23.1811C17.2204 21.6345 17.9286 18.4189 16.3821 15.9987ZM11.9999 23.2019C9.56967 23.2049 7.59716 21.2371 7.59421 18.8069C7.59231 17.2307 8.43358 15.7738 9.79974 14.9876C9.9235 14.9162 9.99976 14.7841 9.99976 14.6412V2.80023C10.0011 1.69614 10.8958 0.801366 11.9999 0.800066C13.1038 0.802066 13.9981 1.69639 14.0001 2.80023V14.6412C14.0001 14.7841 14.0763 14.9162 14.2001 14.9876C16.3065 16.1998 17.0314 18.89 15.8192 20.9964C15.033 22.3625 13.5761 23.2038 11.9999 23.2019Z" fill="#F5222D"/>
</g>
<defs>
<clipPath id="clip0">
<rect width="24" height="24" fill="white"/>
</clipPath>
</defs>
</svg>
