<svg width="16" height="16" viewBox="0 0 16 16" fill="none" xmlns="http://www.w3.org/2000/svg">
<path fill-rule="evenodd" clip-rule="evenodd" d="M8.29099 7.34817L7.02966 6.08683L5.38833 4.44483L4.35433 3.4115L3.13832 2.1955C2.87766 1.93483 2.45566 1.93483 2.19499 2.1955C1.93499 2.4555 1.93499 2.8775 2.19499 3.13817L3.11232 4.0555L4.08632 5.02883L5.57566 6.51817L6.60633 7.54883L8.43233 9.37483L10.2943 11.2368L12.8617 13.8048C12.9923 13.9348 13.163 14.0002 13.333 14.0002C13.5037 14.0002 13.6743 13.9348 13.805 13.8048C14.065 13.5442 14.065 13.1222 13.805 12.8622L8.29099 7.34817ZM7.99999 11.9998C7.63133 11.9998 7.33333 12.2985 7.33333 12.6665C7.33333 13.0345 7.63133 13.3332 7.99999 13.3332C8.36866 13.3332 8.66666 13.0345 8.66666 12.6665C8.66666 12.2985 8.36866 11.9998 7.99999 11.9998ZM7.99972 2.66663C10.4317 2.66663 12.7337 3.59663 14.4831 5.28597C14.7477 5.5413 14.7551 5.96397 14.4997 6.22863C14.3691 6.36397 14.1944 6.43197 14.0204 6.43197C13.8537 6.43197 13.6864 6.36997 13.5571 6.24463C12.0571 4.7973 10.0837 3.99997 7.99972 3.99997C7.35772 3.99997 6.72772 4.08463 6.11706 4.2313L5.04039 3.15463C5.98439 2.83997 6.97906 2.66663 7.99972 2.66663ZM2.54946 4.43503C2.19012 4.69503 1.84146 4.97303 1.51679 5.2857C1.25212 5.5417 1.24479 5.9637 1.50012 6.22837C1.75612 6.4937 2.17946 6.50103 2.44279 6.24503C2.77346 5.9257 3.13079 5.6437 3.50412 5.38903L2.54946 4.43503ZM11.8368 8.96163C11.6621 8.96163 11.4875 8.89363 11.3568 8.7583C10.8288 8.21097 10.1721 7.80763 9.45746 7.5723L7.89146 6.00563C7.90817 6.00532 7.92488 6.00401 7.94166 6.00269H7.94167H7.94168C7.96104 6.00116 7.98049 5.99963 8.00013 5.99963C9.61879 5.99963 11.1921 6.66763 12.3161 7.83163C12.5715 8.09697 12.5648 8.51897 12.2995 8.7743C12.1708 8.89963 12.0035 8.96163 11.8368 8.96163ZM4.95439 6.84003C4.49172 7.11203 4.06039 7.44137 3.68372 7.83203C3.42839 8.0967 3.43572 8.51937 3.70039 8.7747C3.96439 9.0307 4.38706 9.02337 4.64306 8.75803C5.01773 8.37003 5.45906 8.0587 5.93706 7.8227L4.95439 6.84003ZM5.66819 11.2114C5.41286 10.9467 5.42019 10.5247 5.68486 10.2687C6.18619 9.78403 6.81752 9.4847 7.49619 9.38137L9.17419 11.06C8.41286 10.5167 7.29419 10.568 6.61086 11.2274C6.34686 11.484 5.92419 11.4767 5.66819 11.2114Z" fill="#F5222D"/>
<mask id="mask0" mask-type="alpha" maskUnits="userSpaceOnUse" x="1" y="2" width="14" height="13">
<path fill-rule="evenodd" clip-rule="evenodd" d="M8.29099 7.34817L7.02966 6.08683L5.38833 4.44483L4.35433 3.4115L3.13832 2.1955C2.87766 1.93483 2.45566 1.93483 2.19499 2.1955C1.93499 2.4555 1.93499 2.8775 2.19499 3.13817L3.11232 4.0555L4.08632 5.02883L5.57566 6.51817L6.60633 7.54883L8.43233 9.37483L10.2943 11.2368L12.8617 13.8048C12.9923 13.9348 13.163 14.0002 13.333 14.0002C13.5037 14.0002 13.6743 13.9348 13.805 13.8048C14.065 13.5442 14.065 13.1222 13.805 12.8622L8.29099 7.34817ZM7.99999 11.9998C7.63133 11.9998 7.33333 12.2985 7.33333 12.6665C7.33333 13.0345 7.63133 13.3332 7.99999 13.3332C8.36866 13.3332 8.66666 13.0345 8.66666 12.6665C8.66666 12.2985 8.36866 11.9998 7.99999 11.9998ZM7.99972 2.66663C10.4317 2.66663 12.7337 3.59663 14.4831 5.28597C14.7477 5.5413 14.7551 5.96397 14.4997 6.22863C14.3691 6.36397 14.1944 6.43197 14.0204 6.43197C13.8537 6.43197 13.6864 6.36997 13.5571 6.24463C12.0571 4.7973 10.0837 3.99997 7.99972 3.99997C7.35772 3.99997 6.72772 4.08463 6.11706 4.2313L5.04039 3.15463C5.98439 2.83997 6.97906 2.66663 7.99972 2.66663ZM2.54946 4.43503C2.19012 4.69503 1.84146 4.97303 1.51679 5.2857C1.25212 5.5417 1.24479 5.9637 1.50012 6.22837C1.75612 6.4937 2.17946 6.50103 2.44279 6.24503C2.77346 5.9257 3.13079 5.6437 3.50412 5.38903L2.54946 4.43503ZM11.8368 8.96163C11.6621 8.96163 11.4875 8.89363 11.3568 8.7583C10.8288 8.21097 10.1721 7.80763 9.45746 7.5723L7.89146 6.00563C7.90817 6.00532 7.92488 6.00401 7.94166 6.00269H7.94167H7.94168C7.96104 6.00116 7.98049 5.99963 8.00013 5.99963C9.61879 5.99963 11.1921 6.66763 12.3161 7.83163C12.5715 8.09697 12.5648 8.51897 12.2995 8.7743C12.1708 8.89963 12.0035 8.96163 11.8368 8.96163ZM4.95439 6.84003C4.49172 7.11203 4.06039 7.44137 3.68372 7.83203C3.42839 8.0967 3.43572 8.51937 3.70039 8.7747C3.96439 9.0307 4.38706 9.02337 4.64306 8.75803C5.01773 8.37003 5.45906 8.0587 5.93706 7.8227L4.95439 6.84003ZM5.66819 11.2114C5.41286 10.9467 5.42019 10.5247 5.68486 10.2687C6.18619 9.78403 6.81752 9.4847 7.49619 9.38137L9.17419 11.06C8.41286 10.5167 7.29419 10.568 6.61086 11.2274C6.34686 11.484 5.92419 11.4767 5.66819 11.2114Z" fill="white"/>
</mask>
<g mask="url(#mask0)">
</g>
</svg>
