<svg width="24" height="24" viewBox="0 0 24 24" fill="none" xmlns="http://www.w3.org/2000/svg">
<path d="M11.7732 6.77874H7.24481C6.99487 6.77874 6.79199 6.98144 6.79199 7.23156C6.79199 7.48169 6.99487 7.68438 7.24481 7.68438H11.7732C12.7735 7.68457 13.5845 6.87359 13.5847 5.87329C13.5847 5.8645 13.5845 5.85571 13.5845 5.84692C13.5706 4.84661 12.7486 4.04681 11.7483 4.06073C10.9893 4.07116 10.3175 4.55365 10.065 5.26959C9.98187 5.50543 10.1055 5.76397 10.3413 5.84729C10.5771 5.9306 10.8359 5.807 10.9192 5.57116C11.0854 5.0993 11.6027 4.85174 12.0744 5.01818C12.4324 5.14434 12.6737 5.48053 12.6788 5.85992C12.686 6.36016 12.2864 6.77142 11.7864 6.77874C11.782 6.77874 11.7776 6.77874 11.7732 6.77874Z" fill="#A0D911"/>
<path d="M0.45282 9.49512H11.7735C13.7741 9.49493 15.3957 7.8728 15.3955 5.87201C15.3951 3.8714 13.773 2.24982 11.7724 2.25C10.3735 2.25018 9.09961 3.05585 8.49994 4.31982C8.39795 4.54816 8.50049 4.81604 8.72882 4.91803C8.94965 5.01654 9.20892 4.92426 9.31769 4.70837C9.96075 3.35266 11.5811 2.77478 12.9368 3.41766C14.2927 4.06073 14.8705 5.68103 14.2275 7.03674C13.778 7.98486 12.8227 8.58929 11.7735 8.58948H0.45282C0.202698 8.58948 0 8.79236 0 9.0423C0 9.29242 0.202698 9.49512 0.45282 9.49512Z" fill="#A0D911"/>
<path d="M20.3907 19.004C19.999 19.0198 19.6447 18.7731 19.5235 18.4003C19.4402 18.1645 19.1815 18.0409 18.9456 18.1242C18.7098 18.2075 18.5862 18.4661 18.6695 18.7019C18.9253 19.4259 19.6097 19.9099 20.3775 19.9097H20.4037C21.3809 19.889 22.1681 19.1018 22.1888 18.1246C22.2032 17.1245 21.4042 16.3018 20.4039 16.2873C20.3951 16.2871 20.3863 16.2871 20.3775 16.2871H15.8493C15.5992 16.2871 15.3965 16.4898 15.3965 16.7399C15.3965 16.9901 15.5992 17.1927 15.8493 17.1927H20.3775C20.8777 17.1927 21.2831 17.5981 21.2833 18.0982C21.2833 18.1026 21.2831 18.107 21.2831 18.1116C21.2674 18.5977 20.8768 18.9883 20.3907 19.004Z" fill="#A0D911"/>
<path d="M10.4147 14.4766C10.1646 14.4766 9.96191 14.6793 9.96191 14.9294C9.96191 15.1793 10.1646 15.3822 10.4147 15.3822H20.3768C21.8773 15.3826 23.0933 16.5993 23.093 18.0999C23.0924 19.6004 21.8757 20.8164 20.3751 20.816C19.3259 20.8157 18.3707 20.2112 17.9211 19.2633C17.8192 19.035 17.5513 18.9324 17.3229 19.0346C17.0946 19.1366 16.9922 19.4043 17.0942 19.6326C17.0972 19.639 17.1001 19.6454 17.1034 19.6519C17.9609 21.4595 20.1213 22.2296 21.929 21.3721C23.7366 20.5145 24.5067 18.354 23.6492 16.5464C23.0496 15.2824 21.7757 14.4767 20.3768 14.4766H10.4147Z" fill="#A0D911"/>
<path d="M8.15094 11.7595C8.15094 11.5093 7.94824 11.3066 7.69812 11.3066H3.62274C3.37262 11.3066 3.16992 11.5093 3.16992 11.7595C3.16992 12.0094 3.37262 12.2123 3.62274 12.2123H7.69812C7.94824 12.2123 8.15094 12.0094 8.15094 11.7595Z" fill="#A0D911"/>
<path d="M9.50946 12.2123H10.8681C11.118 12.2123 11.3209 12.0094 11.3209 11.7595C11.3209 11.5093 11.118 11.3066 10.8681 11.3066H9.50946C9.25952 11.3066 9.05664 11.5093 9.05664 11.7595C9.05664 12.0094 9.25952 12.2123 9.50946 12.2123Z" fill="#A0D911"/>
<path d="M12.2266 11.7595C12.2266 12.0094 12.4293 12.2123 12.6794 12.2123H18.1132C18.3633 12.2123 18.566 12.0094 18.566 11.7595C18.566 11.5093 18.3633 11.3066 18.1132 11.3066H12.6794C12.4293 11.3065 12.2266 11.5093 12.2266 11.7595Z" fill="#A0D911"/>
<path d="M4.07489 7.68298H5.43335C5.68347 7.68298 5.88617 7.48029 5.88617 7.23016C5.88617 6.98022 5.68347 6.77734 5.43335 6.77734H4.07489C3.82477 6.77734 3.62207 6.98022 3.62207 7.23016C3.62207 7.48029 3.82477 7.68298 4.07489 7.68298Z" fill="#A0D911"/>
<path d="M0.45282 7.68298H2.2641C2.51422 7.68298 2.71692 7.48029 2.71692 7.23016C2.71692 6.98022 2.51422 6.77734 2.2641 6.77734H0.45282C0.202698 6.77734 0 6.98004 0 7.23016C0 7.48029 0.202698 7.68298 0.45282 7.68298Z" fill="#A0D911"/>
<path d="M0.45282 12.2123H1.81128C2.0614 12.2123 2.2641 12.0094 2.2641 11.7595C2.2641 11.5093 2.0614 11.3066 1.81128 11.3066H0.45282C0.202698 11.3065 0 11.5093 0 11.7595C0 12.0094 0.202698 12.2123 0.45282 12.2123Z" fill="#A0D911"/>
<path d="M14.4907 16.7399C14.4907 16.4898 14.2878 16.2871 14.0378 16.2871H12.6794C12.4293 16.2871 12.2266 16.4898 12.2266 16.7399C12.2266 16.9901 12.4293 17.1927 12.6794 17.1927H14.0378C14.288 17.1927 14.4907 16.9901 14.4907 16.7399Z" fill="#A0D911"/>
<path d="M11.3209 16.7399C11.3209 16.4898 11.118 16.2871 10.8681 16.2871H9.50946C9.25952 16.2871 9.05664 16.4898 9.05664 16.7399C9.05664 16.9901 9.25952 17.1927 9.50946 17.1927H10.8681C11.118 17.1927 11.3209 16.9901 11.3209 16.7399Z" fill="#A0D911"/>
<path d="M9.05609 14.9294C9.05609 14.6793 8.85339 14.4766 8.60327 14.4766H7.24481C6.99487 14.4766 6.79199 14.6793 6.79199 14.9294C6.79199 15.1795 6.99487 15.3822 7.24481 15.3822H8.60327C8.85339 15.3822 9.05609 15.1793 9.05609 14.9294Z" fill="#A0D911"/>
<path d="M4.52802 14.4766C4.27789 14.4766 4.0752 14.6793 4.0752 14.9294C4.0752 15.1793 4.27789 15.3822 4.52802 15.3822H5.43365C5.68378 15.3822 5.88647 15.1793 5.88647 14.9294C5.88647 14.6793 5.68378 14.4766 5.43365 14.4766H4.52802Z" fill="#A0D911"/>
<path d="M8.15057 16.7399C8.15057 16.4898 7.94788 16.2871 7.69775 16.2871H4.52802C4.27789 16.2871 4.0752 16.4898 4.0752 16.7399C4.0752 16.9901 4.27789 17.1927 4.52802 17.1927H7.69775C7.94788 17.1927 8.15057 16.9901 8.15057 16.7399Z" fill="#A0D911"/>
</svg>
