<svg width="40" height="40" viewBox="0 0 40 40" fill="none" xmlns="http://www.w3.org/2000/svg">
<circle cx="20" cy="20" r="19.5" fill="white" stroke="#E8E8E8"/>
<path d="M28.625 10.625H11.375C10.9602 10.625 10.625 10.9602 10.625 11.375V28.625C10.625 29.0398 10.9602 29.375 11.375 29.375H28.625C29.0398 29.375 29.375 29.0398 29.375 28.625V11.375C29.375 10.9602 29.0398 10.625 28.625 10.625ZM27.6875 27.6875H12.3125V12.3125H27.6875V27.6875ZM15.9688 24.0078V25.8125C15.9688 25.9156 16.0531 26 16.1562 26H17.2812C17.3844 26 17.4688 25.9156 17.4688 25.8125V24.0078C17.232 24.0852 16.9812 24.125 16.7188 24.125C16.4563 24.125 16.2055 24.0828 15.9688 24.0078ZM17.4688 19.3672V14.1875C17.4688 14.0844 17.3844 14 17.2812 14H16.1562C16.0531 14 15.9688 14.0844 15.9688 14.1875V19.3672C16.2055 19.2898 16.4563 19.25 16.7188 19.25C16.9812 19.25 17.232 19.2922 17.4688 19.3672ZM15.9688 24.0078C16.2055 24.0852 16.4563 24.125 16.7188 24.125C16.9812 24.125 17.232 24.0828 17.4688 24.0078C18.4484 23.6914 19.1562 22.7727 19.1562 21.6875C19.1562 20.6023 18.4484 19.6836 17.4688 19.3672C17.232 19.2898 16.9812 19.25 16.7188 19.25C16.4563 19.25 16.2055 19.2922 15.9688 19.3672C14.9891 19.6836 14.2812 20.6023 14.2812 21.6875C14.2812 22.7727 14.9891 23.6914 15.9688 24.0078ZM15.9711 21.2961C15.9781 21.282 15.9875 21.268 15.9945 21.2539V21.2516L16.0227 21.2094C16.025 21.2047 16.0273 21.2023 16.0297 21.1977C16.0367 21.1859 16.0461 21.1766 16.0531 21.1648C16.0555 21.1625 16.0578 21.1578 16.0602 21.1555C16.0719 21.1414 16.0812 21.1297 16.093 21.118L16.1 21.1109L16.1281 21.0828L16.1375 21.0734C16.1492 21.0617 16.1609 21.0523 16.175 21.0406C16.1891 21.0289 16.2008 21.0195 16.2148 21.0102C16.2195 21.0078 16.2219 21.0055 16.2266 21.0031C16.2383 20.9961 16.2477 20.9867 16.2594 20.9797C16.2617 20.9773 16.2664 20.975 16.2687 20.9727C16.2828 20.9633 16.2969 20.9563 16.3133 20.9469C16.3156 20.9445 16.3203 20.9445 16.3227 20.9422C16.3344 20.9352 16.3461 20.9305 16.3602 20.9234L16.3742 20.9164C16.3906 20.9094 16.4047 20.9023 16.4211 20.8977C16.4375 20.8906 16.4539 20.8859 16.4703 20.8812C16.475 20.8789 16.4797 20.8789 16.4844 20.8766C16.4984 20.8719 16.5102 20.8695 16.5242 20.8672C16.5289 20.8672 16.5313 20.8648 16.5359 20.8648C16.5523 20.8602 16.5711 20.8578 16.5875 20.8555C16.5922 20.8555 16.5945 20.8555 16.5992 20.8531C16.6133 20.8508 16.6273 20.8508 16.6414 20.8484H16.6555C16.6742 20.8484 16.6906 20.8461 16.7094 20.8461C16.7281 20.8461 16.7445 20.8461 16.7633 20.8484H16.7773C16.7914 20.8484 16.8055 20.8508 16.8195 20.8531C16.8242 20.8531 16.8266 20.8531 16.8312 20.8555C16.8477 20.8578 16.8664 20.8602 16.8828 20.8648C16.8875 20.8648 16.8898 20.8672 16.8945 20.8672C16.9086 20.8695 16.9227 20.8742 16.9344 20.8766C16.9391 20.8789 16.9437 20.8789 16.9484 20.8812C16.9648 20.8859 16.9812 20.8906 16.9977 20.8977C17.0141 20.9023 17.0281 20.9094 17.0445 20.9164L17.0586 20.9234C17.0703 20.9281 17.0844 20.9352 17.0961 20.9422C17.0984 20.9445 17.1031 20.9445 17.1055 20.9469C17.1195 20.9539 17.1359 20.9633 17.15 20.9727C17.1523 20.975 17.157 20.9773 17.1594 20.9797C17.1711 20.9867 17.1828 20.9937 17.1922 21.0031C17.1969 21.0055 17.1992 21.0078 17.2039 21.0102C17.218 21.0195 17.232 21.0313 17.2437 21.0406C17.2555 21.05 17.2695 21.0617 17.2812 21.0734L17.2906 21.0828L17.3188 21.1109L17.3258 21.118C17.3375 21.1297 17.3492 21.1437 17.3586 21.1555C17.3609 21.1578 17.3633 21.1625 17.3656 21.1648C17.375 21.1742 17.382 21.1859 17.3891 21.1977C17.3914 21.2023 17.3937 21.2047 17.3961 21.2094L17.4242 21.2516C17.4242 21.2516 17.4242 21.2539 17.4266 21.2539C17.5047 21.385 17.546 21.5348 17.5461 21.6875C17.5461 21.8281 17.5109 21.9617 17.45 22.0789C17.443 22.093 17.4336 22.107 17.4266 22.1211C17.4266 22.1211 17.4266 22.1234 17.4242 22.1234L17.3961 22.1656C17.3937 22.1703 17.3914 22.1727 17.3891 22.1773C17.382 22.1891 17.3727 22.1984 17.3656 22.2102C17.3633 22.2125 17.3609 22.2172 17.3586 22.2195C17.3469 22.2336 17.3375 22.2453 17.3258 22.257L17.3188 22.2641L17.2906 22.2922L17.2812 22.3016C17.2695 22.3133 17.2578 22.3227 17.2437 22.3344C17.2297 22.3461 17.218 22.3555 17.2039 22.3648C17.1992 22.3672 17.1969 22.3695 17.1922 22.3719C17.1805 22.3789 17.1711 22.3883 17.1594 22.3953C17.157 22.3977 17.1523 22.4 17.15 22.4023C17.1359 22.4117 17.1219 22.4187 17.1055 22.4281C17.1031 22.4305 17.0984 22.4305 17.0961 22.4328C17.0844 22.4398 17.0727 22.4445 17.0586 22.4516L17.0445 22.4586C17.0281 22.4656 17.0141 22.4727 16.9977 22.4773C16.9812 22.4844 16.9648 22.4891 16.9484 22.4938C16.9437 22.4961 16.9391 22.4961 16.9344 22.4984C16.9203 22.5031 16.9086 22.5055 16.8945 22.5078C16.8898 22.5078 16.8875 22.5102 16.8828 22.5102C16.8664 22.5148 16.8477 22.5172 16.8312 22.5195C16.8266 22.5195 16.8242 22.5195 16.8195 22.5219C16.8055 22.5242 16.7914 22.5242 16.7773 22.5266H16.7633C16.7445 22.5266 16.7281 22.5289 16.7094 22.5289C16.6906 22.5289 16.6742 22.5289 16.6555 22.5266H16.6414C16.6273 22.5266 16.6133 22.5242 16.5992 22.5219C16.5945 22.5219 16.5922 22.5219 16.5875 22.5195C16.5711 22.5172 16.5523 22.5148 16.5359 22.5102C16.5313 22.5102 16.5289 22.5078 16.5242 22.5078C16.5102 22.5055 16.4961 22.5008 16.4844 22.4984C16.4797 22.4961 16.475 22.4961 16.4703 22.4938C16.4539 22.4891 16.4375 22.4844 16.4211 22.4773C16.4047 22.4727 16.3906 22.4656 16.3742 22.4586L16.3602 22.4516C16.3484 22.4469 16.3344 22.4398 16.3227 22.4328C16.3203 22.4305 16.3156 22.4305 16.3133 22.4281C16.2992 22.4211 16.2828 22.4117 16.2687 22.4023C16.2664 22.4 16.2617 22.3977 16.2594 22.3953C16.2477 22.3883 16.2359 22.3813 16.2266 22.3719C16.2219 22.3695 16.2195 22.3672 16.2148 22.3648C16.2008 22.3555 16.1867 22.3437 16.175 22.3344C16.1633 22.325 16.1492 22.3133 16.1375 22.3016L16.1281 22.2922L16.1 22.2641L16.093 22.257C16.0812 22.2453 16.0695 22.2313 16.0602 22.2195C16.0578 22.2172 16.0555 22.2125 16.0531 22.2102C16.0438 22.2008 16.0367 22.1891 16.0297 22.1773C16.0273 22.1727 16.025 22.1703 16.0227 22.1656L15.9945 22.1234V22.1211C15.9852 22.107 15.9781 22.093 15.9711 22.0789C15.9102 21.9617 15.875 21.8281 15.875 21.6875C15.875 21.5469 15.9102 21.4133 15.9711 21.2961ZM22.5312 20.6328V25.8125C22.5312 25.9156 22.6156 26 22.7188 26H23.8438C23.9469 26 24.0312 25.9156 24.0312 25.8125V20.6328C23.7945 20.7102 23.5437 20.75 23.2812 20.75C23.0188 20.75 22.768 20.7078 22.5312 20.6328ZM24.0312 15.9922V14.1875C24.0312 14.0844 23.9469 14 23.8438 14H22.7188C22.6156 14 22.5312 14.0844 22.5312 14.1875V15.9922C22.768 15.9148 23.0188 15.875 23.2812 15.875C23.5437 15.875 23.7945 15.9172 24.0312 15.9922ZM22.5312 20.6328C22.768 20.7102 23.0188 20.75 23.2812 20.75C23.5437 20.75 23.7945 20.7078 24.0312 20.6328C25.0109 20.3164 25.7188 19.3977 25.7188 18.3125C25.7188 17.2273 25.0109 16.3086 24.0312 15.9922C23.7945 15.9148 23.5437 15.875 23.2812 15.875C23.0188 15.875 22.768 15.9172 22.5312 15.9922C21.5516 16.3086 20.8438 17.2273 20.8438 18.3125C20.8438 19.3977 21.5516 20.3164 22.5312 20.6328ZM22.5336 17.9211C22.5406 17.907 22.55 17.893 22.557 17.8789V17.8766L22.5852 17.8344C22.5875 17.8297 22.5898 17.8273 22.5922 17.8227C22.5992 17.8109 22.6086 17.8016 22.6156 17.7898C22.618 17.7875 22.6203 17.7828 22.6227 17.7805C22.6344 17.7664 22.6437 17.7547 22.6555 17.743L22.6625 17.7359L22.6906 17.7078L22.7 17.6984C22.7117 17.6867 22.7234 17.6773 22.7375 17.6656C22.7516 17.6539 22.7633 17.6445 22.7773 17.6352C22.782 17.6328 22.7844 17.6305 22.7891 17.6281C22.8008 17.6211 22.8102 17.6117 22.8219 17.6047C22.8242 17.6023 22.8289 17.6 22.8312 17.5977C22.8453 17.5883 22.8594 17.5812 22.8758 17.5719C22.8781 17.5695 22.8828 17.5695 22.8852 17.5672C22.8969 17.5602 22.9086 17.5555 22.9227 17.5484L22.9367 17.5414C22.9531 17.5344 22.9672 17.5273 22.9836 17.5227C23 17.5156 23.0164 17.5109 23.0328 17.5063C23.0375 17.5039 23.0422 17.5039 23.0469 17.5016C23.0609 17.4969 23.0727 17.4945 23.0867 17.4922C23.0914 17.4922 23.0938 17.4898 23.0984 17.4898C23.1148 17.4852 23.1336 17.4828 23.15 17.4805C23.1547 17.4805 23.157 17.4805 23.1617 17.4781C23.1758 17.4758 23.1898 17.4758 23.2039 17.4734H23.218C23.2367 17.4734 23.2531 17.4711 23.2719 17.4711C23.2906 17.4711 23.307 17.4711 23.3258 17.4734H23.3398C23.3539 17.4734 23.368 17.4758 23.382 17.4781C23.3867 17.4781 23.3891 17.4781 23.3937 17.4805C23.4102 17.4828 23.4289 17.4852 23.4453 17.4898C23.45 17.4898 23.4523 17.4922 23.457 17.4922C23.4711 17.4945 23.4852 17.4992 23.4969 17.5016C23.5016 17.5039 23.5062 17.5039 23.5109 17.5063C23.5273 17.5109 23.5438 17.5156 23.5602 17.5227C23.5766 17.5273 23.5906 17.5344 23.607 17.5414L23.6211 17.5484C23.6328 17.5531 23.6469 17.5602 23.6586 17.5672C23.6609 17.5695 23.6656 17.5695 23.668 17.5719C23.682 17.5789 23.6984 17.5883 23.7125 17.5977C23.7148 17.6 23.7195 17.6023 23.7219 17.6047C23.7336 17.6117 23.7453 17.6187 23.7547 17.6281C23.7594 17.6305 23.7617 17.6328 23.7664 17.6352C23.7805 17.6445 23.7945 17.6562 23.8063 17.6656C23.818 17.675 23.832 17.6867 23.8438 17.6984L23.8531 17.7078L23.8812 17.7359L23.8883 17.743C23.9 17.7547 23.9117 17.7687 23.9211 17.7805C23.9234 17.7828 23.9258 17.7875 23.9281 17.7898C23.9375 17.7992 23.9445 17.8109 23.9516 17.8227C23.9539 17.8273 23.9563 17.8297 23.9586 17.8344L23.9867 17.8766V17.8789C24.0649 18.01 24.1062 18.1598 24.1063 18.3125C24.1063 18.4531 24.0711 18.5867 24.0102 18.7039C24.0031 18.718 23.9937 18.732 23.9867 18.7461V18.7484L23.9586 18.7906C23.9563 18.7953 23.9539 18.7977 23.9516 18.8023C23.9445 18.8141 23.9352 18.8234 23.9281 18.8352C23.9258 18.8375 23.9234 18.8422 23.9211 18.8445C23.9094 18.8586 23.9 18.8703 23.8883 18.882L23.8812 18.8891L23.8531 18.9172L23.8438 18.9266C23.832 18.9383 23.8203 18.9477 23.8063 18.9594C23.7922 18.9711 23.7805 18.9805 23.7664 18.9898C23.7617 18.9922 23.7594 18.9945 23.7547 18.9969C23.743 19.0039 23.7336 19.0133 23.7219 19.0203C23.7195 19.0227 23.7148 19.025 23.7125 19.0273C23.6984 19.0367 23.6844 19.0437 23.668 19.0531C23.6656 19.0555 23.6609 19.0555 23.6586 19.0578C23.6469 19.0648 23.6352 19.0695 23.6211 19.0766L23.607 19.0836C23.5906 19.0906 23.5766 19.0977 23.5602 19.1023C23.5438 19.1094 23.5273 19.1141 23.5109 19.1187C23.5062 19.1211 23.5016 19.1211 23.4969 19.1234C23.4828 19.1281 23.4711 19.1305 23.457 19.1328C23.4523 19.1328 23.45 19.1352 23.4453 19.1352C23.4289 19.1398 23.4102 19.1422 23.3937 19.1445C23.3891 19.1445 23.3867 19.1445 23.382 19.1469C23.368 19.1492 23.3539 19.1492 23.3398 19.1516H23.3258C23.307 19.1516 23.2906 19.1539 23.2719 19.1539C23.2531 19.1539 23.2367 19.1539 23.218 19.1516H23.2039C23.1898 19.1516 23.1758 19.1492 23.1617 19.1469C23.157 19.1469 23.1547 19.1469 23.15 19.1445C23.1336 19.1422 23.1148 19.1398 23.0984 19.1352C23.0938 19.1352 23.0914 19.1328 23.0867 19.1328C23.0727 19.1305 23.0586 19.1258 23.0469 19.1234C23.0422 19.1211 23.0375 19.1211 23.0328 19.1187C23.0164 19.1141 23 19.1094 22.9836 19.1023C22.9672 19.0977 22.9531 19.0906 22.9367 19.0836L22.9227 19.0766C22.9109 19.0719 22.8969 19.0648 22.8852 19.0578C22.8828 19.0555 22.8781 19.0555 22.8758 19.0531C22.8617 19.0461 22.8453 19.0367 22.8312 19.0273C22.8289 19.025 22.8242 19.0227 22.8219 19.0203C22.8102 19.0133 22.7984 19.0063 22.7891 18.9969C22.7844 18.9945 22.782 18.9922 22.7773 18.9898C22.7633 18.9805 22.7492 18.9688 22.7375 18.9594C22.7258 18.95 22.7117 18.9383 22.7 18.9266L22.6906 18.9172L22.6625 18.8891L22.6555 18.882C22.6437 18.8703 22.632 18.8563 22.6227 18.8445C22.6203 18.8422 22.618 18.8375 22.6156 18.8352C22.6062 18.8258 22.5992 18.8141 22.5922 18.8023C22.5898 18.7977 22.5875 18.7953 22.5852 18.7906L22.557 18.7484V18.7461C22.5477 18.732 22.5406 18.718 22.5336 18.7039C22.4727 18.5867 22.4375 18.4531 22.4375 18.3125C22.4375 18.1719 22.4727 18.0383 22.5336 17.9211Z" fill="#13C2C2"/>
</svg>
