<svg width="40" height="40" viewBox="0 0 40 40" fill="none" xmlns="http://www.w3.org/2000/svg">
<circle cx="20" cy="20" r="19.5" fill="white" stroke="#E8E8E8"/>
<path d="M28.1214 25.8969C27.6793 24.8496 27.0377 23.8984 26.2323 23.0961C25.4294 22.2915 24.4783 21.65 23.4316 21.207C23.4222 21.2023 23.4128 21.2 23.4034 21.1953C24.8636 20.1406 25.8128 18.4227 25.8128 16.4844C25.8128 13.2734 23.2112 10.6719 20.0003 10.6719C16.7894 10.6719 14.1878 13.2734 14.1878 16.4844C14.1878 18.4227 15.137 20.1406 16.5972 21.1977C16.5878 21.2023 16.5784 21.2047 16.5691 21.2094C15.5191 21.6523 14.5769 22.2875 13.7683 23.0984C12.9637 23.9013 12.3222 24.8524 11.8792 25.8992C11.444 26.924 11.2093 28.0228 11.1878 29.1359C11.1872 29.161 11.1916 29.1858 11.2007 29.2091C11.2098 29.2324 11.2236 29.2537 11.241 29.2716C11.2585 29.2895 11.2794 29.3037 11.3025 29.3134C11.3255 29.3231 11.3503 29.3281 11.3753 29.3281H12.7816C12.8847 29.3281 12.9667 29.2461 12.9691 29.1453C13.0159 27.3359 13.7425 25.6414 15.0269 24.357C16.3558 23.0281 18.1206 22.2969 20.0003 22.2969C21.88 22.2969 23.6448 23.0281 24.9737 24.357C26.2581 25.6414 26.9847 27.3359 27.0316 29.1453C27.0339 29.2484 27.1159 29.3281 27.2191 29.3281H28.6253C28.6503 29.3281 28.6751 29.3231 28.6982 29.3134C28.7212 29.3037 28.7421 29.2895 28.7596 29.2716C28.777 29.2537 28.7908 29.2324 28.7999 29.2091C28.809 29.1858 28.8134 29.161 28.8128 29.1359C28.7894 28.0156 28.5573 26.9258 28.1214 25.8969ZM20.0003 20.5156C18.9245 20.5156 17.912 20.0961 17.1503 19.3344C16.3886 18.5727 15.9691 17.5602 15.9691 16.4844C15.9691 15.4086 16.3886 14.3961 17.1503 13.6344C17.912 12.8727 18.9245 12.4531 20.0003 12.4531C21.0761 12.4531 22.0886 12.8727 22.8503 13.6344C23.612 14.3961 24.0316 15.4086 24.0316 16.4844C24.0316 17.5602 23.612 18.5727 22.8503 19.3344C22.0886 20.0961 21.0761 20.5156 20.0003 20.5156Z" fill="#722ED1"/>
</svg>
