<svg width="40" height="40" viewBox="0 0 40 40" fill="none" xmlns="http://www.w3.org/2000/svg">
<circle cx="20" cy="20" r="19.5" fill="white" stroke="#E8E8E8"/>
<path d="M27.5 9.5H12.5C12.0852 9.5 11.75 9.83516 11.75 10.25V29.75C11.75 30.1648 12.0852 30.5 12.5 30.5H27.5C27.9148 30.5 28.25 30.1648 28.25 29.75V10.25C28.25 9.83516 27.9148 9.5 27.5 9.5ZM13.4375 11.1875H26.5625V16.0625H13.4375V11.1875ZM26.5625 22.4375H13.4375V17.5625H26.5625V22.4375ZM26.5625 28.8125H13.4375V23.9375H26.5625V28.8125ZM15.125 13.625C15.125 13.8736 15.2238 14.1121 15.3996 14.2879C15.5754 14.4637 15.8139 14.5625 16.0625 14.5625C16.3111 14.5625 16.5496 14.4637 16.7254 14.2879C16.9012 14.1121 17 13.8736 17 13.625C17 13.3764 16.9012 13.1379 16.7254 12.9621C16.5496 12.7863 16.3111 12.6875 16.0625 12.6875C15.8139 12.6875 15.5754 12.7863 15.3996 12.9621C15.2238 13.1379 15.125 13.3764 15.125 13.625ZM15.125 20C15.125 20.2486 15.2238 20.4871 15.3996 20.6629C15.5754 20.8387 15.8139 20.9375 16.0625 20.9375C16.3111 20.9375 16.5496 20.8387 16.7254 20.6629C16.9012 20.4871 17 20.2486 17 20C17 19.7514 16.9012 19.5129 16.7254 19.3371C16.5496 19.1613 16.3111 19.0625 16.0625 19.0625C15.8139 19.0625 15.5754 19.1613 15.3996 19.3371C15.2238 19.5129 15.125 19.7514 15.125 20ZM15.125 26.375C15.125 26.6236 15.2238 26.8621 15.3996 27.0379C15.5754 27.2137 15.8139 27.3125 16.0625 27.3125C16.3111 27.3125 16.5496 27.2137 16.7254 27.0379C16.9012 26.8621 17 26.6236 17 26.375C17 26.1264 16.9012 25.8879 16.7254 25.7121C16.5496 25.5363 16.3111 25.4375 16.0625 25.4375C15.8139 25.4375 15.5754 25.5363 15.3996 25.7121C15.2238 25.8879 15.125 26.1264 15.125 26.375Z" fill="#A0D911"/>
</svg>
