<svg width="40" height="40" viewBox="0 0 40 40" fill="none" xmlns="http://www.w3.org/2000/svg">
<circle cx="20" cy="20" r="19.5" fill="white" stroke="#E8E8E8"/>
<path d="M28.0297 14.7758C27.5884 13.7583 26.9523 12.8371 26.157 12.0641C25.3592 11.2841 24.4186 10.665 23.3867 10.2406C22.3133 9.79531 21.1742 9.57031 20 9.57031C18.8258 9.57031 17.6867 9.79531 16.6133 10.2383C15.575 10.6672 14.6445 11.2813 13.843 12.0617C13.0483 12.8352 12.4121 13.7563 11.9703 14.7734C11.5133 15.8281 11.2812 16.9484 11.2812 18.1016C11.2812 19.7563 11.6773 21.4039 12.4555 22.993C13.0813 24.2703 13.9555 25.5148 15.057 26.6984C16.9391 28.7188 18.9125 29.9539 19.4727 30.2844C19.6317 30.3783 19.813 30.4277 19.9977 30.4273C20.1805 30.4273 20.3609 30.3805 20.5227 30.2844C21.0828 29.9539 23.0563 28.7188 24.9383 26.6984C26.0398 25.5172 26.9141 24.2703 27.5398 22.993C28.3227 21.4062 28.7188 19.7609 28.7188 18.1039C28.7188 16.9508 28.4867 15.8305 28.0297 14.7758ZM20 28.6297C18.4555 27.6477 12.9688 23.7594 12.9688 18.1039C12.9688 16.2781 13.6977 14.5625 15.0219 13.2688C16.3508 11.9727 18.118 11.2578 20 11.2578C21.882 11.2578 23.6492 11.9727 24.9781 13.2711C26.3023 14.5625 27.0312 16.2781 27.0312 18.1039C27.0312 23.7594 21.5445 27.6477 20 28.6297ZM20 14.1641C17.7219 14.1641 15.875 16.0109 15.875 18.2891C15.875 20.5672 17.7219 22.4141 20 22.4141C22.2781 22.4141 24.125 20.5672 24.125 18.2891C24.125 16.0109 22.2781 14.1641 20 14.1641ZM21.8563 20.1453C21.6128 20.3895 21.3234 20.5831 21.0049 20.715C20.6863 20.847 20.3448 20.9146 20 20.9141C19.2992 20.9141 18.6406 20.6398 18.1437 20.1453C17.8996 19.9018 17.706 19.6125 17.574 19.2939C17.4421 18.9754 17.3745 18.6339 17.375 18.2891C17.375 17.5883 17.6492 16.9297 18.1437 16.4328C18.6406 15.9359 19.2992 15.6641 20 15.6641C20.7008 15.6641 21.3594 15.9359 21.8563 16.4328C22.3531 16.9297 22.625 17.5883 22.625 18.2891C22.625 18.9898 22.3531 19.6484 21.8563 20.1453Z" fill="#F5222D"/>
</svg>
